<svg xmlns="http://www.w3.org/2000/svg" width="32.522" height="45" viewBox="0 0 32.522 45"><defs><style>.a{fill:#fff;}</style></defs><path class="a" d="M13.964,20.657V12.643a5.421,5.421,0,0,1,10.841,0v8.014a9.584,9.584,0,0,0,4.336-8.014,9.757,9.757,0,0,0-19.513,0A9.584,9.584,0,0,0,13.964,20.657ZM35.3,30.579l-9.843-4.843a3.084,3.084,0,0,0-1.171-.236H22.637V12.643a3.252,3.252,0,0,0-6.5,0V35.657L8.7,34.114a3.832,3.832,0,0,0-.52-.064,2.44,2.44,0,0,0-1.713.707L4.75,36.471,15.46,47.057a3.283,3.283,0,0,0,2.3.943H32.48A3.145,3.145,0,0,0,35.6,45.257l1.626-11.293a3.064,3.064,0,0,0-1.93-3.386Z" transform="translate(-4.75 -3)"/></svg>