<svg xmlns="http://www.w3.org/2000/svg" width="58" height="58" viewBox="0 0 58 58"><defs><style>.a{fill:rgba(255,255,255,0.18);stroke:#ffd800;}.b{fill:#fff;}.c{stroke:none;}.d{fill:none;}</style></defs><g transform="translate(-288 -600)"><g class="a" transform="translate(288 600)"><circle class="c" cx="29" cy="29" r="29"/><circle class="d" cx="29" cy="29" r="28.5"/></g><path class="b" d="M11.171,14.923V9.512a3.7,3.7,0,0,1,3.777-3.618,3.7,3.7,0,0,1,3.777,3.618v5.412a6.424,6.424,0,0,0,3.022-5.412A6.651,6.651,0,0,0,14.948,3a6.651,6.651,0,0,0-6.8,6.512A6.424,6.424,0,0,0,11.171,14.923Zm14.867,6.7-6.859-3.27a2.209,2.209,0,0,0-.816-.159H17.215V9.512a2.268,2.268,0,0,0-4.533,0V25.052L7.5,24.011a2.751,2.751,0,0,0-.363-.043,1.728,1.728,0,0,0-1.194.478L4.75,25.6l7.464,7.148a2.326,2.326,0,0,0,1.6.637H24.074a2.17,2.17,0,0,0,2.176-1.852l1.133-7.626a2.086,2.086,0,0,0,.03-.289,2.169,2.169,0,0,0-1.375-2Z" transform="translate(301.418 611.306)"/></g></svg>