<svg xmlns="http://www.w3.org/2000/svg" width="136.742" height="144.242" viewBox="0 0 136.742 144.242"><defs><style>.a{fill:none;stroke:#fff;}</style></defs><path class="a" d="M47.113,1A17.246,17.246,0,0,0,34.874,6.012c-7.343,7.46-8.509,22.146-8.392,38a3.917,3.917,0,0,0-2.8-1.282c-2.564,0-3.031.932-3.5,7.343s-2.331,11.306-1.981,16.668-.816,21.913,2.1,30.422c2.914,8.392,12.239,24.128,12.938,32.986H73.105s-.583-7.343,1.282-10.723S87.558,103.338,86.393,73.5c-.35-7.343,1.049-17.95-2.1-20.048-3.38-2.215-3.5-3.5-3.5-3.5s1.049-7.343-1.981-9.674c-2.448-1.865-6.877-3.5-9.558-5.129C68.093,9.625,62.731,1.35,48.978,1M40.119,4.38l6.644,3.5a8.04,8.04,0,0,0-.816,2.215L37.788,5.9A26.378,26.378,0,0,1,40.119,4.38ZM36.273,7.294c.233-.233.583-.466.816-.7l8.858,4.546a14.861,14.861,0,0,0-.117,2.331V13.7L35.457,8.343A1.86,1.86,0,0,1,36.273,7.294Zm-3.264,4.429,3.031,1.632a8.04,8.04,0,0,0-.816,2.215L31.96,13.938C32.31,13.122,32.659,12.423,33.009,11.723Zm-1.282,3.031,3.38,1.748a14.549,14.549,0,0,0-.233,2.448l-3.846-1.981A16.194,16.194,0,0,1,31.727,14.754ZM30.678,17.9l4.08,2.1V22.68L30.1,20.232C30.328,19.416,30.445,18.717,30.678,17.9Zm3.031,61.893-1.166-.583v-4.2a14.517,14.517,0,0,0,2.215,1.748A11.6,11.6,0,0,1,33.708,79.793Zm1.748-4.779a15.592,15.592,0,0,1-2.914-2.681c-.233-7.576-1.049-19.582-4.2-25.759A146.146,146.146,0,0,1,29.4,24.661l.932.466H32.31l-2.8-1.4a18.1,18.1,0,0,1,.466-2.448l4.9,2.564C35.34,39,37.322,58.58,37.322,63.009A64.717,64.717,0,0,1,35.457,75.015Zm1.166-62.475-3.147-1.632a11.548,11.548,0,0,1,1.282-1.981l4.2,2.215A3.84,3.84,0,0,0,36.622,12.539Zm8.043,2.914a3.963,3.963,0,0,0-.816-1.748l1.748.932a19.081,19.081,0,0,0,.466,2.914l-1.282-.7A2.87,2.87,0,0,0,44.665,15.453Zm15.852-.35c-5.478-4.779-9.092-1.515-8.742,1.049S55.5,25.827,55.5,32s-1.4,29.489-1.4,29.489-1.865,1.515-3.031-6.411c-.932-5.828-2.914-19.349-4.662-29.956h.233l-.35-.117c-.117-1.049-.35-1.981-.466-2.914l2.1,1.049V22.1l-2.215-1.166c-.117-1.049-.35-1.981-.466-2.914l1.632.816c.35.466.7.816,1.049.816,1.166,0,2.215-2.8,2.215-6.294s-.932-6.294-2.215-6.294a.881.881,0,0,0-.466.117L41.168,3.914a16.073,16.073,0,0,1,3.38-.932L47.812,4.73V3.681L46.18,2.865c.583,0,1.049-.117,1.632-.117,12.938,0,18.067,6.76,19.465,29.489C66.578,28.042,64.713,18.717,60.517,15.1Z" transform="translate(-13.862 55.523) rotate(-40)"/></svg>