<svg xmlns="http://www.w3.org/2000/svg" width="125.607" height="120.04" viewBox="0 0 125.607 120.04"><defs><style>.a{fill:#fff;}</style></defs><g transform="matrix(0.788, -0.616, 0.616, 0.788, -15.256, 44.226)"><path class="a" d="M63.9,16.7h8.9a.773.773,0,0,1,.8.7v2.2c0,.4.3.5.6.2l8.1-5.2a.561.561,0,0,0,0-.9L74.2,8.5c-.3-.3-.6-.1-.6.2v2.2a.713.713,0,0,1-.8.7H63.9a.849.849,0,0,0-.8.7V16A.773.773,0,0,0,63.9,16.7Z"/><path class="a" d="M21.2,19.8c.3.2.6.1.6-.2V17.4a.713.713,0,0,1,.8-.7h8.9a.773.773,0,0,0,.8-.7V12.3a.713.713,0,0,0-.8-.7H22.6a.773.773,0,0,1-.8-.7V8.7c0-.4-.3-.5-.6-.3l-8.1,5.2a.562.562,0,0,0,0,.9Z"/><g transform="translate(306.67 376.31)"><path class="a" d="M-226.1-295.2a13.569,13.569,0,0,0-.1,1.8c-.2,2.6-.7,10.5-2.3,14.2-1.8,4.2-.6,9.5-.6,9.7v.1a4,4,0,0,1-.3,3c-.8,1.7-3.5,4.9-11.9,7.5-10,3.1-13,.2-13.2-.1-.9-1.5-17.5-29.5-17-42.5.1-5,.3-18.5.5-20a22.024,22.024,0,0,0-.3-4.9c-.2-1.8-.6-5.1-.1-5.6h.5c.1,0,3.1.4,4.6,5.6,0,2.6-.1,5.3-.1,8.1,0,2.4-.1,4.2-.1,5a18.765,18.765,0,0,1-1.8,8l1.1.6,1.1.6a22.431,22.431,0,0,0,2.1-9.2c0-.8,0-2.6.1-5,0-2.9.1-5.7.1-8.3h0v-.1c.4-22.6,1-34.8,1.9-36.4a3.008,3.008,0,0,1,3.1-1.4c.9.2,1.5,1,1.7,2.3s.4,5.7.6,10.9c.7,15.1,1.4,27.9,2.6,31l2.3-.9c-.8-1.9-1.4-10-1.8-18.3a4.385,4.385,0,0,1,3.4.5c2.3,1.4,3.7,4.9,4.3,7.7.6,2.9,1.2,10.5,1.2,10.6l2.5-.2c0-.3-.7-7.8-1.3-10.8-.1-.4-.2-.9-.4-1.6,4.8-.1,6,4.8,6.2,5.3.5,2.4,4.1,12,4.2,12.4l2.3-.9c-.8-2.1-2-5.4-2.9-8.1,2.9.4,4.4,3.4,6.1,7.1.5,1,.9,2,1.3,2.8,1.8,2.8.8,15.4.4,19.5m2-20.5a19.665,19.665,0,0,1-1.2-2.5c-1.5-3.5-3.8-8.8-9.2-8.7-.2-.6-.3-1.1-.4-1.4-.7-3-3.4-7.9-9.5-7.2a10.873,10.873,0,0,0-4.2-5.3,6.933,6.933,0,0,0-4.9-.9c-.2-3.4-.3-6.6-.5-9.4-.3-5.4-.5-9.7-.7-11.1a4.967,4.967,0,0,0-3.6-4.4,5.431,5.431,0,0,0-5.7,2.5c-1.2,1.7-1.9,11.2-2.3,32.8a7.307,7.307,0,0,0-4.3-2.7,2.752,2.752,0,0,0-2.4.4c-1.6,1.3-1.2,4.3-.8,7.8a23.819,23.819,0,0,1,.3,4.3c-.2,2-.5,19.5-.5,20.2-.6,14.1,16.6,42.7,17.4,43.9v.1c.2.4,2,2.6,7.2,2.6a31.454,31.454,0,0,0,8.8-1.5c8.8-2.7,12.1-6.3,13.3-8.8a6.536,6.536,0,0,0,.5-4.9c-.1-.6-.9-4.9.5-8.1,1.6-3.7,2.2-10.4,2.5-15.1,0-.4.1-1,.1-1.8.9-9.2,1.3-18-.4-20.8"/></g></g></svg>