<svg xmlns="http://www.w3.org/2000/svg" width="14.53" height="16.774" viewBox="0 0 14.53 16.774">
  <path id="ic_hearing_24px" d="M14.3,16.379a1.536,1.536,0,0,1-.613-.121,2.805,2.805,0,0,1-1.38-1.921,4.756,4.756,0,0,0-1.929-2.422A6.136,6.136,0,0,1,8.505,9.873,5.056,5.056,0,0,1,7.843,7.5a4.036,4.036,0,1,1,8.072,0H17.53a5.586,5.586,0,0,0-5.65-5.65A5.586,5.586,0,0,0,6.229,7.5a6.682,6.682,0,0,0,.864,3.148,7.7,7.7,0,0,0,2.3,2.543,3.251,3.251,0,0,1,1.38,1.655,4.394,4.394,0,0,0,2.2,2.866,3.231,3.231,0,0,0,4.553-2.946H15.915A1.619,1.619,0,0,1,14.3,16.379ZM6.745,2.366,5.6,1.22a8.886,8.886,0,0,0,0,12.56l1.138-1.138A7.269,7.269,0,0,1,6.745,2.366ZM9.861,7.5a2.018,2.018,0,1,0,2.018-2.018A2.019,2.019,0,0,0,9.861,7.5Z" transform="translate(-3 -1.22)" />
</svg>
