<svg width="23" height="22" viewBox="0 0 23 22" fill="none" xmlns="http://www.w3.org/2000/svg">
<path d="M12.359 5.53835H10.188V9.88035H5.84597V12.0514H10.188V16.3934H12.359V12.0514H16.701V9.88035H12.359V5.53835ZM11.273 0.110352C9.12606 0.110352 7.02735 0.746986 5.24226 1.93975C3.45716 3.13251 2.06585 4.82783 1.24426 6.81132C0.422672 8.79482 0.207707 10.9774 0.626549 13.0831C1.04539 15.1887 2.07923 17.1229 3.59733 18.641C5.11543 20.1591 7.0496 21.1929 9.15527 21.6118C11.2609 22.0306 13.4435 21.8157 15.427 20.9941C17.4105 20.1725 19.1058 18.7812 20.2986 16.9961C21.4913 15.211 22.128 13.1123 22.128 10.9654C22.1232 8.08789 20.978 5.32964 18.9434 3.29496C16.9087 1.26029 14.1504 0.115111 11.273 0.110352ZM11.273 19.6494C9.55544 19.6494 7.87648 19.14 6.4484 18.1858C5.02032 17.2316 3.90728 15.8754 3.25 14.2886C2.59273 12.7018 2.42076 10.9557 2.75583 9.27119C3.09091 7.58666 3.91798 6.03932 5.13246 4.82484C6.34694 3.61036 7.89428 2.78329 9.57881 2.44821C11.2633 2.11314 13.0094 2.28511 14.5962 2.94238C16.183 3.59965 17.5392 4.7127 18.4935 6.14078C19.4477 7.56886 19.957 9.24782 19.957 10.9654C19.9527 13.2672 19.0365 15.4735 17.4088 17.1012C15.7812 18.7288 13.5748 19.6451 11.273 19.6494Z" fill="#04AFF0"/>
</svg>
