<svg xmlns="http://www.w3.org/2000/svg" width="19" height="19.001" viewBox="0 0 19 19.001">
  <path id="Union_109" data-name="Union 109" d="M-9999.783,7261.331a8.4,8.4,0,0,1-2.682-1.826,8.493,8.493,0,0,1-1.807-2.708,8.351,8.351,0,0,1-.408-1.226,1.809,1.809,0,0,1-1.321-1.748,1.8,1.8,0,0,1,1.794-1.812,1.8,1.8,0,0,1,1.793,1.813,1.82,1.82,0,0,1-.65,1.4,6.883,6.883,0,0,0,.314.929,6.843,6.843,0,0,0,1.465,2.18,6.805,6.805,0,0,0,2.172,1.469,6.729,6.729,0,0,0,1.643.464v-10.546a3.519,3.519,0,0,1-.352-.128,3.392,3.392,0,0,1-1.078-.735,3.43,3.43,0,0,1-.728-1.089,3.46,3.46,0,0,1-.267-1.334,3.461,3.461,0,0,1,.267-1.335,3.434,3.434,0,0,1,.728-1.09,3.4,3.4,0,0,1,1.078-.734,3.345,3.345,0,0,1,1.321-.27,3.345,3.345,0,0,1,1.321.27,3.4,3.4,0,0,1,1.078.734,3.418,3.418,0,0,1,.728,1.09,3.444,3.444,0,0,1,.267,1.335,3.442,3.442,0,0,1-.267,1.334,3.414,3.414,0,0,1-.728,1.089,3.392,3.392,0,0,1-1.078.735c-.053.022-.105.043-.158.063v10.6a6.7,6.7,0,0,0,1.545-.449,6.779,6.779,0,0,0,2.172-1.469,6.811,6.811,0,0,0,1.465-2.18,6.781,6.781,0,0,0,.3-.866,1.813,1.813,0,0,1-.731-1.459,1.8,1.8,0,0,1,1.793-1.812,1.8,1.8,0,0,1,1.794,1.813,1.809,1.809,0,0,1-1.321,1.748,8.589,8.589,0,0,1-.408,1.226,8.48,8.48,0,0,1-1.808,2.708,8.386,8.386,0,0,1-2.681,1.826,8.289,8.289,0,0,1-3.283.67A8.287,8.287,0,0,1-9999.783,7261.331Zm1.441-14.9a1.853,1.853,0,0,0,1.841,1.86,1.854,1.854,0,0,0,1.843-1.86,1.854,1.854,0,0,0-1.843-1.861A1.853,1.853,0,0,0-9998.342,7246.429Z" transform="translate(10006.001 -7243)" />
</svg>
