<svg width="18" height="19" viewBox="0 0 18 19" fill="none" xmlns="http://www.w3.org/2000/svg">
<path d="M18 16.1113V2.11133C17.9984 1.58138 17.7872 1.07359 17.4125 0.698863C17.0377 0.324133 16.5299 0.112911 16 0.111328H2C1.47005 0.112911 0.962265 0.324133 0.587535 0.698863C0.212805 1.07359 0.00158273 1.58138 0 2.11133V16.1113C0.00158273 16.6413 0.212805 17.1491 0.587535 17.5238C0.962265 17.8985 1.47005 18.1097 2 18.1113H16C16.5299 18.1097 17.0377 17.8985 17.4125 17.5238C17.7872 17.1491 17.9984 16.6413 18 16.1113V16.1113ZM5.5 10.6113L8 13.6213L11.5 9.11133L16 15.1113H2L5.5 10.6113Z" fill="#8A88C3"/>
</svg>
