<svg width="20" height="20" viewBox="0 0 14 15" fill="none" xmlns="http://www.w3.org/2000/svg">
<path d="M6.79739 14.2837C5.45802 14.2837 4.14872 13.8866 3.03507 13.1425C1.92142 12.3983 1.05344 11.3407 0.540881 10.1033C0.0283248 8.86586 -0.105783 7.50424 0.155516 6.1906C0.416815 4.87696 1.06179 3.6703 2.00887 2.72322C2.95595 1.77614 4.1626 1.13117 5.47624 0.869871C6.78988 0.608572 8.15151 0.74268 9.38893 1.25524C10.6263 1.76779 11.684 2.63578 12.4281 3.74943C13.1722 4.86308 13.5694 6.17237 13.5694 7.51175C13.5675 9.30723 12.8535 11.0286 11.5839 12.2982C10.3143 13.5678 8.59287 14.2819 6.79739 14.2837V14.2837ZM2.74039 7.47475L1.96039 8.25075L5.03339 11.3247L11.6334 4.72475L10.8584 3.94875L5.03339 9.76775L2.74039 7.47475Z" fill="#3F3A60"/>
</svg>
