<svg width="31" height="31" viewBox="0 0 31 31" fill="none" xmlns="http://www.w3.org/2000/svg">
<path d="M12.358 10.6916L10.7971 12.2005L13.8148 15.3224L10.6929 18.3401L12.2017 19.901L15.3236 16.8833L18.3413 20.0052L19.9023 18.4964L16.8846 15.3745L20.0065 12.3568L18.4976 10.7958L15.3757 13.8135L12.358 10.6916ZM7.80475 7.54366C6.26112 9.03577 5.19461 10.9521 4.7401 13.0503C4.28558 15.1486 4.46348 17.3345 5.25128 19.3316C6.03908 21.3288 7.40142 23.0474 9.166 24.2703C10.9306 25.4932 13.0182 26.1653 15.1648 26.2018C17.3113 26.2382 19.4205 25.6373 21.2256 24.475C23.0307 23.3127 24.4505 21.6413 25.3057 19.672C26.1608 17.7028 26.4128 15.5242 26.0297 13.4117C25.6467 11.2992 24.6458 9.34781 23.1537 7.80418C21.1505 5.73859 18.4101 4.55131 15.5331 4.50248C12.656 4.45365 9.87695 5.54725 7.80475 7.54366ZM21.3844 21.5922C20.1494 22.7859 18.5883 23.5866 16.8983 23.893C15.2084 24.1994 13.4655 23.9979 11.8901 23.3138C10.3147 22.6297 8.97754 21.4938 8.04771 20.0497C7.11787 18.6057 6.63714 16.9183 6.66628 15.201C6.69543 13.4838 7.23316 11.8137 8.21146 10.402C9.18976 8.99036 10.5647 7.9005 12.1624 7.27025C13.7601 6.64001 15.5088 6.49769 17.1874 6.8613C18.866 7.22492 20.3991 8.07812 21.5928 9.31303C23.1895 10.971 24.0641 13.1942 24.0251 15.4957C23.986 17.7972 23.0364 19.9894 21.3844 21.5922Z" fill="#F1205F"/>
</svg>
