<?xml version="1.0" encoding="UTF-8"?>
<svg width="3.4396mm" height="3.5718mm" version="1.1" viewBox="0 0 3.4396 3.5718" xmlns="http://www.w3.org/2000/svg">
 <style/>
 <g transform="translate(-125.14 .57378)">
  <g transform="matrix(3.1125 0 0 3.1125 -264.37 1.2121)" fill-rule="evenodd">
   <path d="m125.23-0.34837h0.0493v0.68649c0 0.051231 0.0395 0.092215 0.0888 0.092215h0.66107v0.051231c0 0.051231-0.0395 0.092215-0.0888 0.092215h-0.7104c-0.0493 0-0.0888-0.040985-0.0888-0.092215v-0.73772c0-0.051231 0.0395-0.092215 0.0888-0.092215z"/>
   <path d="m125.46-0.57378h0.70053c0.0493 0 0.0888 0.040985 0.0888 0.092215v0.73772c0 0.051231-0.0395 0.092215-0.0888 0.092215h-0.70053c-0.0493 0-0.0888-0.040985-0.0888-0.092215v-0.73772c0-0.051231 0.0395-0.092215 0.0888-0.092215z"/>
  </g>
 </g>
</svg>
