<svg width="23" height="24" viewBox="0 0 23 24" fill="none" xmlns="http://www.w3.org/2000/svg">
<path d="M11.1703 0.972656C8.96647 0.972656 6.81209 1.62618 4.97963 2.85059C3.14717 4.075 1.71895 5.8153 0.875559 7.85141C0.0321718 9.88753 -0.188497 12.128 0.241458 14.2895C0.671414 16.4511 1.73268 18.4366 3.29106 19.9949C4.84943 21.5533 6.83493 22.6146 8.99646 23.0445C11.158 23.4745 13.3985 23.2538 15.4346 22.4104C17.4707 21.5671 19.211 20.1388 20.4354 18.3064C21.6598 16.4739 22.3133 14.3195 22.3133 12.1157C22.3123 9.16067 21.138 6.32702 19.0485 4.23754C16.959 2.14805 14.1253 0.973716 11.1703 0.972656V0.972656ZM12.2843 17.6877H10.0563V15.4587H12.2853L12.2843 17.6877ZM12.2843 13.2307H10.0563V6.54466H12.2853L12.2843 13.2307Z" fill="#F1205F"/>
</svg>
