<svg width="25" height="17" viewBox="0 0 25 17" fill="none" xmlns="http://www.w3.org/2000/svg">
<path d="M12.1 0C9.48803 0.00159667 6.93702 0.789362 4.77894 2.26078C2.62086 3.7322 0.955647 5.81913 0 8.25C0.954946 10.6811 2.62007 12.7682 4.77838 14.2393C6.93668 15.7103 9.48805 16.4971 12.1 16.4971C14.7119 16.4971 17.2633 15.7103 19.4216 14.2393C21.5799 12.7682 23.2451 10.6811 24.2 8.25C23.2444 5.81913 21.5791 3.7322 19.4211 2.26078C17.263 0.789362 14.712 0.00159667 12.1 0V0ZM12.1 13.75C11.0122 13.75 9.94883 13.4274 9.04436 12.8231C8.13989 12.2187 7.43494 11.3598 7.01866 10.3548C6.60238 9.34977 6.49346 8.2439 6.70568 7.177C6.9179 6.11011 7.44172 5.1301 8.21091 4.36091C8.9801 3.59172 9.96011 3.0679 11.027 2.85568C12.0939 2.64346 13.1998 2.75238 14.2048 3.16866C15.2098 3.58494 16.0687 4.28989 16.6731 5.19436C17.2774 6.09883 17.6 7.1622 17.6 8.25C17.6 9.70869 17.0205 11.1076 15.9891 12.1391C14.9576 13.1705 13.5587 13.75 12.1 13.75ZM12.1 4.95C11.4473 4.95 10.8093 5.14354 10.2666 5.50615C9.72394 5.86876 9.30097 6.38415 9.0512 6.98714C8.80143 7.59014 8.73608 8.25366 8.86341 8.8938C8.99074 9.53394 9.30503 10.1219 9.76655 10.5835C10.2281 11.045 10.8161 11.3593 11.4562 11.4866C12.0963 11.6139 12.7599 11.5486 13.3629 11.2988C13.9659 11.049 14.4812 10.6261 14.8439 10.0834C15.2065 9.5407 15.4 8.90268 15.4 8.25C15.4 7.81664 15.3146 7.38752 15.1488 6.98714C14.983 6.58677 14.7399 6.22298 14.4335 5.91655C14.127 5.61011 13.7632 5.36704 13.3629 5.2012C12.9625 5.03536 12.5334 4.95 12.1 4.95Z" fill="#3F3B60"/>
</svg>
