<?xml version="1.0" encoding="UTF-8"?>
<svg width="20" height="20" version="1.1" viewBox="0 0 5.2917 5.2917" xmlns="http://www.w3.org/2000/svg">
 <style/>
 <g transform="translate(-190.22 -131.38)">
  <g transform="translate(-5.3463 .63884)">
   <path d="m196.55 132.43c0.15786 0 0.296 0.14345 0.296 0.31763 0 0.16394-0.13814 0.30739-0.296 0.30739-0.16774 0-0.30587-0.14345-0.30587-0.30739 0-0.17418 0.13813-0.31763 0.30587-0.31763zm2.5456 1.7521c0.2072-0.0922 0.57226-0.34837 0.444-0.61477-0.10854-0.21517-0.49334 0.1332-1.2531 0.1332s-1.1445-0.34837-1.2531-0.1332c-0.12826 0.2664 0.2368 0.52256 0.444 0.61477 0.444 0.20493 1.1741 0.20493 1.6181 0zm0.78933-1.7521c0.16773 0 0.30587 0.14345 0.30587 0.31763 0 0.16394-0.13814 0.30739-0.30587 0.30739-0.15787 0-0.296-0.14345-0.296-0.30739 0-0.17418 0.13813-0.31763 0.296-0.31763z" fill-rule="evenodd"/>
  </g>
 </g>
</svg>
