<svg width="18" height="23" viewBox="0 0 18 23" fill="none" xmlns="http://www.w3.org/2000/svg">
<g style="mix-blend-mode:soft-light" opacity="0.79">
<path d="M15.9456 4.54001C16.5004 4.24551 16.7091 4.46425 16.7295 5.04767C16.7139 5.71898 16.4657 6.36404 16.0273 6.87268C15.6673 7.15936 15.3444 7.65178 14.85 7.35803C14.3556 7.06428 15.3908 4.83451 15.9456 4.54001Z" fill="#172EDC"/>
</g>
<g style="mix-blend-mode:soft-light" opacity="0.79">
<path d="M2.16779 18.814C1.61298 19.1085 1.40428 18.8897 1.38384 18.3063C1.39948 17.635 1.64769 16.9899 2.08607 16.4813C2.44607 16.1936 2.7719 15.7011 3.2632 15.9919C3.75449 16.2828 2.7226 18.5195 2.16779 18.814Z" fill="#172EDC"/>
</g>
<path d="M2.1002 20.1768C2.1002 20.1768 6.04754 22.7191 9.5851 22.5412C13.1227 22.3632 17.6424 20.008 17.5623 16.1509C17.6154 14.9029 17.2713 13.6706 16.5775 12.6319C15.8837 11.5931 14.8779 10.8016 13.7047 10.3726C12.4167 9.89562 11.208 9.97587 8.77939 8.63263C6.35079 7.28939 7.84907 5.70679 9.41644 5.84992C10.7343 5.91438 12.0242 6.25273 13.204 6.84345C14.334 7.43301 15.4032 8.54895 16.573 6.59453C16.9164 6.11017 17.0576 5.5112 16.9697 4.92401C16.8818 4.33682 16.5714 3.80694 16.1013 3.44433C15.0175 2.50365 13.7307 1.82654 12.3417 1.46619C10.9526 1.10585 9.49938 1.07163 8.09505 1.36687C2.97969 2.24625 2.3169 6.23247 2.3169 6.23247C2.3169 6.23247 0.975904 10.7806 4.79348 12.6853C6.74278 13.6708 8.7612 14.5141 10.8324 15.2077C12.3924 15.8532 12.1374 17.3059 10.115 17.5908C8.09247 17.8757 4.58424 15.8017 4.58424 15.8017C4.3076 15.6404 3.99844 15.5421 3.67942 15.514C3.36041 15.4859 3.03885 15.5283 2.73827 15.6388C2.43768 15.7493 2.16457 15.9252 1.9397 16.1532C1.71483 16.3812 1.54478 16.656 1.43848 16.9581C0.40175 19.2849 2.1002 20.1768 2.1002 20.1768Z" fill="url(#paint0_linear)"/>
<path d="M13.6984 10.373C12.4104 9.89604 11.2037 9.97622 8.7731 8.63306C6.3425 7.28989 7.84681 5.7081 9.41011 5.84937C10.9734 5.99064 13.2822 7.62109 14.8864 7.70192C16.4906 7.78274 16.941 5.67832 16.941 5.67832C16.941 5.67832 15.9842 6.92096 13.7057 6.00656C11.4271 5.09217 10.9642 4.11093 8.61758 4.19414C6.27097 4.27735 3.30043 7.38812 7.12186 9.2887C8.79027 10.1174 11.2296 10.1608 12.912 10.677C14.1585 11.0406 15.334 11.6131 16.3882 12.3711C15.7461 11.4174 14.7968 10.7125 13.6984 10.373V10.373Z" fill="url(#paint1_linear)"/>
<path d="M9.169 19.0474C11.6951 19.119 12.9639 18.3033 13.5477 16.8936C14.1314 15.4838 12.8914 13.1375 10.2671 12.9754C8.19316 12.8763 6.1785 12.2504 4.41305 11.1576C3.74597 10.6864 3.22436 10.0364 2.91147 9.28199C2.49466 7.65381 2.56832 5.93885 3.12362 4.35255C2.45231 5.38401 2.06723 6.57462 2.00401 7.80368C1.90301 9.01968 2.24878 10.2302 2.97894 11.2078C3.4663 11.826 4.08341 12.3296 4.78688 12.6829C4.78688 12.6829 9.5274 14.9582 10.351 15.3685C11.1745 15.7787 11.9115 17.0865 9.88004 17.3727C7.8486 17.659 5.19478 15.4603 3.4041 15.481C1.61343 15.5017 1.22697 17.5196 1.22697 17.5196C1.468 17.1686 1.80423 16.8953 2.19767 16.7325C2.5911 16.5698 3.02487 16.5248 3.44341 16.6029C5.27172 16.8569 6.64296 18.9769 9.169 19.0474Z" fill="url(#paint2_linear)"/>
<defs>
<linearGradient id="paint0_linear" x1="8.77852" y1="1.20546" x2="9.52611" y2="22.544" gradientUnits="userSpaceOnUse">
<stop stop-color="white"/>
<stop offset="0.054" stop-color="#FEA51B"/>
<stop offset="0.238" stop-color="#FF8A4D"/>
<stop offset="0.515" stop-color="#FA205B"/>
<stop offset="0.757" stop-color="#102FE1"/>
<stop offset="0.845" stop-color="#0B72E8"/>
<stop offset="0.933" stop-color="#03D3F2"/>
<stop offset="0.967" stop-color="#00FFF7"/>
<stop offset="1" stop-color="white"/>
</linearGradient>
<linearGradient id="paint1_linear" x1="11.0346" y1="4.10946" x2="11.3303" y2="12.5483" gradientUnits="userSpaceOnUse">
<stop stop-color="#C62378"/>
<stop offset="0.063" stop-color="#CE1E67"/>
<stop offset="0.439" stop-color="#FF0000"/>
<stop offset="0.577" stop-color="#FE7E4E"/>
<stop offset="0.732" stop-color="#FE9D28"/>
<stop offset="1" stop-color="#FE9439"/>
</linearGradient>
<linearGradient id="paint2_linear" x1="7.01707" y1="4.21614" x2="7.53942" y2="19.1254" gradientUnits="userSpaceOnUse">
<stop stop-color="#FE9D28"/>
<stop offset="0.121" stop-color="#FA265A"/>
<stop offset="0.506" stop-color="#132DDF"/>
<stop offset="0.908" stop-color="#04B6F1"/>
<stop offset="1" stop-color="#BAE7FE"/>
</linearGradient>
</defs>
</svg>
