<svg width="21" height="21" viewBox="0 0 21 21" fill="none" xmlns="http://www.w3.org/2000/svg">
<path d="M19.1915 4.49401H17.1735V13.576H4.05553V15.594C4.05632 15.8614 4.16288 16.1176 4.35193 16.3066C4.54099 16.4957 4.79717 16.6022 5.06453 16.603H16.1645L20.2005 20.639V5.50301C20.1997 5.23565 20.0932 4.97946 19.9041 4.79041C19.7151 4.60136 19.4589 4.4948 19.1915 4.49401ZM15.1555 10.548V1.46701C15.1547 1.19965 15.0482 0.943464 14.8591 0.754411C14.6701 0.565358 14.4139 0.458799 14.1465 0.458008H1.02853C0.761171 0.458799 0.504988 0.565358 0.315935 0.754411C0.126882 0.943464 0.0203227 1.19965 0.0195312 1.46701V15.594L4.05553 11.558H14.1465C14.4139 11.5572 14.6701 11.4507 14.8591 11.2616C15.0482 11.0726 15.1547 10.8164 15.1555 10.549V10.548Z" fill="#3F3B60"/>
</svg>
