<svg width="18" height="24" viewBox="0 0 18 24" fill="none" xmlns="http://www.w3.org/2000/svg">
<path d="M9.07294 14.7628C9.55715 14.7632 10.0367 14.6679 10.4839 14.4824C10.9312 14.2969 11.3374 14.0248 11.6792 13.6818C12.021 13.3388 12.2916 12.9317 12.4755 12.4838C12.6594 12.0358 12.753 11.556 12.7509 11.0718L12.7609 3.6908C12.745 2.72253 12.3492 1.79932 11.6588 1.12022C10.9684 0.441127 10.0388 0.0605469 9.07044 0.0605469C8.10205 0.0605469 7.17244 0.441127 6.48207 1.12022C5.79171 1.79932 5.39588 2.72253 5.37994 3.6908V11.0718C5.37928 11.5569 5.47437 12.0373 5.65975 12.4855C5.84513 12.9338 6.11716 13.341 6.46024 13.6839C6.80333 14.0268 7.21072 14.2986 7.65906 14.4838C8.1074 14.6689 8.58788 14.7637 9.07294 14.7628ZM15.5929 11.0718C15.5788 11.9125 15.3987 12.742 15.063 13.5129C14.7272 14.2838 14.2425 14.9807 13.6367 15.5637C13.0309 16.1467 12.3158 16.6042 11.5326 16.91C10.7494 17.2159 9.91353 17.364 9.07294 17.3458C8.23235 17.364 7.39645 17.2159 6.61326 16.91C5.83007 16.6042 5.11502 16.1467 4.50917 15.5637C3.90333 14.9807 3.41863 14.2838 3.08292 13.5129C2.74721 12.742 2.5671 11.9125 2.55294 11.0718H0.460938C0.515544 13.0999 1.28689 15.043 2.6381 16.5564C3.9893 18.0698 5.83297 19.0556 7.84194 19.3388V23.3738H10.3019V19.3388C12.3117 19.0575 14.1565 18.0723 15.5081 16.5585C16.8597 15.0447 17.6303 13.1005 17.6829 11.0718H15.5929Z" fill="#3F3B60"/>
</svg>
