<svg width="18" height="24" viewBox="0 0 18 24" fill="none" xmlns="http://www.w3.org/2000/svg">
<path d="M8.612 14.7022C9.09621 14.7026 9.57572 14.6074 10.023 14.4218C10.4703 14.2363 10.8764 13.9643 11.2182 13.6213C11.56 13.2783 11.8306 12.8711 12.0146 12.4232C12.1985 11.9753 12.2921 11.4955 12.29 11.0112L12.3 3.63025C12.2841 2.66199 11.8882 1.73878 11.1979 1.05968C10.5075 0.38058 9.57789 0 8.6095 0C7.64111 0 6.71151 0.38058 6.02114 1.05968C5.33077 1.73878 4.93494 2.66199 4.919 3.63025V11.0112C4.91834 11.4963 5.01343 11.9767 5.19881 12.425C5.38419 12.8732 5.65622 13.2805 5.99931 13.6234C6.34239 13.9663 6.74978 14.2381 7.19812 14.4232C7.64646 14.6083 8.12694 14.7032 8.612 14.7022V14.7022ZM15.132 11.0112C15.1178 11.8519 14.9377 12.6815 14.602 13.4524C14.2663 14.2232 13.7816 14.9201 13.1758 15.5031C12.5699 16.0861 11.8549 16.5437 11.0717 16.8495C10.2885 17.1553 9.45259 17.3034 8.612 17.2852C7.77141 17.3034 6.93551 17.1553 6.15232 16.8495C5.36913 16.5437 4.65408 16.0861 4.04823 15.5031C3.44239 14.9201 2.95769 14.2232 2.62198 13.4524C2.28627 12.6815 2.10616 11.8519 2.092 11.0112H0C0.0546064 13.0393 0.825954 14.9825 2.17716 16.4959C3.52836 18.0093 5.37204 18.9951 7.381 19.2782V23.3132H9.841V19.2782C11.8508 18.997 13.6956 18.0118 15.0472 16.498C16.3987 14.9842 17.1694 13.0399 17.222 11.0112H15.132Z" fill="#D330B6"/>
<path d="M8.612 14.7022C9.09621 14.7026 9.57572 14.6074 10.023 14.4218C10.4703 14.2363 10.8764 13.9643 11.2182 13.6213C11.56 13.2783 11.8306 12.8711 12.0146 12.4232C12.1985 11.9753 12.2921 11.4955 12.29 11.0112L12.3 3.63025C12.2841 2.66199 11.8882 1.73878 11.1979 1.05968C10.5075 0.38058 9.57789 0 8.6095 0C7.64111 0 6.71151 0.38058 6.02114 1.05968C5.33077 1.73878 4.93494 2.66199 4.919 3.63025V11.0112C4.91834 11.4963 5.01343 11.9767 5.19881 12.425C5.38419 12.8732 5.65622 13.2805 5.99931 13.6234C6.34239 13.9663 6.74978 14.2381 7.19812 14.4232C7.64646 14.6083 8.12694 14.7032 8.612 14.7022V14.7022ZM15.132 11.0112C15.1178 11.8519 14.9377 12.6815 14.602 13.4524C14.2663 14.2232 13.7816 14.9201 13.1758 15.5031C12.5699 16.0861 11.8549 16.5437 11.0717 16.8495C10.2885 17.1553 9.45259 17.3034 8.612 17.2852C7.77141 17.3034 6.93551 17.1553 6.15232 16.8495C5.36913 16.5437 4.65408 16.0861 4.04823 15.5031C3.44239 14.9201 2.95769 14.2232 2.62198 13.4524C2.28627 12.6815 2.10616 11.8519 2.092 11.0112H0C0.0546064 13.0393 0.825954 14.9825 2.17716 16.4959C3.52836 18.0093 5.37204 18.9951 7.381 19.2782V23.3132H9.841V19.2782C11.8508 18.997 13.6956 18.0118 15.0472 16.498C16.3987 14.9842 17.1694 13.0399 17.222 11.0112H15.132Z" fill="#3F3B60"/>
</svg>
