<svg width="30" height="30" viewBox="0 0 37 37" fill="none" xmlns="http://www.w3.org/2000/svg">
<path d="M0.205078 37V31H36.3556V37H0.205078ZM6.23016 26.5V20.877L21.2929 5.87695L26.9434 11.5L11.8806 26.5H6.23016ZM22.7991 4.37891L25.7519 1.43359C26.034 1.15483 26.4145 0.998047 26.8119 0.998047C27.2094 0.998047 27.5909 1.15483 27.873 1.43359L31.3965 4.94336C31.5368 5.08196 31.649 5.24802 31.725 5.42969C31.801 5.61136 31.8397 5.80515 31.8397 6.00195C31.8397 6.19876 31.801 6.3945 31.725 6.57617C31.649 6.75784 31.5368 6.92194 31.3965 7.06055L28.4457 10L22.7991 4.37891Z" fill="#FFF6E8"/>
</svg>
