<svg width="20" height="21" viewBox="0 0 20 21" fill="none" xmlns="http://www.w3.org/2000/svg">
<path d="M9.86694 20.2373C7.25103 20.2341 4.74329 19.1935 2.89355 17.3438C1.04382 15.494 0.00317562 12.986 0 10.3701C0.00291102 7.75403 1.0433 5.24546 2.89307 3.39551C4.74283 1.54556 7.25085 0.505129 9.86694 0.501953C12.4832 0.504865 14.9916 1.54553 16.8416 3.39551C18.6915 5.24549 19.732 7.75385 19.7349 10.3701C19.7317 12.9862 18.691 15.494 16.8411 17.3438C14.9911 19.1935 12.483 20.2344 9.86694 20.2373V20.2373ZM3.95605 10.3115L2.81787 11.4443L7.2981 15.9229L16.916 6.30566L15.7839 5.17773L7.2981 13.6543L3.95605 10.3115V10.3115Z" fill="#D231B5"/>
</svg>
