<svg width="17" height="20" viewBox="0 0 17 20" fill="none" xmlns="http://www.w3.org/2000/svg">
<path d="M15.5371 8.27204C15.8391 8.44818 16.0895 8.70036 16.2636 9.00347C16.4377 9.30657 16.5293 9.65 16.5293 9.99954C16.5293 10.3491 16.4377 10.6925 16.2636 10.9956C16.0895 11.2987 15.8391 11.5509 15.5371 11.727L3.50614 18.745C3.20229 18.9221 2.85713 19.0159 2.50546 19.017C2.15378 19.0181 1.80803 18.9265 1.50307 18.7514C1.19811 18.5762 0.94473 18.3238 0.768471 18.0194C0.592212 17.7151 0.499312 17.3697 0.499138 17.018V2.98204C0.499034 2.63013 0.591784 2.28442 0.768023 1.97983C0.944261 1.67523 1.19775 1.42253 1.50289 1.24723C1.80803 1.07194 2.15402 0.980262 2.50593 0.981457C2.85783 0.982651 3.20319 1.07668 3.50714 1.25404L15.5371 8.27204Z" fill="#9102F0"/>
</svg>
