<svg xmlns="http://www.w3.org/2000/svg" width="30.051" height="19.124" viewBox="0 0 30.051 19.124">
  <path id="ic_recent_actors_24px" d="M28.319,5V24.124h2.732V5ZM22.855,24.124h2.732V5H22.855ZM18.758,5H2.366A1.37,1.37,0,0,0,1,6.366V22.758a1.37,1.37,0,0,0,1.366,1.366H18.758a1.37,1.37,0,0,0,1.366-1.366V6.366A1.37,1.37,0,0,0,18.758,5Zm-8.2,3.756A3.073,3.073,0,1,1,7.488,11.83,3.078,3.078,0,0,1,10.562,8.756Zm6.147,12.635H4.415V20.367c0-2.049,4.1-3.073,6.147-3.073s6.147,1.024,6.147,3.073Z" transform="translate(-1 -5)" fill="#3e3b60"/>
</svg>
