<svg width="22" height="14" viewBox="0 0 22 14" fill="none" xmlns="http://www.w3.org/2000/svg">
<path d="M20 0V14H22V0H20ZM16 14H18V0H16V14ZM13 0H1C0.734784 0 0.48043 0.105357 0.292893 0.292893C0.105357 0.48043 0 0.734784 0 1V13C0 13.2652 0.105357 13.5196 0.292893 13.7071C0.48043 13.8946 0.734784 14 1 14H13C13.2652 14 13.5196 13.8946 13.7071 13.7071C13.8946 13.5196 14 13.2652 14 13V1C14 0.734784 13.8946 0.48043 13.7071 0.292893C13.5196 0.105357 13.2652 0 13 0ZM7 2.75C7.44501 2.75 7.88002 2.88196 8.25003 3.12919C8.62004 3.37643 8.90843 3.72783 9.07873 4.13896C9.24903 4.5501 9.29358 5.0025 9.20677 5.43895C9.11995 5.87541 8.90566 6.27632 8.59099 6.59099C8.27632 6.90566 7.87541 7.11995 7.43895 7.20677C7.0025 7.29358 6.5501 7.24903 6.13896 7.07873C5.72783 6.90843 5.37643 6.62004 5.12919 6.25003C4.88196 5.88002 4.75 5.44501 4.75 5C4.75079 4.40351 4.9881 3.83167 5.40989 3.40989C5.83167 2.9881 6.40351 2.75079 7 2.75V2.75ZM11.5 12H2.5V11.25C2.5 9.75 5.5 9 7 9C8.5 9 11.5 9.75 11.5 11.25V12Z" fill="#3F3B60"/>
</svg>
