<svg width="25" height="25" viewBox="0 0 25 25" fill="none" xmlns="http://www.w3.org/2000/svg">
<path d="M17.294 3.97053C15.5996 3.00334 13.6582 2.55587 11.7115 2.68382C9.76473 2.81177 7.8986 3.50947 6.34541 4.69009C4.79222 5.8707 3.62059 7.48208 2.97637 9.3236C2.33214 11.1651 2.24378 13.1555 2.72229 15.0468C3.06486 16.2962 3.65036 17.4658 4.44529 18.4888C5.24023 19.5117 6.22902 20.3679 7.35511 21.0084C8.48119 21.6489 9.7225 22.0612 11.008 22.2216C12.2936 22.382 13.5981 22.2875 14.8471 21.9433C16.963 21.3855 18.8341 20.1418 20.1677 18.407C21.5012 16.6721 22.2219 14.544 22.2168 12.3558L19.7216 13.0248C19.5671 14.7617 18.8093 16.3896 17.5798 17.626C16.3502 18.8624 14.7266 19.6292 12.9907 19.7934C11.2547 19.9575 9.5161 19.5086 8.07659 18.5246C6.63708 17.5407 5.58757 16.0837 5.11024 14.4066C4.74715 12.9886 4.81067 11.4951 5.29282 10.1131C5.77498 8.7311 6.65433 7.52216 7.82066 6.63782C8.98698 5.75348 10.3884 5.23307 11.8492 5.14182C13.3101 5.05057 14.7653 5.39254 16.0327 6.12487L13.1904 10.9717L21.5898 8.71974L19.3689 0.436288L17.294 3.97053Z" fill="#E78C31"/>
</svg>
