<svg width="20" height="22" viewBox="0 0 20 22" fill="none" xmlns="http://www.w3.org/2000/svg">
<path d="M18.461 8.874C18.7671 9.04892 19.0216 9.30167 19.1986 9.60663C19.3755 9.91159 19.4688 10.2579 19.4688 10.6105C19.4688 10.9631 19.3755 11.3094 19.1986 11.6144C19.0216 11.9193 18.7671 12.1721 18.461 12.347L3.492 20.9C3.18789 21.0737 2.84348 21.1645 2.49325 21.1633C2.14301 21.1622 1.79923 21.069 1.49629 20.8933C1.19335 20.7175 0.941884 20.4652 0.767042 20.1618C0.5922 19.8583 0.500117 19.5142 0.500004 19.164V2.056C0.500117 1.70576 0.5922 1.36169 0.767042 1.05822C0.941884 0.754746 1.19335 0.502507 1.49629 0.326739C1.79923 0.15097 2.14301 0.0578354 2.49325 0.056652C2.84348 0.0554687 3.18789 0.146278 3.492 0.319996L18.461 8.874Z" fill="#585286"/>
</svg>
