<svg width="36" height="28" viewBox="0 0 36 28" fill="none" xmlns="http://www.w3.org/2000/svg">
<path d="M11.3972 28.0004V24.891H3.41177C2.57341 24.9006 1.76545 24.5793 1.16511 23.9965C0.564778 23.4136 0.220629 22.6165 0.208984 21.7816V3.10972C0.213435 2.69594 0.299473 2.28701 0.462972 1.90659C0.626471 1.52617 0.864641 1.18178 1.16217 0.892918C1.4597 0.604059 1.81071 0.378052 2.19675 0.224949C2.58279 0.0718466 2.99629 -0.00378733 3.41177 0.00229263H32.1624C32.5771 -0.0024616 32.9885 0.0732163 33.3735 0.226902C33.7584 0.380588 34.1086 0.608109 34.4051 0.896825C34.7016 1.18554 34.9384 1.53073 35.1014 1.9105C35.2643 2.29026 35.3508 2.69675 35.3553 3.10972L35.3416 21.7816C35.3329 22.6134 34.9932 23.4078 34.3973 23.9906C33.8013 24.5734 32.9976 24.8974 32.1624 24.891H24.176V28.0004H11.3972ZM3.41177 21.7816H32.1624V3.10972H3.41177V21.7816ZM19.5787 17.9925C19.5781 17.8198 19.5991 17.6481 19.6425 17.4808L13.8792 14.1996C13.4302 14.6117 12.8414 14.8402 12.2307 14.8402C11.913 14.8494 11.5973 14.7948 11.3011 14.68C11.0049 14.5653 10.7347 14.3927 10.5068 14.1722C10.2788 13.9517 10.097 13.6884 9.97328 13.3968C9.84952 13.1053 9.78598 12.7915 9.78598 12.475C9.78598 12.1585 9.84952 11.8446 9.97328 11.5531C10.097 11.2616 10.2788 10.9982 10.5068 10.7777C10.7347 10.5572 11.0049 10.3846 11.3011 10.2699C11.5973 10.1552 11.913 10.1005 12.2307 10.1097C12.8414 10.1097 13.4302 10.3401 13.8792 10.7523L19.5866 7.51402C19.5422 7.3336 19.5183 7.14897 19.5159 6.96324C19.5048 6.48245 19.6382 6.00903 19.8984 5.60386C20.1586 5.19869 20.5342 4.87946 20.9771 4.68784C21.42 4.49622 21.9104 4.44053 22.3853 4.52769C22.8603 4.61485 23.2982 4.83986 23.6435 5.17613C23.9887 5.51239 24.225 5.9435 24.3231 6.41441C24.4211 6.88531 24.3762 7.37542 24.1936 7.82066C24.0111 8.2659 23.6993 8.64641 23.2983 8.91441C22.8973 9.18241 22.425 9.32503 21.9421 9.32457C21.3298 9.32114 20.7412 9.09173 20.2897 8.68004L14.5813 11.9222C14.6291 12.1035 14.6555 12.2895 14.6598 12.4769C14.6555 12.6617 14.6291 12.8452 14.5813 13.0238L20.3534 16.3011C20.789 15.9088 21.3548 15.6903 21.9421 15.6879C22.3979 15.6975 22.8407 15.8407 23.2149 16.1C23.5892 16.3593 23.878 16.7227 24.0456 17.1449C24.2131 17.5671 24.2525 18.031 24.1573 18.475C24.0621 18.9189 23.8372 19.3237 23.5111 19.641C23.185 19.9583 22.7715 20.1737 22.3235 20.2582C21.8756 20.3426 21.4128 20.2922 20.9928 20.1156C20.5728 19.939 20.2147 19.6446 19.9631 19.266C19.7115 18.8874 19.5778 18.4426 19.5787 17.9886V17.9925Z" fill="#3E3A5F"/>
</svg>
