<svg width="39" height="38" viewBox="0 0 39 38" fill="none" xmlns="http://www.w3.org/2000/svg">
<path d="M19.4926 0C15.7617 0 12.1146 1.10172 9.01248 3.16584C5.91037 5.22997 3.49257 8.16378 2.06482 11.5963C0.63708 15.0288 0.263517 18.8058 0.991374 22.4498C1.71923 26.0937 3.51582 29.4409 6.15395 32.068C8.79208 34.6951 12.1533 36.4842 15.8124 37.209C19.4716 37.9339 23.2645 37.5619 26.7114 36.1401C30.1582 34.7183 33.1043 32.3106 35.1771 29.2214C37.2499 26.1322 38.3562 22.5003 38.3562 18.785C38.3543 13.8035 36.3663 9.02652 32.8291 5.50405C29.2919 1.98158 24.4949 0.00185527 19.4926 0V0ZM28.9249 20.664H21.3794V28.178H17.6067V20.664H10.0612V16.907H17.6067V9.393H21.3794V16.907H28.9249V20.664Z" fill="#3E3A5F"/>
</svg>
