<svg width="27" height="27" viewBox="0 0 27 27" fill="none" xmlns="http://www.w3.org/2000/svg">
<path d="M10.6 6.7002C10.9956 6.7002 11.3822 6.5829 11.7111 6.36314C12.04 6.14337 12.2964 5.83102 12.4478 5.46556C12.5991 5.10011 12.6387 4.69798 12.5616 4.31002C12.4844 3.92205 12.2939 3.56569 12.0142 3.28598C11.7345 3.00628 11.3781 2.8158 10.9902 2.73863C10.6022 2.66146 10.2001 2.70106 9.83463 2.85244C9.46918 3.00381 9.15682 3.26016 8.93706 3.58906C8.7173 3.91795 8.6 4.30463 8.6 4.7002C8.60158 5.23014 8.8128 5.73793 9.18753 6.11266C9.56226 6.48739 10.0701 6.69861 10.6 6.7002V6.7002ZM7 20.6002L8 16.2002L10.1 18.2002V24.2002H12.1V16.7002L10 14.7002L10.6 11.7002C11.2861 12.4842 12.1317 13.1128 13.0801 13.5439C14.0286 13.975 15.0581 14.1988 16.1 14.2002V12.2002C15.2356 12.2133 14.383 11.9984 13.6281 11.577C12.8731 11.1557 12.2426 10.5428 11.8 9.8002L10.8 8.2002C10.6227 7.90476 10.3743 7.65845 10.0773 7.48376C9.78035 7.30908 9.44435 7.21159 9.1 7.2002C8.8 7.2002 8.6 7.3002 8.3 7.3002L3.1 9.5002V14.2002H5.1V10.8002L6.9 10.1002L5.3 18.2002L0.4 17.2002L0 19.2002L7 20.6002Z" fill="#8A88C3"/>
<path d="M21 26.1113C24.3137 26.1113 27 20.291 27 13.1113C27 5.93163 24.3137 0.111328 21 0.111328C17.6863 0.111328 15 5.93163 15 13.1113C15 20.291 17.6863 26.1113 21 26.1113Z" fill="#8A88C3"/>
</svg>
