<svg width="27" height="21" viewBox="0 0 27 21" fill="none"
    xmlns="http://www.w3.org/2000/svg">
    <path d="M23.9187 20.5L22.1604 13.2285L20.1039 15.0449V20.5H18.1485V13.6797L20.204 11.8613L19.6146 9.13474C18.9218 9.85867 18.0872 10.4349 17.163 10.8261C16.2388 11.2174 15.2439 11.4157 14.2397 11.4101V9.59177C15.0694 9.61308 15.8908 9.42345 16.6266 9.04099C17.3624 8.65852 17.9888 8.09629 18.4457 7.40622L19.4214 5.95505C19.6041 5.68076 19.8513 5.45502 20.1412 5.29685C20.4311 5.13867 20.7551 5.0526 21.0856 5.04685C21.3778 5.04685 21.57 5.13474 21.8622 5.13474L26.9479 7.13474V11.4121H24.9925V8.32224L23.2342 7.68552L25.9731 20.5019L23.9187 20.5ZM6.93384 20.5V15.0449L5.01766 13.2285L3.37703 20.5H1.45692L4.01543 7.68356L2.36893 8.32028V11.4101H0.544922V7.13474L5.29322 5.13474C5.56736 5.13474 5.75269 5.04685 6.02282 5.04685C6.3378 5.05656 6.64526 5.14408 6.91717 5.30271C7.18908 5.46133 7.41657 5.68619 7.57911 5.95505L8.49111 7.40427C8.89443 8.08056 9.46976 8.63957 10.1592 9.02341C10.8486 9.40725 11.6279 9.60381 12.4176 9.59177V11.4082C11.4663 11.4067 10.5259 11.2048 9.66004 10.8125C8.79416 10.4201 8.02276 9.84802 7.39671 9.13474L6.84754 11.8613L8.76765 13.6797V20.5H6.93384ZM17.6631 2.77146C17.6365 2.38095 17.7282 1.99199 17.9269 1.65427C18.1256 1.31655 18.422 1.04477 18.7771 0.876926C19.1322 0.709083 19.5302 0.652632 19.9186 0.712863C20.307 0.773094 20.6681 0.947395 20.9551 1.21482C21.2421 1.48224 21.4417 1.82902 21.5278 2.21091C21.614 2.5928 21.5822 2.99343 21.4376 3.35739C21.293 3.72135 21.042 4.03209 20.7168 4.25193C20.3916 4.47176 20.0076 4.59032 19.6146 4.58982C19.1144 4.60414 18.6287 4.42053 18.2633 4.08005C17.8979 3.73957 17.682 3.26944 17.6631 2.77146V2.77146ZM5.56682 2.77146C5.56682 2.41189 5.67414 2.06066 5.87474 1.76169C6.07534 1.46272 6.36 1.22937 6.69358 1.09177C7.02717 0.954169 7.39463 0.918106 7.74876 0.988254C8.10289 1.0584 8.428 1.23205 8.68332 1.4863C8.93863 1.74055 9.113 2.06333 9.18345 2.41599C9.25389 2.76865 9.21767 3.13457 9.0795 3.46677C8.94132 3.79896 8.70699 4.08341 8.40677 4.28318C8.10655 4.48294 7.75385 4.58982 7.39278 4.58982C6.90908 4.58797 6.44536 4.39517 6.10323 4.05466C5.76111 3.71415 5.56795 3.25314 5.56584 2.77146H5.56682Z" fill="#FE6952"/>
</svg>
