<svg width="24" height="25" viewBox="0 0 24 25" fill="none" xmlns="http://www.w3.org/2000/svg">
<path d="M11.7973 24.1719C9.46915 24.1715 7.19335 23.4808 5.25772 22.187C3.32209 20.8933 1.81355 19.0546 0.922865 16.9035C0.0321771 14.7524 -0.200662 12.3855 0.253789 10.1021C0.70824 7.81869 1.82957 5.72131 3.476 4.07517C5.12242 2.42902 7.21999 1.30805 9.50348 0.853984C11.787 0.399921 14.1538 0.633163 16.3048 1.52422C18.4557 2.41527 20.2941 3.92412 21.5875 5.85997C22.881 7.79582 23.5713 10.0717 23.5713 12.3999C23.5679 15.5214 22.3263 18.5139 20.1189 20.7209C17.9115 22.9279 14.9188 24.169 11.7973 24.1719V24.1719ZM4.75335 12.3379L3.38735 13.6839L8.73735 19.0279L20.2083 7.55394L18.8603 6.20693L8.73735 16.3199L4.75335 12.3379Z" fill="#3F3B60"/>
</svg>
