<svg width="46" height="130" viewBox="0 0 46 130" fill="none" xmlns="http://www.w3.org/2000/svg">
<g filter="url(#filter0_d)">
<path d="M21.9749 108.371V38.8955C21.9748 38.7966 21.9864 38.6982 22.009 38.6026C21.6804 38.3983 21.4082 38.0955 21.2228 37.7274L5.27507 6.47376C5.09477 6.12137 4.99982 5.72161 5 5.31471C5.00018 4.90781 5.09547 4.50785 5.27607 4.15566C5.45667 3.80347 5.71607 3.51164 6.02861 3.30871C6.34116 3.10578 6.69564 2.9992 7.05623 3H38.9478C39.308 3.00001 39.6619 3.10658 39.9739 3.30984C40.2859 3.5131 40.5448 3.80587 40.7249 4.15792C40.905 4.50997 41 4.90933 41 5.31584C41 5.72235 40.9051 6.12171 40.7249 6.47376L24.7772 37.7285C24.5922 38.0965 24.3203 38.3993 23.992 38.6037C24.014 38.6994 24.0253 38.7978 24.0251 38.8966V108.372C24.0251 108.679 23.6293 130.13 23.7245 120.529C23.7245 122.025 23.7357 120.65 23.4636 120.65C23.1914 120.65 22.2014 120.867 22.009 120.65C21.8165 120.432 21.9729 108.679 21.9729 108.372L21.9749 108.371Z" fill="#F1205F"/>
</g>
<defs>
<filter id="filter0_d" x="0" y="0" width="46" height="130" filterUnits="userSpaceOnUse" color-interpolation-filters="sRGB">
<feFlood flood-opacity="0" result="BackgroundImageFix"/>
<feColorMatrix in="SourceAlpha" type="matrix" values="0 0 0 0 0 0 0 0 0 0 0 0 0 0 0 0 0 0 127 0"/>
<feOffset dy="2"/>
<feGaussianBlur stdDeviation="2.5"/>
<feColorMatrix type="matrix" values="0 0 0 0 0.980392 0 0 0 0 0.145098 0 0 0 0 0.352941 0 0 0 0.5 0"/>
<feBlend mode="normal" in2="BackgroundImageFix" result="effect1_dropShadow"/>
<feBlend mode="normal" in="SourceGraphic" in2="effect1_dropShadow" result="shape"/>
</filter>
</defs>
</svg>
