<svg width="40" height="130" viewBox="0 0 40 130" fill="none" xmlns="http://www.w3.org/2000/svg">
<g filter="url(#filter0_d)">
<path d="M7.45328 3H32.4755C33.111 3 33.7205 3.26803 34.1699 3.74513C34.6193 4.22222 34.8718 4.8693 34.8718 5.54402L35 24.1446V27.1847L34.8718 120.456C34.8718 121.855 32.4755 123 32.4755 123L32.6037 28.2061H6.65172C6.65172 28.2061 5.18518 27.5701 5.05698 26.2981C4.92878 25.0261 5.05698 5.54402 5.05698 5.54402C5.05698 5.20993 5.11896 4.87912 5.23939 4.57046C5.35981 4.26181 5.53632 3.98136 5.75884 3.74513C5.98136 3.50889 6.24553 3.3215 6.53626 3.19365C6.82699 3.0658 7.1386 3 7.45328 3V3Z" fill="#0799EC"/>
</g>
<defs>
<filter id="filter0_d" x="0" y="0" width="40" height="130" filterUnits="userSpaceOnUse" color-interpolation-filters="sRGB">
<feFlood flood-opacity="0" result="BackgroundImageFix"/>
<feColorMatrix in="SourceAlpha" type="matrix" values="0 0 0 0 0 0 0 0 0 0 0 0 0 0 0 0 0 0 127 0"/>
<feOffset dy="2"/>
<feGaussianBlur stdDeviation="2.5"/>
<feColorMatrix type="matrix" values="0 0 0 0 0.027451 0 0 0 0 0.6 0 0 0 0 0.92549 0 0 0 0.5 0"/>
<feBlend mode="normal" in2="BackgroundImageFix" result="effect1_dropShadow"/>
<feBlend mode="normal" in="SourceGraphic" in2="effect1_dropShadow" result="shape"/>
</filter>
</defs>
</svg>
