<svg width="30" height="30" viewBox="0 0 22 15" fill="none" xmlns="http://www.w3.org/2000/svg">
<path d="M16.71 5.81827V1.64127C16.7084 1.32526 16.5823 1.02262 16.3589 0.799073C16.1355 0.575523 15.833 0.449105 15.517 0.447266H1.194C0.877817 0.448843 0.575034 0.575145 0.351457 0.798723C0.127879 1.0223 0.001577 1.32508 0 1.64127V13.5773C0.001577 13.8934 0.127879 14.1962 0.351457 14.4198C0.575034 14.6434 0.877817 14.7697 1.194 14.7713H15.517C15.833 14.7694 16.1355 14.643 16.3589 14.4195C16.5823 14.1959 16.7084 13.8933 16.71 13.5773V9.39927L21.484 14.1733V1.04727L16.71 5.81827Z" fill="#3F3B60"/>
</svg>
