<svg width="46" height="128" viewBox="0 0 46 137" fill="none" xmlns="http://www.w3.org/2000/svg">
<g filter="url(#filter0_d)">
<path d="M23.7245 40.6037L22.009 40.6026L21.9749 40.8955C21.9748 40.7966 21.9864 40.6982 22.009 40.6026C21.6804 40.3983 21.4082 40.0955 21.2228 39.7274L5.27507 8.47376C5.09477 8.12137 4.99982 7.72161 5 7.31471C5.00018 6.90781 5.09547 6.50785 5.27607 6.15566C5.45667 5.80347 5.71607 5.51164 6.02861 5.30871C6.34116 5.10578 6.69564 4.9992 7.05623 5H38.9478C39.308 5.00001 39.6619 5.10658 39.9739 5.30984C40.2859 5.5131 40.5448 5.80587 40.7249 6.15792C40.905 6.50997 41 6.90933 41 7.31584C41 7.72235 40.9051 8.12171 40.7249 8.47376L24.7772 39.7285C24.5922 40.0965 24.3203 40.3993 23.992 40.6037C24.014 40.6994 24.0253 40.7978 24.0251 40.8966L23.992 40.6037H23.7245C23.6293 50.2047 23.6774 -29.1646 23.7245 40.6037L24.0251 40.8966C23.7529 40.8966 24.1844 40.8207 23.992 40.6037C23.7995 40.3857 23.7245 40.9107 23.7245 40.6037Z" fill="#FE9A2E"/>
<path d="M23 132V19" stroke="#FE9A2E" stroke-width="3"/>
</g>
<defs>
<filter id="filter0_d" x="0" y="0" width="46" height="137" filterUnits="userSpaceOnUse" color-interpolation-filters="sRGB">
<feFlood flood-opacity="0" result="BackgroundImageFix"/>
<feColorMatrix in="SourceAlpha" type="matrix" values="0 0 0 0 0 0 0 0 0 0 0 0 0 0 0 0 0 0 127 0"/>
<feOffset/>
<feGaussianBlur stdDeviation="2.5"/>
<feColorMatrix type="matrix" values="0 0 0 0 0.996078 0 0 0 0 0.603922 0 0 0 0 0.180392 0 0 0 0.8 0"/>
<feBlend mode="normal" in2="BackgroundImageFix" result="effect1_dropShadow"/>
<feBlend mode="normal" in="SourceGraphic" in2="effect1_dropShadow" result="shape"/>
</filter>
</defs>
</svg>
