<svg width="42" height="110" viewBox="0 0 42 110" fill="none" xmlns="http://www.w3.org/2000/svg">
<path d="M19.804 108.803V37.0648C19.804 36.9627 19.8175 36.8611 19.8438 36.7624C19.4604 36.5515 19.1429 36.2388 18.9267 35.8587L0.32091 3.58692C0.110569 3.22306 -0.000206787 2.81027 2.89789e-07 2.39012C0.000207366 1.96996 0.111379 1.55697 0.322079 1.19331C0.532779 0.829649 0.835419 0.528304 1.20005 0.318764C1.56468 0.109224 1.97825 -0.000825454 2.39893 4.66168e-06H39.6057C40.026 1.53249e-05 40.4389 0.110049 40.8029 0.319932C41.1668 0.529815 41.469 0.832126 41.6791 1.19564C41.8892 1.55916 42 1.97153 42 2.39128C42 2.81104 41.8892 3.22341 41.6791 3.58692L23.0733 35.8598C22.8575 36.2398 22.5404 36.5525 22.1574 36.7636C22.183 36.8624 22.1962 36.9639 22.196 37.066V108.804C22.196 109.121 22.0697 109.425 21.8452 109.65C21.6207 109.874 21.3163 110 20.9988 110C20.6813 110 20.3769 109.874 20.1524 109.65C19.9279 109.425 19.8017 109.121 19.8017 108.804L19.804 108.803Z" fill="#FA255A"/>
</svg>
