<svg width="21" height="16" viewBox="0 0 21 16" fill="none" xmlns="http://www.w3.org/2000/svg">
<path d="M20.3673 2.67361C20.1736 1.60455 19.2508 0.826009 18.1798 0.582954C16.5771 0.243056 13.6111 0 10.402 0C7.19482 0 4.18132 0.243056 2.57677 0.582954C1.5077 0.826009 0.582954 1.55518 0.389269 2.67361C0.193685 3.88889 0 5.59028 0 7.77778C0 9.96528 0.193685 11.6667 0.436741 12.8819C0.632324 13.951 1.55518 14.7295 2.62424 14.9726C4.32563 15.3125 7.2423 15.5556 10.4514 15.5556C13.6605 15.5556 16.5771 15.3125 18.2785 14.9726C19.3476 14.7295 20.2705 14.0004 20.466 12.8819C20.6597 11.6667 20.9028 9.91591 20.9521 7.77778C20.8534 5.59028 20.6104 3.88889 20.3673 2.67361ZM7.77778 11.1806V4.375L13.708 7.77778L7.77778 11.1806Z"/>
<path fill-rule="evenodd" clip-rule="evenodd" d="M7.77783 11.1806L13.708 7.77778L7.77783 4.375V11.1806Z" fill="#282945"/>
</svg>
