<?xml version="1.0" encoding="UTF-8"?>
<svg width="2.5061mm" height="2.6025mm" version="1.1" viewBox="0 0 2.5061 2.6025" xmlns="http://www.w3.org/2000/svg">
 <style/>
 <g transform="translate(-126.06 -112.02)">
  <path d="m127.31 112.02c0.69066 0 1.2531 0.58403 1.2531 1.3013s-0.5624 1.3013-1.2531 1.3013c-0.69067 0-1.2531-0.58403-1.2531-1.3013s0.5624-1.3013 1.2531-1.3013zm-0.18747 1.5574 0.70053-0.72748c0.0592-0.0615 0.15787-0.0615 0.22694 0 0.0592 0.0717 0.0592 0.17418 0 0.23566l-0.80907 0.84019c-0.0592 0.0615-0.16773 0.0615-0.22693 0l-0.43414-0.45084c-0.0691-0.0717-0.0691-0.17418 0-0.23566 0.0592-0.0717 0.15787-0.0717 0.21707 0z" fill-rule="evenodd"/>
 </g>
</svg>
