<?xml version="1.0" encoding="UTF-8"?>
<svg width="5.0957mm" height="5.2917mm" version="1.1" viewBox="0 0 5.0957 5.2917" xmlns="http://www.w3.org/2000/svg">
 <style/>
 <g transform="translate(-94.21 -82.02)">
  <path d="m94.435 84.16h1.8359v-1.9066c0-0.11673 0.1124-0.23347 0.22481-0.23347h0.48709c0.14989 0 0.26229 0.11673 0.26229 0.23347v1.9066h1.7985c0.14988 0 0.26229 0.11673 0.26229 0.23347v0.50582c0 0.15562-0.11241 0.27235-0.26229 0.27235h-1.7985v1.8676c0 0.15566-0.1124 0.27236-0.26229 0.27236h-0.48709c-0.1124 0-0.22481-0.11673-0.22481-0.27236v-1.8676h-1.8359c-0.11241 0-0.22481-0.11673-0.22481-0.27235v-0.50582c0-0.11673 0.1124-0.23347 0.22481-0.23347z" fill-rule="evenodd"/>
 </g>
</svg>
