<?xml version="1.0" encoding="UTF-8"?>
<svg width="5.8208mm" height="6.0169mm" version="1.1" viewBox="0 0 5.8208 6.0169" xmlns="http://www.w3.org/2000/svg">
 <style/>
 <g transform="translate(-130.45 11.495)">
  <path d="m130.76-5.4783c0.0622 0 0.0935 0 0.15565-0.032349l1.6822-0.77638c0.12471-0.064698 0.34266-0.1941 0.43611-0.32349l3.084-3.2026c0.0934-0.064691 0.15565-0.1941 0.15565-0.32349 0-0.12938-0.0622-0.2588-0.15565-0.35584l-0.84108-0.87343c-0.0622-0.06469-0.18691-0.12938-0.31162-0.12938s-0.2491 0.06469-0.34268 0.12938l-3.1774 3.332c-0.12471 0.12938-0.24911 0.32349-0.31162 0.48524l-0.65417 1.5851c-0.0622 0.1941 0 0.32349 0.0316 0.35584 0.0622 0.097049 0.12471 0.1294 0.2491 0.1294zm4.2054-5.5317 0.80992 0.87343-0.34265 0.38819-0.84108-0.87343zm-3.3955 3.6231s0-0.032361 0.0316-0.064691l0.71647 0.77638-1.2772 0.54994z"/>
 </g>
</svg>
