<?xml version="1.0" encoding="UTF-8"?>
<svg width="20" height="20" version="1.1" viewBox="0 0 5.2917 5.2917" xmlns="http://www.w3.org/2000/svg">
 <style/>
 <g transform="translate(-190.22 -131.38)">
  <g transform="translate(-9.1452 3.0401)" fill-rule="evenodd">
   <path d="m202.89 131.63c0.2072-0.0922 0.57226-0.35861 0.444-0.61476-0.10854-0.22542-0.49334 0.12295-1.2531 0.12295s-1.1445-0.34837-1.2531-0.12295c-0.12826 0.25615 0.2368 0.52255 0.444 0.61476 0.444 0.20493 1.1741 0.20493 1.6181 0z"/>
   <path d="m200.15 130.18h0.39467c0.0493 0 0.0987 0.041 0.0987 0.10246 0 0.0512-0.0493 0.10246-0.0987 0.10246h-0.39467c-0.0592 0-0.10853-0.0512-0.10853-0.10246 0-0.0615 0.0493-0.10246 0.10853-0.10246z"/>
   <path d="m200.15 130.18h0.39467c0.0493 0 0.0987 0.041 0.0987 0.10246 0 0.0512-0.0493 0.10246-0.0987 0.10246h-0.39467c-0.0592 0-0.10853-0.0512-0.10853-0.10246 0-0.0615 0.0493-0.10246 0.10853-0.10246z"/>
   <path d="m203.48 130.18h0.40453c0.0493 0 0.0987 0.041 0.0987 0.10246 0 0.0512-0.0493 0.10246-0.0987 0.10246h-0.40453c-0.0493 0-0.0987-0.0512-0.0987-0.10246 0-0.0615 0.0493-0.10246 0.0987-0.10246z"/>
  </g>
 </g>
</svg>
