<?xml version="1.0" encoding="UTF-8"?>
<svg width="18.197" height="20.15" version="1.1" viewBox="0 0 18.197 20.15" xmlns="http://www.w3.org/2000/svg">
 <style/>
 <g id="Share" transform="translate(-3772.5 3755.2)">
  <path id="ic_share_24px" transform="translate(3769.5 -3757.2)" d="m18.17 16.239a2.945 2.945 0 0 0-1.982 0.779l-7.211-4.2a3.311 3.311 0 0 0 0.091-0.708 3.311 3.311 0 0 0-0.091-0.708l7.13-4.156a3.027 3.027 0 1 0-0.971-2.215 3.31 3.31 0 0 0 0.091 0.708l-7.127 4.161a3.034 3.034 0 1 0 0 4.43l7.2 4.207a2.853 2.853 0 0 0-0.081 0.657 2.953 2.953 0 1 0 2.953-2.953z" />
 </g>
</svg>
