<svg width="18" height="18" viewBox="0 0 18 18" fill="none" xmlns="http://www.w3.org/2000/svg">
<g clip-path="url(#clip0)">
<path d="M9.741 4.428H7.97V7.97H4.428V9.741H7.97V13.283H9.741V9.741H13.283V7.97H9.741V4.428ZM8.855 0C7.10365 0 5.39163 0.519337 3.93543 1.49234C2.47923 2.46534 1.34426 3.8483 0.674051 5.46634C0.00383681 7.08438 -0.171522 8.86482 0.17015 10.5825C0.511822 12.3002 1.35518 13.878 2.59357 15.1164C3.83197 16.3548 5.40978 17.1982 7.12748 17.5399C8.84518 17.8815 10.6256 17.7062 12.2437 17.036C13.8617 16.3657 15.2447 15.2308 16.2177 13.7746C17.1907 12.3184 17.71 10.6064 17.71 8.855C17.706 6.50773 16.7718 4.25773 15.1121 2.59795C13.4523 0.938174 11.2023 0.00396611 8.855 0V0ZM8.855 15.939C7.45392 15.939 6.0843 15.5235 4.91934 14.7451C3.75439 13.9667 2.84641 12.8604 2.31024 11.5659C1.77407 10.2715 1.63378 8.84714 1.90712 7.47298C2.18046 6.09882 2.85514 4.83657 3.84586 3.84586C4.83657 2.85514 6.09882 2.18045 7.47298 1.90712C8.84715 1.63378 10.2715 1.77407 11.5659 2.31024C12.8604 2.84641 13.9667 3.75438 14.7451 4.91934C15.5235 6.0843 15.939 7.45392 15.939 8.855C15.9366 10.7331 15.1895 12.5335 13.8615 13.8615C12.5335 15.1895 10.7331 15.9366 8.855 15.939V15.939Z" fill="#585286"/>
</g>
<defs>
<clipPath id="clip0">
<rect width="17.71" height="17.71" fill="white"/>
</clipPath>
</defs>
</svg>
