<svg width="22" height="19" viewBox="0 0 22 19" fill="none" xmlns="http://www.w3.org/2000/svg">
<path d="M5 19H17L11 13L5 19ZM20 0H2C1.47005 0.00158273 0.962265 0.212805 0.587535 0.587535C0.212805 0.962265 0.00158273 1.47005 0 2V14C0.00158273 14.5299 0.212805 15.0377 0.587535 15.4125C0.962265 15.7872 1.47005 15.9984 2 16H6V14H2V2H20V14H16V16H20C20.5299 15.9984 21.0377 15.7872 21.4125 15.4125C21.7872 15.0377 21.9984 14.5299 22 14V2C21.9984 1.47005 21.7872 0.962265 21.4125 0.587535C21.0377 0.212805 20.5299 0.00158273 20 0V0Z" fill="#3E3A5F"/>
</svg>
