<svg width="19" height="25" viewBox="0 0 19 25" fill="none" xmlns="http://www.w3.org/2000/svg">
<path d="M0 16.4673V18.6483C1.4458 18.6489 2.83223 19.2234 3.85456 20.2458C4.87689 21.2681 5.45147 22.6545 5.452 24.1003H7.633C7.63379 23.0977 7.43689 22.1048 7.05358 21.1784C6.67026 20.2519 6.10805 19.4102 5.39911 18.7012C4.69016 17.9923 3.84839 17.4301 2.92196 17.0467C1.99552 16.6634 1.0026 16.4665 0 16.4673V16.4673ZM0 20.8293V24.1003H3.271C3.27153 23.6706 3.18728 23.245 3.02308 22.8479C2.85889 22.4509 2.61797 22.0901 2.31412 21.7862C2.01028 21.4824 1.64947 21.2414 1.25238 21.0772C0.855287 20.913 0.429702 20.8288 0 20.8293V20.8293ZM0 12.1063V14.2873C1.28879 14.2873 2.56497 14.5412 3.75566 15.0344C4.94634 15.5276 6.02823 16.2505 6.93955 17.1618C7.85086 18.0731 8.57375 19.155 9.06695 20.3457C9.56015 21.5364 9.814 22.8125 9.814 24.1013H11.995C11.9961 22.5258 11.6865 20.9655 11.0841 19.5096C10.4817 18.0538 9.59819 16.731 8.48415 15.6169C7.37012 14.5028 6.04739 13.6192 4.59161 13.0166C3.13583 12.4141 1.57555 12.1044 0 12.1053V12.1063ZM16.356 0.122328L5.452 0.111328C4.87405 0.112912 4.32022 0.343203 3.91155 0.751877C3.50288 1.16055 3.27258 1.71438 3.271 2.29233V10.3283C4.01667 10.4989 4.74635 10.7331 5.452 11.0283V4.47333H16.352V18.6483H13.052C13.6265 20.0385 13.9762 21.5113 14.088 23.0113H16.356C16.934 23.0097 17.4878 22.7795 17.8965 22.3708C18.3051 21.9621 18.5354 21.4083 18.537 20.8303V2.29233C18.5349 1.71555 18.3041 1.16317 17.8952 0.756359C17.4863 0.349548 16.9328 0.12153 16.356 0.122328V0.122328Z" fill="#8A88C3"/>
</svg>
