<svg width="16" height="16" viewBox="0 0 13 14" fill="none" xmlns="http://www.w3.org/2000/svg">
<path d="M6.276 13.2385C5.03484 13.2387 3.82149 12.8708 2.78942 12.1814C1.75735 11.4919 0.952914 10.5119 0.47785 9.36528C0.00278625 8.21863 -0.121564 6.95686 0.120526 5.73953C0.362617 4.52221 0.960273 3.40402 1.83791 2.52638C2.71554 1.64875 3.83373 1.05109 5.05106 0.809003C6.26838 0.566913 7.53016 0.691263 8.6768 1.16633C9.82345 1.64139 10.8035 2.44583 11.4929 3.4779C12.1823 4.50997 12.5502 5.72332 12.55 6.96448C12.5479 8.6278 11.8862 10.2224 10.7101 11.3985C9.53391 12.5747 7.93932 13.2364 6.276 13.2385ZM2.517 6.92948L1.793 7.64748L4.642 10.4965L10.757 4.38148L10.039 3.66248L4.639 9.05448L2.517 6.92948Z" fill="#D231B5"/>
<path d="M6.276 13.2385C5.03484 13.2387 3.82149 12.8708 2.78942 12.1814C1.75735 11.4919 0.952914 10.5119 0.47785 9.36528C0.00278625 8.21863 -0.121564 6.95686 0.120526 5.73953C0.362617 4.52221 0.960273 3.40402 1.83791 2.52638C2.71554 1.64875 3.83373 1.05109 5.05106 0.809003C6.26838 0.566913 7.53016 0.691263 8.6768 1.16633C9.82345 1.64139 10.8035 2.44583 11.4929 3.4779C12.1823 4.50997 12.5502 5.72332 12.55 6.96448C12.5479 8.6278 11.8862 10.2224 10.7101 11.3985C9.53391 12.5747 7.93932 13.2364 6.276 13.2385ZM2.517 6.92948L1.793 7.64748L4.642 10.4965L10.757 4.38148L10.039 3.66248L4.639 9.05448L2.517 6.92948Z" fill="#D231B5"/>
</svg>
