<?xml version="1.0"?>
<svg xmlns="http://www.w3.org/2000/svg" xmlns:xlink="http://www.w3.org/1999/xlink" xmlns:svgjs="http://svgjs.com/svgjs" version="1.1" width="512" height="512" x="0" y="0" viewBox="0 0 365.696 365.696" style="enable-background:new 0 0 512 512" xml:space="preserve" class=""><g><path xmlns="http://www.w3.org/2000/svg" d="m243.1875 182.859375 113.132812-113.132813c12.5-12.5 12.5-32.765624 0-45.246093l-15.082031-15.082031c-12.503906-12.503907-32.769531-12.503907-45.25 0l-113.128906 113.128906-113.132813-113.152344c-12.5-12.5-32.765624-12.5-45.246093 0l-15.105469 15.082031c-12.5 12.503907-12.5 32.769531 0 45.25l113.152344 113.152344-113.128906 113.128906c-12.503907 12.503907-12.503907 32.769531 0 45.25l15.082031 15.082031c12.5 12.5 32.765625 12.5 45.246093 0l113.132813-113.132812 113.128906 113.132812c12.503907 12.5 32.769531 12.5 45.25 0l15.082031-15.082031c12.5-12.503906 12.5-32.769531 0-45.25zm0 0" fill="#8a88c3" data-original="#000000" style="" class=""/></g></svg>
