<svg xmlns="http://www.w3.org/2000/svg" width="17.016" height="17.016" viewBox="0 0 17.016 17.016">
  <path id="ic_content_cut_24px" d="M8.5,6.8a3.315,3.315,0,0,0,.306-1.4,3.4,3.4,0,1,0-3.4,3.4A3.315,3.315,0,0,0,6.8,8.5l2.008,2.008L6.8,12.516a3.315,3.315,0,0,0-1.4-.306,3.4,3.4,0,1,0,3.4,3.4,3.315,3.315,0,0,0-.306-1.4l2.008-2.008,5.956,5.956h2.552v-.851ZM5.4,7.1A1.7,1.7,0,1,1,7.1,5.4,1.7,1.7,0,0,1,5.4,7.1Zm0,10.21a1.7,1.7,0,1,1,1.7-1.7A1.7,1.7,0,0,1,5.4,17.315Zm5.1-6.381a.425.425,0,1,1,.425-.425A.421.421,0,0,1,10.508,10.934Zm5.956-8.083-5.1,5.1,1.7,1.7L19.016,3.7V2.851Z" transform="translate(-2 -2)" />
</svg>
