<svg width="23" height="23" viewBox="0 0 23 23" fill="none" xmlns="http://www.w3.org/2000/svg">
<path d="M11.25 22.5C17.4632 22.5 22.5 17.4632 22.5 11.25C22.5 5.0368 17.4632 0 11.25 0C5.0368 0 0 5.0368 0 11.25C0 17.4632 5.0368 22.5 11.25 22.5Z" fill="url(#paint0_radial)"/>
<path opacity="0.6" d="M6.47254 18.706L5.66504 17.9029C5.66504 17.9029 7.34504 13.751 11.2494 13.751C15.1538 13.751 16.8375 17.9122 16.8375 17.9122L16.0538 18.7172C16.0538 18.7172 13.1069 18.1254 11.2494 18.1254C9.39191 18.1254 6.47254 18.706 6.47254 18.706Z" fill="#29233D"/>
<path d="M11.2438 14.3756C9.91069 14.3775 8.86569 14.9381 8.08069 15.625H14.4088C13.6219 14.9369 12.5776 14.3756 11.2519 14.375C11.2494 14.375 11.2469 14.3756 11.2438 14.3756Z" fill="url(#paint1_linear)"/>
<path d="M17.77 8.12228C17.3337 8.07603 16.9481 7.98666 16.55 7.86978C16.1568 7.75166 15.7693 7.60978 15.3956 7.43353C14.645 7.08728 13.9387 6.62666 13.3018 6.07541C13.0362 5.84541 13.0068 5.44353 13.2368 5.17728C13.4668 4.91103 13.8687 4.88228 14.135 5.11228C14.1562 5.13103 14.1793 5.15416 14.1981 5.17478C14.6731 5.71666 15.2268 6.20228 15.8481 6.60041C16.1568 6.80228 16.485 6.97666 16.8225 7.13166C17.1562 7.28416 17.5212 7.41916 17.855 7.50291L17.8787 7.50853C18.0462 7.55041 18.1475 7.71978 18.1062 7.88728C18.0675 8.04041 17.9225 8.13853 17.77 8.12228Z" fill="#27243B"/>
<path d="M4.64496 7.50301C4.97871 7.41988 5.34371 7.28426 5.67746 7.13176C6.01496 6.97676 6.34309 6.80238 6.65184 6.60051C7.27309 6.20238 7.82621 5.71676 8.30184 5.17488C8.53309 4.90988 8.93559 4.88301 9.19996 5.11426C9.46496 5.34551 9.49184 5.74801 9.26059 6.01238C9.24184 6.03363 9.21809 6.05676 9.19746 6.07488C8.55996 6.62613 7.85434 7.08738 7.10371 7.43301C6.72996 7.60926 6.34184 7.75113 5.94934 7.86926C5.55121 7.98613 5.16559 8.07613 4.72934 8.12176C4.55809 8.13988 4.40434 8.01551 4.38621 7.84426C4.36996 7.68738 4.47246 7.54551 4.62121 7.50863L4.64496 7.50301Z" fill="#27243B"/>
<path opacity="0.6" d="M17.8118 12.5001C17.7481 12.5001 17.6843 12.4807 17.6293 12.4407C17.6125 12.4288 15.9531 11.2501 13.4375 11.2501C13.2875 11.2501 13.1587 11.1438 13.1306 10.9969C13.1025 10.8501 13.1825 10.7032 13.3218 10.6476L16.4468 9.39756C16.6056 9.33318 16.7887 9.41131 16.8531 9.57193C16.9175 9.73193 16.8393 9.91381 16.6787 9.97818L16.3956 10.0913C15.91 10.2857 15.9318 10.9701 16.4231 11.1488C17.39 11.5007 17.9556 11.9057 17.9962 11.9351C18.1356 12.0369 18.1662 12.2319 18.065 12.3713C18.0043 12.4551 17.9087 12.5001 17.8118 12.5001Z" fill="#29233D"/>
<path opacity="0.6" d="M4.68817 12.5001C4.75192 12.5001 4.81567 12.4807 4.87067 12.4407C4.88755 12.4288 6.54692 11.2501 9.06255 11.2501C9.21255 11.2501 9.3413 11.1438 9.36942 10.9969C9.39755 10.8501 9.31755 10.7032 9.17817 10.6476L6.05317 9.39756C5.89442 9.33318 5.7113 9.41131 5.64692 9.57193C5.58255 9.73193 5.66067 9.91381 5.8213 9.97818L6.10442 10.0913C6.59005 10.2857 6.56817 10.9701 6.07692 11.1488C5.11005 11.5007 4.54442 11.9057 4.5038 11.9351C4.36442 12.0369 4.3338 12.2319 4.43505 12.3713C4.49567 12.4551 4.5913 12.5001 4.68817 12.5001Z" fill="#29233D"/>
<defs>
<radialGradient id="paint0_radial" cx="0" cy="0" r="1" gradientUnits="userSpaceOnUse" gradientTransform="translate(11.25 11.25) scale(11.25)">
<stop stop-color="#FFE16E"/>
<stop offset="0.629" stop-color="#FFD226"/>
<stop offset="0.75" stop-color="#FDCD23"/>
<stop offset="0.899" stop-color="#F6BD1B"/>
<stop offset="0.999" stop-color="#F0AF13"/>
</radialGradient>
<linearGradient id="paint1_linear" x1="8.08069" y1="15" x2="14.4088" y2="15" gradientUnits="userSpaceOnUse">
<stop offset="0.001" stop-color="#968F72"/>
<stop offset="0.048" stop-color="#B2AD97"/>
<stop offset="0.098" stop-color="#CAC6B7"/>
<stop offset="0.153" stop-color="#DDDBD2"/>
<stop offset="0.213" stop-color="#ECEBE6"/>
<stop offset="0.281" stop-color="#F7F6F4"/>
<stop offset="0.363" stop-color="#FDFDFC"/>
<stop offset="0.5" stop-color="white"/>
<stop offset="0.637" stop-color="#FDFDFC"/>
<stop offset="0.719" stop-color="#F7F6F4"/>
<stop offset="0.787" stop-color="#ECEBE6"/>
<stop offset="0.847" stop-color="#DDDBD2"/>
<stop offset="0.902" stop-color="#CAC6B7"/>
<stop offset="0.952" stop-color="#B2AD97"/>
<stop offset="1" stop-color="#968F72"/>
</linearGradient>
</defs>
</svg>
