<svg width="23" height="23" viewBox="0 0 23 23" fill="none" xmlns="http://www.w3.org/2000/svg">
<path d="M11.375 22.5C17.3811 22.5 22.25 17.4632 22.25 11.25C22.25 5.0368 17.3811 0 11.375 0C5.3689 0 0.5 5.0368 0.5 11.25C0.5 17.4632 5.3689 22.5 11.375 22.5Z" fill="url(#paint0_radial)"/>
<path d="M18.0208 12.5C18.0208 12.5 18.1048 20 11.375 20C4.6452 20 4.72918 12.5 4.72918 12.5C4.72918 12.5 6.20576 12.5 11.375 12.5C16.5443 12.5 18.0208 12.5 18.0208 12.5Z" fill="url(#paint1_radial)"/>
<path d="M15 11.25C16.3347 11.25 17.4167 9.85089 17.4167 8.125C17.4167 6.39911 16.3347 5 15 5C13.6654 5 12.5834 6.39911 12.5834 8.125C12.5834 9.85089 13.6654 11.25 15 11.25Z" fill="white"/>
<path d="M15 10C15.6673 10 16.2083 9.44036 16.2083 8.75C16.2083 8.05964 15.6673 7.5 15 7.5C14.3326 7.5 13.7916 8.05964 13.7916 8.75C13.7916 9.44036 14.3326 10 15 10Z" fill="#212121"/>
<path d="M7.75004 11.25C9.08473 11.25 10.1667 9.85089 10.1667 8.125C10.1667 6.39911 9.08473 5 7.75004 5C6.41535 5 5.33337 6.39911 5.33337 8.125C5.33337 9.85089 6.41535 11.25 7.75004 11.25Z" fill="white"/>
<path d="M7.74996 10C8.4173 10 8.95829 9.44036 8.95829 8.75C8.95829 8.05964 8.4173 7.5 7.74996 7.5C7.08262 7.5 6.54163 8.05964 6.54163 8.75C6.54163 9.44036 7.08262 10 7.74996 10Z" fill="#212121"/>
<path d="M18.0208 12.5C18.0208 16.2969 15.0453 19.375 11.375 19.375C7.70465 19.375 4.72913 16.2969 4.72913 12.5H18.0208Z" fill="url(#paint2_radial)"/>
<path d="M11.9791 16.875C11.6674 16.875 11.375 17.1875 11.375 17.1875C11.375 17.1875 11.0826 16.875 10.7708 16.875C9.51353 16.875 8.70093 18.0994 8.70093 18.0994C9.50809 18.5137 10.4149 18.75 11.375 18.75C12.335 18.75 13.2418 18.5137 14.049 18.0994C14.049 18.0994 13.2364 16.875 11.9791 16.875Z" fill="url(#paint3_radial)"/>
<path d="M11.375 19.9998C9.27012 19.9998 7.36337 19.1385 5.95325 17.7441C6.93623 19.8179 8.9916 21.2498 11.375 21.2498C13.7585 21.2498 15.8139 19.8179 16.7968 17.7441C15.3867 19.1385 13.48 19.9998 11.375 19.9998Z" fill="url(#paint4_radial)"/>
<path d="M5.9375 13.125V13.75C5.9375 14.4406 6.47823 15 7.14583 15H15.6042C16.2718 15 16.8125 14.4406 16.8125 13.75V13.125H5.9375Z" fill="url(#paint5_linear)"/>
<defs>
<radialGradient id="paint0_radial" cx="0" cy="0" r="1" gradientUnits="userSpaceOnUse" gradientTransform="translate(11.375 11.25) scale(10.875 11.25)">
<stop stop-color="#FFE16E"/>
<stop offset="0.629" stop-color="#FFD226"/>
<stop offset="0.75" stop-color="#FDCD23"/>
<stop offset="0.899" stop-color="#F6BD1B"/>
<stop offset="0.999" stop-color="#F0AF13"/>
</radialGradient>
<radialGradient id="paint1_radial" cx="0" cy="0" r="1" gradientUnits="userSpaceOnUse" gradientTransform="translate(11.375 12.9869) scale(6.74915 6.98187)">
<stop offset="0.371" stop-color="#FFD226"/>
<stop offset="0.948" stop-color="#FFE16E"/>
<stop offset="1" stop-color="#FFE16E" stop-opacity="0"/>
</radialGradient>
<radialGradient id="paint2_radial" cx="0" cy="0" r="1" gradientUnits="userSpaceOnUse" gradientTransform="translate(11.4656 12.2431) scale(7.16723 7.41437)">
<stop stop-color="#1C1911"/>
<stop offset="0.999" stop-color="#171714"/>
</radialGradient>
<radialGradient id="paint3_radial" cx="0" cy="0" r="1" gradientUnits="userSpaceOnUse" gradientTransform="translate(11.3751 20.4569) rotate(90) scale(3.69375 3.5542)">
<stop offset="0.456" stop-color="#DB4A59"/>
<stop offset="0.602" stop-color="#D84756"/>
<stop offset="0.729" stop-color="#CD3E4D"/>
<stop offset="0.85" stop-color="#BB303E"/>
<stop offset="0.965" stop-color="#A21B29"/>
<stop offset="0.999" stop-color="#991421"/>
</radialGradient>
<radialGradient id="paint4_radial" cx="0" cy="0" r="1" gradientUnits="userSpaceOnUse" gradientTransform="translate(11.4361 14.5166) scale(6.27185 6.48813)">
<stop offset="0.819" stop-color="#CC9000"/>
<stop offset="0.988" stop-color="#FBBC23" stop-opacity="0.069"/>
<stop offset="1" stop-color="#FFBF26" stop-opacity="0"/>
</radialGradient>
<linearGradient id="paint5_linear" x1="5.9375" y1="14.0625" x2="16.8125" y2="14.0625" gradientUnits="userSpaceOnUse">
<stop offset="0.001" stop-color="#968F72"/>
<stop offset="0.048" stop-color="#B2AD97"/>
<stop offset="0.098" stop-color="#CAC6B7"/>
<stop offset="0.153" stop-color="#DDDBD2"/>
<stop offset="0.213" stop-color="#ECEBE6"/>
<stop offset="0.281" stop-color="#F7F6F4"/>
<stop offset="0.363" stop-color="#FDFDFC"/>
<stop offset="0.5" stop-color="white"/>
<stop offset="0.637" stop-color="#FDFDFC"/>
<stop offset="0.719" stop-color="#F7F6F4"/>
<stop offset="0.787" stop-color="#ECEBE6"/>
<stop offset="0.847" stop-color="#DDDBD2"/>
<stop offset="0.902" stop-color="#CAC6B7"/>
<stop offset="0.952" stop-color="#B2AD97"/>
<stop offset="1" stop-color="#968F72"/>
</linearGradient>
</defs>
</svg>
