<svg width="23" height="23" viewBox="0 0 23 23" fill="none" xmlns="http://www.w3.org/2000/svg">
<path d="M17.375 22.5003C19.1009 22.5003 20.5 21.9701 20.5 21.316C20.5 20.662 19.1009 20.1318 17.375 20.1318C15.6491 20.1318 14.25 20.662 14.25 21.316C14.25 21.9701 15.6491 22.5003 17.375 22.5003Z" fill="url(#paint0_radial)"/>
<path d="M11.75 21.3158C17.9632 21.3158 23 16.5441 23 10.6579C23 4.7717 17.9632 0 11.75 0C5.5368 0 0.5 4.7717 0.5 10.6579C0.5 16.5441 5.5368 21.3158 11.75 21.3158Z" fill="url(#paint1_radial)"/>
<path d="M19.3081 6.3894C19.0275 6.09275 18.6362 5.80795 18.245 5.58769C17.8469 5.36328 17.4219 5.18565 16.9844 5.04828C16.5412 4.92453 16.0925 4.82328 15.6325 4.78124C15.175 4.72854 14.7112 4.73032 14.2506 4.74571L14.2287 4.7463C13.8775 4.75815 13.5825 4.49821 13.57 4.16545C13.5575 3.83269 13.8319 3.55321 14.1831 3.54137C14.2056 3.54078 14.2287 3.54078 14.2506 3.54255C14.7781 3.57808 15.3037 3.63196 15.82 3.74565C16.3375 3.84808 16.8406 4.01624 17.3262 4.21045C17.8081 4.41828 18.2669 4.66992 18.6875 4.97071C19.1106 5.27861 19.485 5.60367 19.8169 6.0442C19.9169 6.17683 19.8844 6.36098 19.7444 6.45571C19.6137 6.54394 19.4362 6.52321 19.3312 6.41249L19.3081 6.3894Z" fill="#805B2A"/>
<path d="M3.68314 6.04519C4.01501 5.60466 4.39001 5.2796 4.81251 4.9717C5.23314 4.67091 5.69251 4.41867 6.17376 4.21144C6.65939 4.01723 7.16251 3.84907 7.68001 3.74663C8.19626 3.63295 8.72189 3.57848 9.24939 3.54354C9.60001 3.51986 9.90439 3.77032 9.92939 4.10249C9.95439 4.43466 9.69001 4.72302 9.33939 4.7467C9.31689 4.74848 9.29439 4.74848 9.27251 4.74788L9.25001 4.7467C8.78939 4.73131 8.32564 4.72894 7.86814 4.78223C7.40814 4.82367 6.95939 4.92492 6.51626 5.04927C6.07876 5.18663 5.65314 5.36367 5.25564 5.58867C4.86376 5.80835 4.47314 6.09374 4.19251 6.39038L4.16939 6.41466C4.05439 6.53604 3.85751 6.54611 3.72939 6.43716C3.60939 6.33532 3.59189 6.16598 3.68314 6.04519Z" fill="#805B2A"/>
<path d="M11.75 18.3556C13.4759 18.3556 14.875 17.0302 14.875 15.3951C14.875 13.76 13.4759 12.4346 11.75 12.4346C10.0241 12.4346 8.625 13.76 8.625 15.3951C8.625 17.0302 10.0241 18.3556 11.75 18.3556Z" fill="url(#paint2_radial)"/>
<path d="M14.875 14.2105C14.875 12.5757 13.4756 11.25 11.75 11.25C10.0244 11.25 8.625 12.5757 8.625 14.2105C8.625 14.3118 8.625 14.7014 8.625 14.8026C8.625 16.4374 10.0244 17.7632 11.75 17.7632C13.4756 17.7632 14.875 16.4374 14.875 14.8026C14.875 14.7014 14.875 14.3118 14.875 14.2105Z" fill="url(#paint3_radial)"/>
<path d="M11.75 18.3555C8.85438 18.3555 8.625 15.543 8.625 15.543C8.625 15.543 8.79313 19.3917 11.75 19.3917C14.7069 19.3917 14.875 15.543 14.875 15.543C14.875 15.543 14.6456 18.3555 11.75 18.3555Z" fill="url(#paint4_radial)"/>
<path d="M9.59692 13.026H13.9038C13.4707 12.3208 12.6738 11.8418 11.7507 11.8418C10.8275 11.8418 10.03 12.3208 9.59692 13.026Z" fill="url(#paint5_linear)"/>
<path d="M19.25 21.3157C19.25 21.3157 18.4988 21.5519 17.4 21.5519C16.3013 21.5519 15.5 21.3157 15.5 21.3157C15.5 21.3157 17.375 18.3552 17.375 14.2104C17.375 9.47358 14.875 8.28937 14.875 8.28937L17.375 7.69727C17.375 7.69727 20.5 9.47358 20.5 14.2104C20.5 18.3552 19.25 21.3157 19.25 21.3157Z" fill="url(#paint6_linear)"/>
<path d="M19.25 21.3157C19.25 21.3157 18.4988 21.5519 17.4 21.5519C16.3013 21.5519 15.5 21.3157 15.5 21.3157C15.5 21.3157 17.375 18.3552 17.375 14.2104C17.375 9.47358 14.875 8.28937 14.875 8.28937L17.375 7.69727C17.375 7.69727 20.5 9.47358 20.5 14.2104C20.5 18.3552 19.25 21.3157 19.25 21.3157Z" fill="url(#paint7_radial)"/>
<path d="M18.9375 8.88117C19.1101 8.88117 19.25 8.74862 19.25 8.58512C19.25 8.42161 19.1101 8.28906 18.9375 8.28906C18.7649 8.28906 18.625 8.42161 18.625 8.58512C18.625 8.74862 18.7649 8.88117 18.9375 8.88117Z" fill="#212121"/>
<path d="M14.7137 8.84567C14.7137 8.84567 15.7925 8.28672 16.75 8.28672C17.7075 8.28672 18.7862 8.84567 18.7862 8.84567L19.1806 8.39922C19.1806 8.39922 18.0775 7.10547 16.75 7.10547C15.4225 7.10547 14.3193 8.39922 14.3193 8.39922L14.7137 8.84567Z" fill="#212121"/>
<path d="M14.5625 8.88117C14.7351 8.88117 14.875 8.74862 14.875 8.58512C14.875 8.42161 14.7351 8.28906 14.5625 8.28906C14.3899 8.28906 14.25 8.42161 14.25 8.58512C14.25 8.74862 14.3899 8.88117 14.5625 8.88117Z" fill="#212121"/>
<path d="M17.3931 22.2714C18.6616 22.2714 19.6899 21.9411 19.6899 21.5337C19.6899 21.1262 18.6616 20.7959 17.3931 20.7959C16.1245 20.7959 15.0962 21.1262 15.0962 21.5337C15.0962 21.9411 16.1245 22.2714 17.3931 22.2714Z" fill="url(#paint8_radial)"/>
<path d="M6.125 22.5003C7.85089 22.5003 9.25 21.9701 9.25 21.316C9.25 20.662 7.85089 20.1318 6.125 20.1318C4.39911 20.1318 3 20.662 3 21.316C3 21.9701 4.39911 22.5003 6.125 22.5003Z" fill="url(#paint9_radial)"/>
<path d="M4.25 21.3157C4.25 21.3157 5.00125 21.5519 6.1 21.5519C7.19875 21.5519 8 21.3157 8 21.3157C8 21.3157 6.125 18.3552 6.125 14.2104C6.125 9.47358 8.625 8.28937 8.625 8.28937L6.125 7.69727C6.125 7.69727 3 9.47358 3 14.2104C3 18.3552 4.25 21.3157 4.25 21.3157Z" fill="url(#paint10_linear)"/>
<path d="M4.25 21.3157C4.25 21.3157 5.00125 21.5519 6.1 21.5519C7.19875 21.5519 8 21.3157 8 21.3157C8 21.3157 6.125 18.3552 6.125 14.2104C6.125 9.47358 8.625 8.28937 8.625 8.28937L6.125 7.69727C6.125 7.69727 3 9.47358 3 14.2104C3 18.3552 4.25 21.3157 4.25 21.3157Z" fill="url(#paint11_radial)"/>
<path d="M6.10693 22.2714C7.37546 22.2714 8.40381 21.9411 8.40381 21.5337C8.40381 21.1262 7.37546 20.7959 6.10693 20.7959C4.8384 20.7959 3.81006 21.1262 3.81006 21.5337C3.81006 21.9411 4.8384 22.2714 6.10693 22.2714Z" fill="url(#paint12_radial)"/>
<path d="M8.9375 8.88117C9.11009 8.88117 9.25 8.74862 9.25 8.58512C9.25 8.42161 9.11009 8.28906 8.9375 8.28906C8.76491 8.28906 8.625 8.42161 8.625 8.58512C8.625 8.74862 8.76491 8.88117 8.9375 8.88117Z" fill="#212121"/>
<path d="M4.71371 8.84567C4.71371 8.84567 5.79246 8.28672 6.74996 8.28672C7.70746 8.28672 8.78621 8.84567 8.78621 8.84567L9.18059 8.39922C9.18059 8.39922 8.07746 7.10547 6.74996 7.10547C5.42246 7.10547 4.31934 8.39922 4.31934 8.39922L4.71371 8.84567Z" fill="#212121"/>
<path d="M4.5625 8.88117C4.73509 8.88117 4.875 8.74862 4.875 8.58512C4.875 8.42161 4.73509 8.28906 4.5625 8.28906C4.38991 8.28906 4.25 8.42161 4.25 8.58512C4.25 8.74862 4.38991 8.88117 4.5625 8.88117Z" fill="#212121"/>
<defs>
<radialGradient id="paint0_radial" cx="0" cy="0" r="1" gradientUnits="userSpaceOnUse" gradientTransform="translate(17.4498 20.7999) rotate(179.818) scale(3.67643 1.70071)">
<stop stop-color="#1C7FB0"/>
<stop offset="0.046" stop-color="#1787BE"/>
<stop offset="0.155" stop-color="#0D96DA"/>
<stop offset="0.264" stop-color="#06A1EF"/>
<stop offset="0.372" stop-color="#01A8FB"/>
<stop offset="0.479" stop-color="#00AAFF"/>
<stop offset="0.774" stop-color="#00BBFF"/>
<stop offset="1" stop-color="#4FD0FF"/>
</radialGradient>
<radialGradient id="paint1_radial" cx="0" cy="0" r="1" gradientUnits="userSpaceOnUse" gradientTransform="translate(11.75 10.6579) scale(11.25 10.6579)">
<stop stop-color="#FFE16E"/>
<stop offset="0.629" stop-color="#FFD426"/>
<stop offset="0.72" stop-color="#FDCD23"/>
<stop offset="0.854" stop-color="#F8B919"/>
<stop offset="1" stop-color="#F09C0C"/>
</radialGradient>
<radialGradient id="paint2_radial" cx="0" cy="0" r="1" gradientUnits="userSpaceOnUse" gradientTransform="translate(11.75 15.3785) scale(3.13375 2.96882)">
<stop offset="0.899" stop-color="#FFE16E"/>
<stop offset="1" stop-color="#FFE16E" stop-opacity="0"/>
</radialGradient>
<radialGradient id="paint3_radial" cx="0" cy="0" r="1" gradientUnits="userSpaceOnUse" gradientTransform="translate(11.75 14.5066) scale(3.285 3.11211)">
<stop stop-color="#1C1911"/>
<stop offset="0.999" stop-color="#171714"/>
</radialGradient>
<radialGradient id="paint4_radial" cx="0" cy="0" r="1" gradientUnits="userSpaceOnUse" gradientTransform="translate(11.6864 15.5781) scale(3.04409 3.76355)">
<stop offset="0.696" stop-color="#CC9000"/>
<stop offset="1" stop-color="#CC9000" stop-opacity="0"/>
</radialGradient>
<linearGradient id="paint5_linear" x1="9.59692" y1="12.4339" x2="13.9032" y2="12.4339" gradientUnits="userSpaceOnUse">
<stop offset="0.001" stop-color="#968F72"/>
<stop offset="0.048" stop-color="#B2AD97"/>
<stop offset="0.098" stop-color="#CAC6B7"/>
<stop offset="0.153" stop-color="#DDDBD2"/>
<stop offset="0.213" stop-color="#ECEBE6"/>
<stop offset="0.281" stop-color="#F7F6F4"/>
<stop offset="0.363" stop-color="#FDFDFC"/>
<stop offset="0.5" stop-color="white"/>
<stop offset="0.637" stop-color="#FDFDFC"/>
<stop offset="0.719" stop-color="#F7F6F4"/>
<stop offset="0.787" stop-color="#ECEBE6"/>
<stop offset="0.847" stop-color="#DDDBD2"/>
<stop offset="0.902" stop-color="#CAC6B7"/>
<stop offset="0.952" stop-color="#B2AD97"/>
<stop offset="1" stop-color="#968F72"/>
</linearGradient>
<linearGradient id="paint6_linear" x1="17.6875" y1="7.69727" x2="17.6875" y2="21.1984" gradientUnits="userSpaceOnUse">
<stop stop-color="#1C7FB0"/>
<stop offset="0.032" stop-color="#3994C2"/>
<stop offset="0.078" stop-color="#5DAFD8"/>
<stop offset="0.124" stop-color="#7AC3E9"/>
<stop offset="0.171" stop-color="#8ED2F5"/>
<stop offset="0.217" stop-color="#9ADBFD"/>
<stop offset="0.263" stop-color="#9EDEFF"/>
<stop offset="0.362" stop-color="#75D0FF"/>
<stop offset="0.449" stop-color="#58C7FF"/>
<stop offset="0.498" stop-color="#4DC3FF"/>
<stop offset="0.695" stop-color="#00AAFF"/>
<stop offset="0.889" stop-color="#009BE8"/>
<stop offset="1" stop-color="#00AAFF"/>
</linearGradient>
<radialGradient id="paint7_radial" cx="0" cy="0" r="1" gradientUnits="userSpaceOnUse" gradientTransform="translate(14.9463 15.2135) scale(7.09562 14.7733)">
<stop offset="0.376" stop-color="#9EDEFF" stop-opacity="0"/>
<stop offset="0.537" stop-color="#9EDEFF" stop-opacity="0.6"/>
<stop offset="0.725" stop-color="#9EDEFF" stop-opacity="0"/>
</radialGradient>
<radialGradient id="paint8_radial" cx="0" cy="0" r="1" gradientUnits="userSpaceOnUse" gradientTransform="translate(17.3928 21.5348) scale(2.29714 0.737703)">
<stop stop-color="#9EDEFF"/>
<stop offset="1" stop-color="#9EDEFF" stop-opacity="0"/>
</radialGradient>
<radialGradient id="paint9_radial" cx="0" cy="0" r="1" gradientUnits="userSpaceOnUse" gradientTransform="translate(6.05017 20.7999) rotate(0.182388) scale(3.67643 1.70071)">
<stop stop-color="#1C7FB0"/>
<stop offset="0.046" stop-color="#1787BE"/>
<stop offset="0.155" stop-color="#0D96DA"/>
<stop offset="0.264" stop-color="#06A1EF"/>
<stop offset="0.372" stop-color="#01A8FB"/>
<stop offset="0.479" stop-color="#00AAFF"/>
<stop offset="0.774" stop-color="#00BBFF"/>
<stop offset="1" stop-color="#4FD0FF"/>
</radialGradient>
<linearGradient id="paint10_linear" x1="5.8125" y1="7.69727" x2="5.8125" y2="21.1984" gradientUnits="userSpaceOnUse">
<stop stop-color="#1C7FB0"/>
<stop offset="0.032" stop-color="#3994C2"/>
<stop offset="0.078" stop-color="#5DAFD8"/>
<stop offset="0.124" stop-color="#7AC3E9"/>
<stop offset="0.171" stop-color="#8ED2F5"/>
<stop offset="0.217" stop-color="#9ADBFD"/>
<stop offset="0.263" stop-color="#9EDEFF"/>
<stop offset="0.362" stop-color="#75D0FF"/>
<stop offset="0.449" stop-color="#58C7FF"/>
<stop offset="0.498" stop-color="#4DC3FF"/>
<stop offset="0.695" stop-color="#00AAFF"/>
<stop offset="0.889" stop-color="#009BE8"/>
<stop offset="1" stop-color="#00AAFF"/>
</linearGradient>
<radialGradient id="paint11_radial" cx="0" cy="0" r="1" gradientUnits="userSpaceOnUse" gradientTransform="translate(8.55375 15.2135) rotate(180) scale(7.09562 14.7733)">
<stop offset="0.376" stop-color="#9EDEFF" stop-opacity="0"/>
<stop offset="0.537" stop-color="#9EDEFF" stop-opacity="0.6"/>
<stop offset="0.725" stop-color="#9EDEFF" stop-opacity="0"/>
</radialGradient>
<radialGradient id="paint12_radial" cx="0" cy="0" r="1" gradientUnits="userSpaceOnUse" gradientTransform="translate(6.1072 21.5348) rotate(180) scale(2.29714 0.737703)">
<stop stop-color="#9EDEFF"/>
<stop offset="1" stop-color="#9EDEFF" stop-opacity="0"/>
</radialGradient>
</defs>
</svg>
