<svg width="23" height="23" viewBox="0 0 23 23" fill="none" xmlns="http://www.w3.org/2000/svg">
<path d="M11.25 22.5C17.4632 22.5 22.5 17.4632 22.5 11.25C22.5 5.0368 17.4632 0 11.25 0C5.0368 0 0 5.0368 0 11.25C0 17.4632 5.0368 22.5 11.25 22.5Z" fill="url(#paint0_radial)"/>
<path d="M22.5 5C22.5 6.38063 21.3806 7.5 20 7.5C18.6194 7.5 17.5 6.38063 17.5 5C17.5 3 19.5 0 20 0C20.5 0 22.5 3 22.5 5Z" fill="url(#paint1_radial)"/>
<path d="M18.125 12.5C18.125 16.2969 15.0469 19.375 11.25 19.375C7.45312 19.375 4.375 16.2969 4.375 12.5H18.125Z" fill="url(#paint2_radial)"/>
<path d="M11.875 16.875C11.5525 16.875 11.25 17.1875 11.25 17.1875C11.25 17.1875 10.9475 16.875 10.625 16.875C9.32439 16.875 8.48376 18.0994 8.48376 18.0994C9.31876 18.5137 10.2569 18.75 11.25 18.75C12.2431 18.75 13.1813 18.5137 14.0163 18.0994C14.0163 18.0994 13.1756 16.875 11.875 16.875Z" fill="url(#paint3_radial)"/>
<path d="M13.75 10C15.8388 10 17.7487 10.6219 17.7487 10.6219L17.9881 10.0544C17.7225 9.84375 15.6719 8.75 13.75 8.75V10Z" fill="#212121"/>
<path d="M17.8125 10.625C17.9851 10.625 18.125 10.4851 18.125 10.3125C18.125 10.1399 17.9851 10 17.8125 10C17.6399 10 17.5 10.1399 17.5 10.3125C17.5 10.4851 17.6399 10.625 17.8125 10.625Z" fill="#212121"/>
<path d="M13.75 10C14.0952 10 14.375 9.72018 14.375 9.375C14.375 9.02982 14.0952 8.75 13.75 8.75C13.4048 8.75 13.125 9.02982 13.125 9.375C13.125 9.72018 13.4048 10 13.75 10Z" fill="#212121"/>
<path d="M8.74997 10C6.66122 10 4.75122 10.6219 4.75122 10.6219L4.51184 10.0544C4.77747 9.84375 6.82809 8.75 8.74997 8.75V10Z" fill="#212121"/>
<path d="M4.6875 10.625C4.86009 10.625 5 10.4851 5 10.3125C5 10.1399 4.86009 10 4.6875 10C4.51491 10 4.375 10.1399 4.375 10.3125C4.375 10.4851 4.51491 10.625 4.6875 10.625Z" fill="#212121"/>
<path d="M8.75 10C9.09518 10 9.375 9.72018 9.375 9.375C9.375 9.02982 9.09518 8.75 8.75 8.75C8.40482 8.75 8.125 9.02982 8.125 9.375C8.125 9.72018 8.40482 10 8.75 10Z" fill="#212121"/>
<path d="M5.625 13.125V13.75C5.625 14.4406 6.18437 15 6.875 15H15.625C16.3156 15 16.875 14.4406 16.875 13.75V13.125H5.625Z" fill="url(#paint4_linear)"/>
<defs>
<radialGradient id="paint0_radial" cx="0" cy="0" r="1" gradientUnits="userSpaceOnUse" gradientTransform="translate(11.25 11.25) scale(11.25)">
<stop stop-color="#FFE16E"/>
<stop offset="0.629" stop-color="#FFD226"/>
<stop offset="0.75" stop-color="#FDCD23"/>
<stop offset="0.899" stop-color="#F6BD1B"/>
<stop offset="0.999" stop-color="#F0AF13"/>
</radialGradient>
<radialGradient id="paint1_radial" cx="0" cy="0" r="1" gradientUnits="userSpaceOnUse" gradientTransform="translate(20.0467 4.4175) rotate(-90) scale(3.35625 2.77394)">
<stop stop-color="#B3F1FF"/>
<stop offset="0.166" stop-color="#9EE4FC"/>
<stop offset="0.509" stop-color="#68C2F3"/>
<stop offset="0.996" stop-color="#118CE6"/>
<stop offset="1" stop-color="#108CE6"/>
</radialGradient>
<radialGradient id="paint2_radial" cx="0" cy="0" r="1" gradientUnits="userSpaceOnUse" gradientTransform="translate(11.3437 12.2431) scale(7.41437)">
<stop stop-color="#1C1911"/>
<stop offset="0.999" stop-color="#171714"/>
</radialGradient>
<radialGradient id="paint3_radial" cx="0" cy="0" r="1" gradientUnits="userSpaceOnUse" gradientTransform="translate(11.2501 20.4569) rotate(90) scale(3.69375 3.67676)">
<stop offset="0.456" stop-color="#DB4A59"/>
<stop offset="0.602" stop-color="#D84756"/>
<stop offset="0.729" stop-color="#CD3E4D"/>
<stop offset="0.85" stop-color="#BB303E"/>
<stop offset="0.965" stop-color="#A21B29"/>
<stop offset="0.999" stop-color="#991421"/>
</radialGradient>
<linearGradient id="paint4_linear" x1="5.625" y1="14.0625" x2="16.875" y2="14.0625" gradientUnits="userSpaceOnUse">
<stop offset="0.001" stop-color="#968F72"/>
<stop offset="0.048" stop-color="#B2AD97"/>
<stop offset="0.098" stop-color="#CAC6B7"/>
<stop offset="0.153" stop-color="#DDDBD2"/>
<stop offset="0.213" stop-color="#ECEBE6"/>
<stop offset="0.281" stop-color="#F7F6F4"/>
<stop offset="0.363" stop-color="#FDFDFC"/>
<stop offset="0.5" stop-color="white"/>
<stop offset="0.637" stop-color="#FDFDFC"/>
<stop offset="0.719" stop-color="#F7F6F4"/>
<stop offset="0.787" stop-color="#ECEBE6"/>
<stop offset="0.847" stop-color="#DDDBD2"/>
<stop offset="0.902" stop-color="#CAC6B7"/>
<stop offset="0.952" stop-color="#B2AD97"/>
<stop offset="1" stop-color="#968F72"/>
</linearGradient>
</defs>
</svg>
