<svg width="22" height="22" viewBox="0 0 22 22" fill="none" xmlns="http://www.w3.org/2000/svg">
<path d="M11 22C17.0748 22 22 17.0748 22 11C22 4.92525 17.0748 0 11 0C4.92525 0 0 4.92525 0 11C0 17.0748 4.92525 22 11 22Z" fill="url(#paint0_linear)"/>
<path d="M14.85 17.4082C14.7207 17.4082 14.5915 17.3631 14.487 17.2707C13.519 16.4188 12.2809 15.9496 11 15.9496C9.71901 15.9496 8.48096 16.4188 7.51351 17.2707C7.28526 17.4715 6.93766 17.4495 6.73746 17.2212C6.53671 16.9935 6.55871 16.6459 6.78696 16.4452C7.95516 15.4161 9.45171 14.8496 11 14.8496C12.5482 14.8496 14.0448 15.4161 15.2135 16.4452C15.4418 16.6459 15.4638 16.9935 15.263 17.2212C15.1541 17.345 15.0023 17.4082 14.85 17.4082Z" fill="#343434"/>
<path d="M5.19693 8.62109C5.08473 8.76519 4.98298 8.91974 4.90763 9.09519C4.42583 10.2106 4.94008 11.5053 6.05548 11.9871C7.17088 12.4689 8.46558 11.9546 8.94738 10.8392C9.02328 10.6638 9.06618 10.4839 9.09423 10.3035L5.19693 8.62109Z" fill="white"/>
<path d="M6.27553 9.08691C6.12428 9.19856 5.99723 9.34651 5.91748 9.53131C5.67658 10.089 5.93343 10.7364 6.49113 10.9773C7.04883 11.2182 7.69618 10.9613 7.93708 10.4036C8.01683 10.2188 8.03718 10.0247 8.01518 9.83821L6.27553 9.08691Z" fill="#343434"/>
<path d="M5.12549 8.59082L9.16469 10.3349" stroke="#801017" stroke-width="2" stroke-miterlimit="10" stroke-linecap="round" stroke-linejoin="round"/>
<path d="M16.9443 8.62109C17.0565 8.76519 17.1582 8.91974 17.2336 9.09519C17.7154 10.2106 17.2011 11.5053 16.0857 11.9871C14.9703 12.4689 13.6756 11.9546 13.1938 10.8392C13.1179 10.6638 13.075 10.4839 13.047 10.3035L16.9443 8.62109Z" fill="white"/>
<path d="M15.8659 9.08691C16.0171 9.19856 16.1442 9.34651 16.2239 9.53131C16.4648 10.089 16.208 10.7364 15.6503 10.9773C15.0926 11.2182 14.4452 10.9613 14.2043 10.4036C14.1246 10.2188 14.1042 10.0247 14.1262 9.83821L15.8659 9.08691Z" fill="#343434"/>
<path d="M17.0159 8.59082L12.9767 10.3349" stroke="#801017" stroke-width="2" stroke-miterlimit="10" stroke-linecap="round" stroke-linejoin="round"/>
<defs>
<linearGradient id="paint0_linear" x1="3.31705" y1="3.31705" x2="18.7605" y2="18.7605" gradientUnits="userSpaceOnUse">
<stop stop-color="#F44F5A"/>
<stop offset="0.443" stop-color="#EE3D4A"/>
<stop offset="1" stop-color="#E52030"/>
</linearGradient>
</defs>
</svg>
