<svg width="22" height="23" viewBox="0 0 22 23" fill="none" xmlns="http://www.w3.org/2000/svg">
<path d="M10.875 22.5C16.8811 22.5 21.75 17.4632 21.75 11.25C21.75 5.0368 16.8811 0 10.875 0C4.8689 0 0 5.0368 0 11.25C0 17.4632 4.8689 22.5 10.875 22.5Z" fill="url(#paint0_radial)"/>
<path d="M16.9166 18.75C18.9187 18.75 20.5416 17.0711 20.5416 15C20.5416 12.9289 18.9187 11.25 16.9166 11.25C14.9146 11.25 13.2916 12.9289 13.2916 15C13.2916 17.0711 14.9146 18.75 16.9166 18.75Z" fill="url(#paint1_radial)"/>
<path d="M8.52905 16.7895C8.52905 16.7895 9.07099 17.257 10.8744 17.257C12.545 17.257 13.218 16.7895 13.218 16.7895C13.218 16.7895 12.7993 15.8613 10.8744 15.8613C8.94955 15.8613 8.52905 16.7895 8.52905 16.7895Z" fill="url(#paint2_radial)"/>
<path d="M10.875 16.4355C12.3746 16.4355 12.7806 16.7599 12.7806 16.7599C12.7806 16.7599 12.3915 17.4999 10.875 17.4999C9.35857 17.4999 8.96948 16.7593 8.96948 16.7593C8.96948 16.7593 9.37548 16.4355 10.875 16.4355Z" fill="url(#paint3_radial)"/>
<path d="M18.4012 8.12328C17.9015 8.09578 17.4303 8.03078 16.9494 7.94078C16.4709 7.84953 15.996 7.7289 15.5253 7.57578C14.5883 7.26265 13.6597 6.80515 12.8592 6.07453C12.6042 5.84203 12.58 5.44015 12.8048 5.1764C13.0295 4.91265 13.418 4.88765 13.673 5.12015C13.6905 5.1364 13.7068 5.15265 13.7219 5.17015L13.7255 5.17453C14.279 5.80765 15.0311 6.3114 15.8504 6.69015C16.6696 7.0639 17.5668 7.34453 18.4537 7.50078L18.4682 7.50328C18.6326 7.53265 18.7431 7.6939 18.7154 7.8639C18.6888 8.02203 18.5522 8.13203 18.4012 8.12328Z" fill="#577526"/>
<path d="M3.29694 7.50165C4.18385 7.34477 5.08104 7.06415 5.90029 6.69102C6.71954 6.31227 7.47233 5.80852 8.02515 5.1754L8.02817 5.17165C8.25594 4.91102 8.64502 4.8904 8.89696 5.12602C9.1489 5.36165 9.16883 5.76415 8.94106 6.02477C8.92535 6.0429 8.90844 6.05977 8.89152 6.0754C8.09039 6.80602 7.1624 7.26352 6.22533 7.57665C5.75469 7.72977 5.27981 7.85102 4.80131 7.94165C4.31979 8.03165 3.84854 8.09665 3.3495 8.12415C3.18275 8.13352 3.04077 8.00102 3.03171 7.82852C3.02325 7.66852 3.13321 7.5304 3.28244 7.50415L3.29694 7.50165Z" fill="#577526"/>
<path d="M4.22913 11.25C4.22913 9.86937 5.31119 8.75 6.64579 8.75C7.9804 8.75 9.06246 9.86937 9.06246 11.25C9.06246 11.25 7.9804 11.875 6.64579 11.875C5.31119 11.875 4.22913 11.25 4.22913 11.25Z" fill="white"/>
<path d="M7.75992 11.735C7.82033 11.5856 7.85417 11.4219 7.85417 11.25C7.85417 10.5594 7.31344 10 6.64583 10C5.97823 10 5.4375 10.5594 5.4375 11.25C5.4375 11.4219 5.47133 11.5856 5.53175 11.735C5.86646 11.815 6.24165 11.875 6.64583 11.875C7.05002 11.875 7.42521 11.815 7.75992 11.735Z" fill="#212121"/>
<path d="M17.5208 11.25C17.5208 9.86937 16.4388 8.75 15.1042 8.75C13.7696 8.75 12.6875 9.86937 12.6875 11.25C12.6875 11.25 13.7696 11.875 15.1042 11.875C16.4388 11.875 17.5208 11.25 17.5208 11.25Z" fill="white"/>
<path d="M13.9901 11.735C13.9297 11.5856 13.8959 11.4219 13.8959 11.25C13.8959 10.5594 14.4366 10 15.1042 10C15.7718 10 16.3125 10.5594 16.3125 11.25C16.3125 11.4219 16.2787 11.5856 16.2183 11.735C15.8836 11.815 15.5084 11.875 15.1042 11.875C14.7 11.875 14.3248 11.815 13.9901 11.735Z" fill="#212121"/>
<path d="M14.3841 13.8921C14.2149 14.1289 14.033 14.4021 13.8923 14.6708C13.7521 14.9452 13.6258 15.2221 13.5298 15.5114C13.4313 15.7914 13.3757 16.0758 13.3413 16.3789C13.3135 16.6764 13.3002 17.0064 13.3117 17.3096L13.3129 17.3421C13.3177 17.4739 13.2186 17.5846 13.0912 17.5896C13.0005 17.5933 12.9196 17.5421 12.8791 17.4646C12.696 17.1133 12.6042 16.7546 12.5812 16.3683C12.5583 15.9877 12.6096 15.5871 12.7389 15.2233C12.864 14.8677 13.0319 14.5252 13.2639 14.2333C13.4917 13.9346 13.7437 13.6796 14.088 13.4839C14.2077 13.4158 14.3587 13.4608 14.4245 13.5846C14.4729 13.6752 14.4626 13.7821 14.407 13.8602L14.3841 13.8921Z" fill="url(#paint4_radial)"/>
<path d="M4.83337 18.75C6.83541 18.75 8.45837 17.0711 8.45837 15C8.45837 12.9289 6.83541 11.25 4.83337 11.25C2.83134 11.25 1.20837 12.9289 1.20837 15C1.20837 17.0711 2.83134 18.75 4.83337 18.75Z" fill="url(#paint5_radial)"/>
<path d="M7.66204 13.4839C8.00582 13.6802 8.25775 13.9346 8.48613 14.2333C8.71813 14.5252 8.88609 14.8677 9.01115 15.2233C9.14044 15.5864 9.1918 15.9877 9.16884 16.3683C9.14648 16.7546 9.05465 17.1133 8.87098 17.4646C8.81057 17.5808 8.6704 17.6239 8.55863 17.5614C8.47888 17.5171 8.43477 17.4302 8.43779 17.3427L8.439 17.3102C8.45048 17.0071 8.43719 16.6771 8.4094 16.3796C8.37496 16.0758 8.31938 15.7921 8.2209 15.5121C8.12484 15.2227 7.99917 14.9458 7.8584 14.6714C7.71763 14.4033 7.53577 14.1302 7.36661 13.8927L7.34425 13.8614C7.26329 13.7477 7.28625 13.5871 7.39621 13.5033C7.47596 13.4408 7.58048 13.4371 7.66204 13.4839Z" fill="url(#paint6_radial)"/>
<path d="M8.64318 15.8891C9.25641 15.3523 10.0152 15.0298 10.8756 15.0098C11.7353 15.0348 12.4905 15.3591 13.1031 15.8948C13.1968 15.9766 13.2083 16.1216 13.1291 16.2179C13.0735 16.286 12.9877 16.3123 12.9092 16.2935L12.8881 16.2885C12.1915 16.1191 11.5027 15.9335 10.8744 15.9341C10.2466 15.9348 9.5597 16.1223 8.86612 16.2941L8.84437 16.2998C8.72172 16.3304 8.59847 16.2516 8.56887 16.1248C8.54772 16.0348 8.57974 15.9448 8.64318 15.8891Z" fill="url(#paint7_radial)"/>
<defs>
<radialGradient id="paint0_radial" cx="0" cy="0" r="1" gradientUnits="userSpaceOnUse" gradientTransform="translate(10.875 11.25) scale(10.875 11.25)">
<stop offset="0.001" stop-color="#FAFF5E"/>
<stop offset="0.631" stop-color="#AFE35B"/>
<stop offset="0.705" stop-color="#AADE56"/>
<stop offset="0.797" stop-color="#9BD046"/>
<stop offset="0.899" stop-color="#82B92D"/>
<stop offset="0.999" stop-color="#639C0D"/>
</radialGradient>
<radialGradient id="paint1_radial" cx="0" cy="0" r="1" gradientUnits="userSpaceOnUse" gradientTransform="translate(16.9166 15) scale(3.625 3.75)">
<stop stop-color="#FBFFB0" stop-opacity="0.5"/>
<stop offset="0.999" stop-color="#FBFFB0" stop-opacity="0"/>
</radialGradient>
<radialGradient id="paint2_radial" cx="0" cy="0" r="1" gradientUnits="userSpaceOnUse" gradientTransform="translate(10.7773 15.5737) rotate(89.3747) scale(2.01101 1.46954)">
<stop offset="0.299" stop-color="#F6FFC9"/>
<stop offset="0.945" stop-color="#FCFFED" stop-opacity="0"/>
</radialGradient>
<radialGradient id="paint3_radial" cx="0" cy="0" r="1" gradientUnits="userSpaceOnUse" gradientTransform="translate(10.8848 15.779) rotate(180) scale(2.26181 1.66367)">
<stop offset="0.282" stop-color="#608A06"/>
<stop offset="0.926" stop-color="#81B908" stop-opacity="0.102"/>
<stop offset="0.999" stop-color="#85BF08" stop-opacity="0"/>
</radialGradient>
<radialGradient id="paint4_radial" cx="0" cy="0" r="1" gradientUnits="userSpaceOnUse" gradientTransform="translate(13.598 15.5377) scale(1.73094 1.79063)">
<stop stop-color="#1C1911"/>
<stop offset="0.999" stop-color="#171714"/>
</radialGradient>
<radialGradient id="paint5_radial" cx="0" cy="0" r="1" gradientUnits="userSpaceOnUse" gradientTransform="translate(4.83337 15) rotate(180) scale(3.625 3.75)">
<stop stop-color="#FBFFB0" stop-opacity="0.5"/>
<stop offset="0.999" stop-color="#FBFFB0" stop-opacity="0"/>
</radialGradient>
<radialGradient id="paint6_radial" cx="0" cy="0" r="1" gradientUnits="userSpaceOnUse" gradientTransform="translate(8.15202 15.5377) scale(1.73094 1.79063)">
<stop stop-color="#1C1911"/>
<stop offset="0.999" stop-color="#171714"/>
</radialGradient>
<radialGradient id="paint7_radial" cx="0" cy="0" r="1" gradientUnits="userSpaceOnUse" gradientTransform="translate(10.872 15.7799) scale(1.89285 1.77759)">
<stop stop-color="#1C1911"/>
<stop offset="0.999" stop-color="#171714"/>
</radialGradient>
</defs>
</svg>
