<svg xmlns="http://www.w3.org/2000/svg" width="26" height="26" viewBox="0 0 26 26">
  <g id="gear-icon2" transform="translate(-2.8 -2.08)">
    <g id="Group_2213" data-name="Group 2213" transform="translate(3.3 2.58)">
      <g id="Group_2212" data-name="Group 2212">
        <path id="Path_2577" data-name="Path 2577" d="M17.725,2.58l.025.006h.025l.019.006.025.006.019.012.019.006.025.012.019.012.019.012.019.012.012.012.019.019.019.012L18,2.73l.019.019.012.019.019.019.012.019.013.025.019.025.013.019.013.025.012.025.013.025.013.025L18.169,3l.012.031.012.025.006.031.013.025.012.031.013.031.006.031.012.031.013.031.012.031.006.031.013.031.538,2.027.175.056.375.131.362.15.362.156.356.175.025.019,1.825-1.054L22.35,5l.031-.012.025-.019.031-.012.031-.012.025-.012.031-.012L22.55,4.9l.031-.012.031-.006.025-.012.025-.012.031-.012.025-.006.025-.012.031-.006.025-.006.025-.006L22.85,4.8l.025-.006.025-.006h.025l.025-.006h.119l.019.006.025.006.019.006.025.006.019.006.019.006.025.012.019.012.019.012.019.019.019.012.019.019,2.65,2.65.019.019L26,7.594l.013.019.013.025.013.019.013.019.012.025.006.019.006.025.006.019.006.025.006.025v.019l.006.025V7.93l-.006.025V7.98l-.006.025-.006.025-.006.025-.006.031-.006.025-.006.025-.012.025-.006.031-.013.025-.006.025-.012.031-.013.025-.012.031-.019.025-.012.031-.013.025-.019.031-.012.025-.019.031-.019.025-.013.031L24.8,10.369l.025.044.169.349.162.362.15.368.131.374.05.175,2.031.536.031.012.031.006.031.006.031.012.031.006.031.006.031.012.025.012.031.006.031.012.025.012.025.012.031.012.025.006.025.019.025.012.025.012.019.012.025.012.019.019.025.012.019.019.019.012.019.019.019.019.013.019.019.019.013.019.012.019.013.019.013.019.012.019.006.025.006.019.006.025.006.025.006.025v.019l.006.025v3.8L28.294,17v.025l-.006.025-.006.019-.006.025-.006.019-.006.019-.012.025-.013.019-.013.019-.012.019-.013.019-.019.012-.013.019-.019.019-.019.012-.019.019-.019.012-.025.012-.019.019-.025.012-.019.012-.025.012-.025.012-.025.012-.025.012-.031.012-.025.012-.025.012-.031.012-.031.006-.025.012-.031.012-.031.012-.031.006-.031.012-.031.012-.031.006-.031.012-2.031.543-.05.168-.131.374-.15.368-.162.362-.169.355-.025.031L25.856,21.6l.013.025.019.031.019.025.012.031.019.025.013.031.012.025.019.031.012.025.013.025.012.031.006.025.013.031.006.025.012.025.006.025.006.031.006.025.006.025.006.025.006.025v.025l.006.025v.075l-.006.025v.025l-.006.019-.006.025-.006.025-.006.019-.006.025-.012.019-.013.019-.013.025-.013.019L26,22.554l-.019.019-.019.019-2.65,2.65-.019.019-.019.019-.019.012-.019.012-.019.012-.025.012-.019.006-.019.012-.025.006-.019.006h-.025l-.019.006h-.05L23,25.372l-.025-.006h-.05L22.9,25.36l-.025-.006H22.85l-.025-.006-.025-.006-.025-.012-.031-.006-.025-.006-.025-.012-.031-.012-.025-.006-.025-.012-.031-.012-.031-.012-.025-.012-.031-.012-.025-.019-.031-.012-.031-.012-.025-.019-.031-.012-.031-.012L20.5,24.082l-.031.019-.356.175-.362.162-.362.15-.375.131-.175.05L18.3,26.794l-.013.037-.006.031-.012.031-.013.031-.012.031-.006.031-.013.025-.012.031-.013.031-.006.025-.012.031-.012.025-.013.025-.013.025-.013.025-.012.025-.013.025-.013.025-.019.025-.013.019-.012.019-.019.025-.012.019L18,27.43l-.013.012-.019.019-.019.012-.012.019-.019.012-.019.012-.019.012-.025.006-.019.012-.019.006-.025.006-.019.006-.025.006h-.025l-.025.006H13.9l-.025-.006H13.85l-.025-.006-.025-.006-.019-.006-.025-.006-.019-.012-.025-.006-.019-.012-.019-.012-.019-.012-.019-.019-.019-.012-.019-.019-.019-.012-.012-.019-.019-.019-.013-.025-.019-.019-.013-.019-.012-.025-.019-.025-.013-.025-.012-.025-.012-.025-.012-.025-.013-.025-.013-.025-.006-.031-.013-.025-.013-.031-.006-.031-.013-.025-.006-.031-.013-.031-.006-.031-.013-.031-.006-.031-.006-.037-.544-2.027-.169-.05-.375-.131-.369-.15-.356-.162-.356-.175-.044-.025L9.281,25.123l-.031.019-.025.019-.031.012-.025.019-.031.012-.025.019-.031.012-.025.012-.025.012L9,25.273l-.025.012-.031.012-.025.012-.025.006-.031.012-.025.006-.025.006-.025.006-.025.006-.031.006-.025.006h-.05l-.025.006H8.606l-.019-.006h-.05l-.025-.006-.019-.006-.025-.006-.019-.006-.025-.012-.019-.006-.025-.012L8.363,25.3l-.019-.012-.019-.019-.019-.012-.019-.019-2.65-2.65-.019-.019L5.6,22.548l-.013-.019-.012-.019-.013-.025-.012-.019-.006-.019-.013-.025L5.525,22.4l-.006-.019-.006-.025v-.044l-.006-.025v-.05l.006-.019V22.2l.006-.025v-.025l.006-.025.006-.025.006-.031.013-.025.006-.025.006-.025.013-.031.012-.025.006-.025.012-.031.013-.025.013-.031.013-.031.012-.025.013-.031.019-.025.013-.031.013-.031.019-.031.012-.031,1.05-1.808-.019-.031L6.6,19.392l-.156-.362-.15-.368-.131-.374-.056-.168-2.025-.543-.031-.012-.031-.006-.031-.012-.031-.012-.031-.006-.031-.012L3.862,17.5l-.031-.012-.025-.006-.031-.012-.025-.012-.031-.012-.025-.012-.025-.012-.025-.012L3.619,17.4l-.025-.012-.019-.012-.025-.012-.019-.019-.025-.012-.019-.012L3.469,17.3l-.019-.012-.019-.019-.013-.019L3.4,17.235l-.012-.019L3.375,17.2l-.012-.019L3.35,17.16l-.013-.025-.006-.019L3.325,17.1l-.012-.025v-.019l-.006-.025L3.3,17V13.15l.006-.019.006-.025v-.025l.012-.025.006-.019.006-.025.013-.019.013-.019.012-.019.013-.019.012-.019.019-.019.013-.019.019-.019.019-.019.019-.012.019-.019.025-.012.019-.019.025-.012.019-.012.025-.012.025-.012.025-.019.025-.006.025-.012.031-.012.025-.012.031-.012.025-.006.031-.012.031-.012.031-.006.031-.006.031-.012.031-.006.031-.006.031-.012,2.025-.536.056-.175.131-.374.15-.368.156-.362.175-.349.019-.037L5.744,8.56l-.012-.031L5.713,8.5,5.7,8.467l-.013-.025-.019-.031-.013-.031-.012-.025-.013-.031L5.619,8.3l-.013-.031-.012-.025-.006-.031-.012-.025-.013-.025L5.556,8.13,5.55,8.105,5.537,8.08l-.006-.025L5.525,8.03l-.006-.025V7.98l-.006-.025V7.93l-.006-.025v-.05l.006-.019v-.05l.006-.019.006-.025.006-.019L5.544,7.7l.006-.019.012-.019.013-.019.012-.019L5.6,7.6l.019-.019.019-.019,2.65-2.65.019-.019.019-.012.019-.019.019-.012.019-.012.025-.012.019-.006.025-.012L8.469,4.8l.025-.006.019-.006h.025l.025-.006h.119l.025.006h.025l.031.006.025.006.025.006.025.006.025.012.031.006.025.006.025.012.031.012L9,4.875l.031.012.025.012.025.012.031.012.025.019.031.012.025.019.031.012.025.019.031.019,1.813,1.054.037-.025.356-.175.356-.156.369-.15.375-.131.169-.056L13.3,3.359l.006-.031.006-.031.013-.031.006-.031.013-.031.006-.031.013-.031.006-.031.013-.025.013-.031.006-.025L13.413,3l.013-.025.012-.025.012-.025.012-.025.013-.025.019-.019.012-.025.013-.025.019-.019.013-.019.019-.019.012-.019.019-.019.019-.012.019-.019.019-.012.019-.012.019-.012.019-.012.025-.012.019-.006.025-.012.019-.006.025-.006h.025l.025-.006h3.85ZM15.35,9.627l-.219.025-.219.031L14.7,9.72l-.212.05-.212.056-.206.062-.2.069-.2.081-.194.087-.187.094-.188.1-.181.112-.175.112-.175.118-.169.131-.163.131-.156.143-.15.143-.144.15-.137.162-.137.156-.125.168-.125.175-.113.175-.106.181-.1.187-.094.193-.088.193-.081.2-.069.2-.069.206-.056.206-.044.212-.044.218-.031.218-.019.218-.012.224-.006.224.006.224.012.224.019.224.031.212.044.218.044.212.056.206.069.206.069.206.081.2.088.193.094.187.1.187.106.181.113.181.125.168.125.168.137.162.137.156.144.15.15.15.156.137.163.137.169.125.175.118.175.118.181.106.188.1.187.094.194.087.2.081.2.069.206.069.212.056.212.044.212.044.219.031.219.019.225.012.225.006.225-.006.225-.012.219-.019.219-.031.212-.044.213-.044.212-.056.2-.069.206-.069.194-.081.2-.087.188-.094.188-.1.181-.106.175-.118.175-.118.163-.125.163-.137.156-.137.156-.15.144-.15.138-.156.137-.162.125-.168.119-.168.119-.181.106-.181.1-.187.094-.187.088-.193.081-.2.069-.206.069-.206.05-.206.05-.212.038-.218.031-.212.025-.224.013-.224.006-.224-.006-.224-.013-.224-.025-.218-.031-.218-.038-.218-.05-.212-.05-.206-.069-.206-.069-.2-.081-.2-.088-.193-.094-.193-.1-.187L20.45,12.2l-.119-.175-.119-.175-.125-.168-.137-.156-.138-.162-.144-.15-.156-.143-.156-.143-.163-.131-.163-.131-.175-.118-.175-.112-.181-.112-.187-.1-.188-.094-.2-.087-.194-.081-.206-.069-.2-.062-.212-.056L16.9,9.72l-.212-.037-.219-.031-.219-.025-.225-.012L15.8,9.608l-.225.006Z" transform="translate(-3.3 -2.58)"  stroke-width="1"/>
      </g>
    </g>
  </g>
</svg>
