<svg width="26" height="14" viewBox="0 0 26 14" fill="none" xmlns="http://www.w3.org/2000/svg">
<path d="M2.45372 6.65427C2.45557 5.59397 2.8776 4.57763 3.62734 3.82788C4.37709 3.07814 5.39343 2.65612 6.45372 2.65427H11.6187V0.197266H6.45672C4.75827 0.218404 3.13655 0.907944 1.94297 2.11648C0.749384 3.32501 0.0800781 4.95518 0.0800781 6.65377C0.0800781 8.35235 0.749384 9.98252 1.94297 11.1911C3.13655 12.3996 4.75827 13.0891 6.45672 13.1103H11.6217V10.6573H6.45672C5.39539 10.6562 4.37782 10.2341 3.62735 9.48364C2.87687 8.73317 2.45478 7.7156 2.45372 6.65427V6.65427ZM7.74772 7.94527H18.0777V5.36227H7.74772V7.94527ZM19.3697 0.197266H14.1997V2.65127H19.3697C19.8954 2.65127 20.4159 2.75481 20.9016 2.95598C21.3873 3.15715 21.8286 3.452 22.2003 3.82372C22.572 4.19543 22.8668 4.63672 23.068 5.12238C23.2692 5.60805 23.3727 6.12858 23.3727 6.65427C23.3727 7.17995 23.2692 7.70048 23.068 8.18615C22.8668 8.67181 22.572 9.1131 22.2003 9.48481C21.8286 9.85653 21.3873 10.1514 20.9016 10.3526C20.4159 10.5537 19.8954 10.6573 19.3697 10.6573H14.1997V13.1113H19.3697C21.0822 13.1113 22.7246 12.431 23.9355 11.2201C25.1464 10.0091 25.8267 8.36677 25.8267 6.65427C25.8267 4.94176 25.1464 3.2994 23.9355 2.08848C22.7246 0.877555 21.0822 0.197266 19.3697 0.197266V0.197266Z" fill="#8A88C3"/>
</svg>
