<svg id="Grupo_3494" data-name="Grupo 3494" xmlns="http://www.w3.org/2000/svg" width="24" height="16.26" viewBox="0 0 24 16.26">
  <path id="Trazado_3237" data-name="Trazado 3237" d="M12.261,289.988a3.874,3.874,0,1,0,4,3.875A3.951,3.951,0,0,0,12.261,289.988Zm-6.4,4.647a2.323,2.323,0,1,0,0,4.644,2.323,2.323,0,1,0,0-4.644Zm12.8,0a2.323,2.323,0,1,0,2.4,2.321,2.362,2.362,0,0,0-2.4-2.321Zm-6.4,3.87A9.008,9.008,0,0,0,7.419,299.8a4.874,4.874,0,0,0-2.356,4.125,2.379,2.379,0,0,0,2.4,2.325h9.6a2.379,2.379,0,0,0,2.4-2.325A4.874,4.874,0,0,0,17.11,299.8a9.03,9.03,0,0,0-4.848-1.291Zm-7.486,1.64a7.755,7.755,0,0,0-2.269.667,3.57,3.57,0,0,0-2.242,3.111,2.374,2.374,0,0,0,2.4,2.322H4.3a3.741,3.741,0,0,1-.839-2.324,6.239,6.239,0,0,1,1.312-3.776Zm14.981,0a6.238,6.238,0,0,1,1.311,3.773,3.739,3.739,0,0,1-.841,2.326h1.638a2.374,2.374,0,0,0,2.4-2.322,3.57,3.57,0,0,0-2.242-3.111,7.752,7.752,0,0,0-2.266-.667Z" transform="translate(-0.265 -289.988)" fill-rule="evenodd"/>
</svg>
