<svg xmlns="http://www.w3.org/2000/svg" width="73.4" height="73.9" viewBox="0 0 73.4 73.9">
  <g id="humburger-menu" transform="translate(73.4 86.9) rotate(180)">
    <path id="Path_2579" data-name="Path 2579" d="M19.1,44.5H63.9A5.549,5.549,0,0,1,69.4,50h0a5.549,5.549,0,0,1-5.5,5.5H19A5.549,5.549,0,0,1,13.5,50h0A5.569,5.569,0,0,1,19.1,44.5Z" transform="translate(3.772)"/>
    <path id="Path_2580" data-name="Path 2580" d="M19,13H44.4a5.549,5.549,0,0,1,5.5,5.5h0A5.549,5.549,0,0,1,44.4,24H19a5.549,5.549,0,0,1-5.5-5.5h0A5.549,5.549,0,0,1,19,13Z" transform="translate(23.204)"/>
    <path id="Path_2581" data-name="Path 2581" d="M19.1,75.9H81.4a5.549,5.549,0,0,1,5.5,5.5h0a5.549,5.549,0,0,1-5.5,5.5H19a5.549,5.549,0,0,1-5.5-5.5h0A5.636,5.636,0,0,1,19.1,75.9Z" transform="translate(-13.5)"/>
  </g>
</svg>
