<svg xmlns="http://www.w3.org/2000/svg" width="19" height="19" viewBox="0 0 19 19">
  <path id="Union_43" data-name="Union 43" d="M5.151,18.33A8.406,8.406,0,0,1,2.47,16.5,8.537,8.537,0,0,1,0,10.479H1.648A6.861,6.861,0,0,0,5.822,16.8a6.754,6.754,0,0,0,1.642.464V6.714A3.417,3.417,0,0,1,5.307,4.762,3.448,3.448,0,0,1,6.035,1,3.384,3.384,0,0,1,7.113.269a3.374,3.374,0,0,1,2.641,0A3.381,3.381,0,0,1,10.833,1a3.448,3.448,0,0,1,0,4.848,3.384,3.384,0,0,1-1.078.735q-.078.034-.158.063v10.6a6.807,6.807,0,0,0,3.717-1.918,6.845,6.845,0,0,0,2-4.847h1.551A8.538,8.538,0,0,1,14.4,16.5a8.4,8.4,0,0,1-2.681,1.826,8.379,8.379,0,0,1-6.565,0Zm1.441-14.9A1.842,1.842,0,1,0,8.434,1.567,1.853,1.853,0,0,0,6.592,3.428Z" transform="translate(1.067)"/>
  <ellipse id="Ellipse_319" data-name="Ellipse 319" cx="1.793" cy="1.812" rx="1.793" ry="1.812" transform="translate(15.414 9.01)"/>
  <ellipse id="Ellipse_320" data-name="Ellipse 320" cx="1.793" cy="1.812" rx="1.793" ry="1.812" transform="translate(0 9.01)"/>
</svg>
