<svg width="20" height="22" viewBox="0 0 20 22" fill="none" xmlns="http://www.w3.org/2000/svg">
<path d="M1.539 12.3467C1.23286 12.1718 0.978412 11.919 0.801437 11.6141C0.624461 11.3091 0.53125 10.9628 0.53125 10.6102C0.53125 10.2576 0.624461 9.9113 0.801437 9.60634C0.978412 9.30139 1.23286 9.04864 1.539 8.87371L16.508 0.320707C16.8121 0.14699 17.1565 0.056182 17.5068 0.0573654C17.857 0.0585488 18.2008 0.151683 18.5037 0.327452C18.8066 0.50322 19.0581 0.755458 19.233 1.05893C19.4078 1.3624 19.4999 1.70647 19.5 2.05671V19.1647C19.4999 19.5149 19.4078 19.859 19.233 20.1625C19.0581 20.466 18.8066 20.7182 18.5037 20.894C18.2008 21.0697 17.857 21.1629 17.5068 21.1641C17.1565 21.1652 16.8121 21.0744 16.508 20.9007L1.539 12.3467Z" fill="#585286"/>
</svg>
