<svg xmlns="http://www.w3.org/2000/svg" width="68.294" height="109.328" viewBox="0 0 68.294 109.328">
  <g id="Microphone-icon2" transform="translate(-15.853 9.788)">
    <path id="Path_2583" data-name="Path 2583" d="M20.847,48.121a2.5,2.5,0,1,0-4.989.339A34.293,34.293,0,0,0,47.5,79.933V92.5a2.5,2.5,0,1,0,5,0V79.933A34.293,34.293,0,0,0,84.141,48.459a2.5,2.5,0,0,0-4.989-.339,29.246,29.246,0,0,1-58.305,0Z" transform="translate(0 4.541)"/>
    <path id="Path_2584" data-name="Path 2584" d="M70.245,57.676V31.145C70.245,16.705,61.181,5,50,5S29.756,16.705,29.756,31.145V57.676c0,14.439,9.064,26.145,20.245,26.145S70.245,72.115,70.245,57.676Z" transform="translate(0 -14.788)"/>
  </g>
</svg>
