<svg xmlns="http://www.w3.org/2000/svg" width="874.62" height="863.005" viewBox="0 0 874.62 863.005">
  <g id="moon-stars-icon" transform="matrix(-0.454, -0.891, 0.891, -0.454, 287.202, 863.006)">
    <g id="Group_2214" data-name="Group 2214">
      <path id="Path_2578" data-name="Path 2578" d="M-.01,329.62c0,182.05,147.59,329.65,329.65,329.65,135.91,0,252.59-82.26,303.02-199.69a277.692,277.692,0,0,1-191.33,76.08c-153.91,0-278.67-124.77-278.67-278.68,0-115.59,70.37-214.73,170.6-256.94C149.73-1.83-.01,146.01-.01,329.64Zm424.3-123.75,29.21,90.49,95.1-.18-77.04,55.74,29.56,90.39-76.83-56.05-76.82,56.05,29.56-90.39-77.04-55.74,95.09.18,29.21-90.49ZM331.21,103.4l16.95,52.5,55.16-.11-44.69,32.34,17.15,52.42-44.57-32.5-44.56,32.5,17.15-52.42-44.69-32.34,55.16.11Z" fill="#f3e310" fill-rule="evenodd"/>
    </g>
  </g>
</svg>
