<svg width="51.48" height="75.67" enable-background="new 0 0 100 100" version="1.0" viewBox="0 0 51.48 75.67" xml:space="preserve" xmlns="http://www.w3.org/2000/svg"><path d="m0 24.04v27.59c0 13.25 10.78 24.04 24.04 24.04h3.406c13.25 0 24.04-10.78 24.04-24.04v-27.59c0-13.25-10.78-24.04-24.04-24.04h-3.406c-13.25 0-24.04 10.78-24.04 24.04zm28.07-3.757v10.95c0 0.61-0.515 1.125-1.125 1.125h-3.355c-0.609 0-1.125-0.515-1.125-1.125v-10.95c0-0.61 0.516-1.125 1.125-1.125h3.355c0.61 0 1.125 0.515 1.125 1.125zm18.4 3.697h-13.4v-3.696c0-3.098-2.314-5.659-5.303-6.063h-2.032v-9.2h2.032c10.32 0.177 18.67 8.601 18.7 18.96zm-41.48 27.65v-22.65h12.47v2.254c0 3.377 2.748 6.125 6.125 6.125h3.355c3.377 0 6.125-2.748 6.125-6.125v-2.254h13.4v22.65c0 10.5-8.54 19.04-19.04 19.04h-3.406c-10.5 0-19.04-8.54-19.04-19.04z"/></svg>
