<svg width="21" height="24" viewBox="0 0 21 24" fill="none" xmlns="http://www.w3.org/2000/svg">
<path d="M7.95358 21.7268C7.95358 22.3149 8.18721 22.8789 8.60307 23.2948C9.01893 23.7107 9.58296 23.9443 10.1711 23.9443C10.7592 23.9443 11.3232 23.7107 11.7391 23.2948C12.1549 22.8789 12.3886 22.3149 12.3886 21.7268H7.95358ZM17.8426 17.0578V10.5728C17.8427 8.84722 17.2602 7.17214 16.1893 5.81904C15.1185 4.46594 13.622 3.5141 11.9426 3.1178V2.3178C11.9316 1.85525 11.7401 1.41535 11.4091 1.0921C11.0781 0.768852 10.6338 0.587891 10.1711 0.587891C9.7084 0.587891 9.26408 0.768852 8.93306 1.0921C8.60203 1.41535 8.41057 1.85525 8.39958 2.3178V3.1178C6.72105 3.51507 5.22576 4.46732 4.15588 5.82033C3.08599 7.17335 2.50415 8.84789 2.50458 10.5728V17.0578L0.142578 19.4198V20.6008H20.1996V19.4198L17.8426 17.0578ZM14.6336 12.8128H11.2856V16.1558H9.05658V12.8118H5.71458V10.5718H9.05758V7.2298H11.2866V10.5728H14.6296L14.6336 12.8128Z" fill="#F1205F"/>
</svg>
