<svg width="27" height="17" viewBox="0 0 27 17" fill="none" xmlns="http://www.w3.org/2000/svg">
<path d="M18.214 7.286C18.9345 7.286 19.6389 7.07234 20.2379 6.67205C20.837 6.27175 21.304 5.70279 21.5797 5.03712C21.8554 4.37145 21.9276 3.63896 21.787 2.93229C21.6464 2.22561 21.2995 1.57649 20.79 1.06701C20.2805 0.557529 19.6314 0.210567 18.9247 0.0700008C18.218 -0.0705651 17.4856 0.0015786 16.8199 0.277309C16.1542 0.553039 15.5853 1.01997 15.185 1.61906C14.7847 2.21815 14.571 2.92248 14.571 3.643C14.569 4.12196 14.6619 4.59658 14.8443 5.03946C15.0266 5.48235 15.2949 5.88474 15.6336 6.22342C15.9723 6.5621 16.3747 6.83036 16.8175 7.01274C17.2604 7.19511 17.735 7.28799 18.214 7.286V7.286ZM8.5 7.286C9.22052 7.286 9.92485 7.07234 10.5239 6.67205C11.123 6.27175 11.59 5.70279 11.8657 5.03712C12.1414 4.37145 12.2136 3.63896 12.073 2.93229C11.9324 2.22561 11.5855 1.57649 11.076 1.06701C10.5665 0.557529 9.91739 0.210567 9.21071 0.0700008C8.50404 -0.0705651 7.77156 0.0015786 7.10588 0.277309C6.44021 0.553039 5.87125 1.01997 5.47096 1.61906C5.07066 2.21815 4.857 2.92248 4.857 3.643C4.85502 4.12196 4.94789 4.59658 5.13027 5.03946C5.31264 5.48235 5.58091 5.88474 5.91959 6.22342C6.25826 6.5621 6.66065 6.83036 7.10354 7.01274C7.54642 7.19511 8.02104 7.28799 8.5 7.286V7.286ZM8.5 9.715C5.671 9.715 0 11.136 0 13.965V17H17V13.964C17 11.135 11.329 9.714 8.5 9.714V9.715ZM18.214 9.715C17.862 9.715 17.461 9.739 17.036 9.776C17.748 10.2242 18.3386 10.8408 18.7558 11.5714C19.173 12.302 19.4038 13.1241 19.428 13.965V17H26.714V13.964C26.714 11.135 21.044 9.714 18.214 9.714V9.715Z" fill="#3F3B60"/>
</svg>
