<svg xmlns="http://www.w3.org/2000/svg" width="44.319" height="44.32" viewBox="0 0 44.319 44.32">
  <g id="Plus-icon" transform="translate(-1.84 -1.84)">
    <g id="Layer_20" data-name="Layer 20">
      <path id="Path_2587" data-name="Path 2587" d="M36.61,1.84H11.39A9.56,9.56,0,0,0,1.84,11.39V36.61a9.56,9.56,0,0,0,9.549,9.55H36.61a9.56,9.56,0,0,0,9.549-9.55V11.39A9.56,9.56,0,0,0,36.61,1.84ZM44.16,36.61a7.558,7.558,0,0,1-7.549,7.55H11.39A7.558,7.558,0,0,1,3.84,36.61V11.39A7.558,7.558,0,0,1,11.39,3.84H36.61a7.558,7.558,0,0,1,7.549,7.55Z"/>
      <path id="Path_2588" data-name="Path 2588" d="M37.946,23.694H25V10.748a1,1,0,1,0-2,0V23.694H10.054a1,1,0,1,0,0,2H23V38.641a1,1,0,0,0,2,0V25.694H37.946a1,1,0,0,0,0-2Z"/>
    </g>
  </g>
</svg>
