<svg width="8.08mm" height="8.08mm" version="1.1" viewBox="0 0 8.08 8.08" xmlns="http://www.w3.org/2000/svg">
 <g transform="translate(-69.43 -129.9)">
  <g transform="matrix(.2646 0 0 .2646 69.24 129.7)">
   <g data-name="Layer 11">
    <path d="m16 0.73a15.27 15.27 0 1 0 15.27 15.27 15.27 15.27 0 0 0-15.27-15.27zm9.09 4.41 1.53 3.57-1.53 0.35-1.21-3.06-4.69-1.24-1.59-1.95zm-18.46 17.11-2.71-3.54 2.08-4 2.6 3.23 0.67 4.75zm7.37 4.37-1.18-1.18 1.6-1 1.58 1.56zm0.16-3.91s-1-2.78-0.83-3 1.67-3.46 1.67-3.46l-1.67-3.82-3.68-1.6-1.05-2.49 3.19-3.19 9.16 2.36s3.4 4.65 3.4 5.07a50.77 50.77 0 0 1-1.6 6.59c-0.28 0.28-4.3 3.54-4.3 3.54zm9.42 3.5h-2.72l-0.49-2 4.37-1.49 0.49-3.51 2.15 4.16z"/>
    <path d="m16 0.73a15.27 15.27 0 1 0 15.27 15.27 15.27 15.27 0 0 0-15.27-15.27zm9.09 4.41 1.53 3.57-1.53 0.35-1.21-3.06-4.69-1.24-1.59-1.95zm-18.46 17.11-2.71-3.54 2.08-4 2.6 3.23 0.67 4.75zm7.37 4.37-1.18-1.18 1.6-1 1.58 1.56zm0.16-3.91s-1-2.78-0.83-3 1.67-3.46 1.67-3.46l-1.67-3.82-3.68-1.6-1.05-2.49 3.19-3.19 9.16 2.36s3.4 4.65 3.4 5.07a50.77 50.77 0 0 1-1.6 6.59c-0.28 0.28-4.3 3.54-4.3 3.54zm9.42 3.5h-2.72l-0.49-2 4.37-1.49 0.49-3.51 2.15 4.16z"/>
   </g>
  </g>
 </g>
</svg>
