<svg width="29" height="29" viewBox="0 0 29 29" fill="none" xmlns="http://www.w3.org/2000/svg">
<path d="M20.5271 4.89426C18.5851 3.78746 16.3607 3.27587 14.1304 3.42312C11.9 3.57037 9.76216 4.36995 7.9826 5.72245C6.20303 7.07495 4.86027 8.9207 4.12127 11.0302C3.38227 13.1397 3.27963 15.4199 3.82612 17.5872C4.21907 19.019 4.89026 20.3592 5.80136 21.5314C6.71245 22.7037 7.84558 23.6849 9.13602 24.419C10.4265 25.1532 11.8489 25.6259 13.3221 25.8101C14.7953 25.9943 16.2903 25.8865 17.7218 25.4927C20.1462 24.853 22.2901 23.4275 23.818 21.4393C25.3459 19.4512 26.1716 17.0126 26.1657 14.5052L23.3092 15.271C23.1325 17.2619 22.264 19.128 20.8547 20.5453C19.4454 21.9625 17.5842 22.8415 15.5944 23.0295C13.6046 23.2176 11.6117 22.7028 9.96187 21.5746C8.31202 20.4464 7.1094 18.776 6.5628 16.8535C6.14658 15.2284 6.21928 13.5167 6.77179 11.9328C7.3243 10.3488 8.33205 8.96325 9.66871 7.94964C11.0054 6.93604 12.6115 6.33952 14.2857 6.23487C15.96 6.13021 17.6279 6.52206 19.0804 7.36131L15.8234 12.9168L25.4496 10.3359L22.9039 0.841074L20.5271 4.89426Z" fill="#9103F0"/>
</svg>
