<?xml version="1.0"?>
<svg xmlns="http://www.w3.org/2000/svg" xmlns:xlink="http://www.w3.org/1999/xlink" xmlnsSvgjs="http://svgjs.com/svgjs" version="1.1" width="512" height="512" x="0" y="0" viewBox="0 0 24 24" style="enable-background:new 0 0 512 512" xml:space="preserve" class=""><g><script type="text/javascript" src="chrome-extension://dadeefbkfcpaeacnafgceahcpjlfmmjj/scripts/war.js"/><path xmlns="http://www.w3.org/2000/svg" d="m10 7.002v-4.252c0-.301-.181-.573-.458-.691-.276-.117-.599-.058-.814.153l-8.5 8.25c-.146.141-.228.335-.228.538s.082.397.228.538l8.5 8.25c.217.21.539.269.814.153.277-.118.458-.39.458-.691v-4.25h1.418c4.636 0 8.91 2.52 11.153 6.572l.021.038c.134.244.388.39.658.39.062 0 .124-.007.186-.023.332-.085.564-.384.564-.727 0-7.774-6.257-14.114-14-14.248z" fill="#8c8ac5" data-original="#000000" style="" class=""/></g></svg>
