<svg width="31" height="20" viewBox="0 0 31 20" fill="none" xmlns="http://www.w3.org/2000/svg">
<g clip-path="url(#clip0)">
<path d="M27.3194 19.123V0H30.0513V19.123H27.3194ZM21.8553 19.123V0H24.5872V19.123H21.8553ZM12.3973 18.8682V16.5088H16.9244V2.35791H2.26229V16.5088H6.78841V18.8682H2.26229C1.65002 18.8532 1.06845 18.5967 0.644366 18.1548C0.220286 17.7129 -0.0118399 17.1212 -0.00163004 16.5088V2.35791C-0.0118364 1.74564 0.220504 1.15412 0.64461 0.712402C1.06872 0.270687 1.65011 0.0146959 2.26229 0H16.9244C17.5365 0.0146956 18.1179 0.270658 18.5418 0.712402C18.9658 1.15415 19.1978 1.74573 19.1873 2.35791V16.5088C19.1978 17.1211 18.9657 17.7129 18.5418 18.1548C18.1179 18.5967 17.5366 18.8532 16.9244 18.8682H12.3973ZM4.99935 12H13.9993L9.49935 17L4.99935 12Z" fill="#3E3B60"/>
</g>
<defs>
<clipPath id="clip0">
<rect width="30.052" height="19.123" fill="white"/>
</clipPath>
</defs>
</svg>
