<?xml version="1.0" encoding="UTF-8"?>
<svg width="16.95" height="16.517" version="1.1" viewBox="0 0 1.3887 1.4421" xmlns="http://www.w3.org/2000/svg">
 <style/>
 <g transform="translate(-12.878 -47.395)">
  <path d="m13.803 47.556c0.18747 0.19468 0.2072 0.50206 0.0592 0.71723l0.40453 0.42009-0.13813 0.14345-0.40453-0.42009c-0.2072 0.15369-0.5032 0.1332-0.69067-0.06148-0.2072-0.21517-0.2072-0.57378 0-0.7992 0.21707-0.21517 0.5624-0.21517 0.7696 0zm-0.0888 0.09221c0.16773 0.17418 0.16773 0.45083 0 0.61477-0.15787 0.17418-0.42427 0.17418-0.592 0-0.15787-0.16394-0.15787-0.44058 0-0.61477 0.16773-0.16394 0.43413-0.16394 0.592 0z" fill-rule="evenodd"/>
 </g>
</svg>
