<svg width="20" height="21" viewBox="0 0 20 21" fill="none" xmlns="http://www.w3.org/2000/svg">
<path d="M14.24 5.87084C13.6842 5.31237 13.0235 4.86936 12.2958 4.5673C11.5681 4.26524 10.7879 4.11011 10 4.11084V10.1108L5.76 14.3508C6.3093 14.9403 6.9717 15.4132 7.7077 15.7411C8.44369 16.069 9.2382 16.2454 10.0438 16.2596C10.8494 16.2738 11.6497 16.1256 12.3968 15.8238C13.1439 15.5221 13.8226 15.0729 14.3923 14.5031C14.9621 13.9334 15.4112 13.2547 15.713 12.5076C16.0148 11.7605 16.163 10.9603 16.1487 10.1547C16.1345 9.34904 15.9582 8.55453 15.6303 7.81853C15.3023 7.08254 14.8295 6.42014 14.24 5.87084V5.87084ZM10 0.11084C8.02219 0.11084 6.08879 0.69733 4.4443 1.79614C2.79981 2.89496 1.51809 4.45674 0.761209 6.28401C0.00433284 8.11127 -0.193701 10.1219 0.192152 12.0617C0.578004 14.0016 1.53041 15.7834 2.92894 17.1819C4.32746 18.5804 6.10929 19.5328 8.0491 19.9187C9.98891 20.3045 11.9996 20.1065 13.8268 19.3496C15.6541 18.5928 17.2159 17.311 18.3147 15.6665C19.4135 14.0221 20 12.0887 20 10.1108C20 8.79762 19.7413 7.49726 19.2388 6.28401C18.7363 5.07075 17.9997 3.96836 17.0711 3.03977C16.1425 2.11119 15.0401 1.37459 13.8268 0.872045C12.6136 0.369498 11.3132 0.11084 10 0.11084V0.11084ZM10 18.1108C8.41775 18.1108 6.87104 17.6416 5.55544 16.7626C4.23985 15.8835 3.21447 14.6341 2.60897 13.1723C2.00347 11.7105 1.84504 10.102 2.15372 8.55012C2.4624 6.99827 3.22433 5.57281 4.34315 4.45399C5.46197 3.33517 6.88743 2.57324 8.43928 2.26456C9.99113 1.95588 11.5997 2.1143 13.0615 2.7198C14.5233 3.3253 15.7727 4.35068 16.6518 5.66628C17.5308 6.98187 18 8.52859 18 10.1108C18 12.2326 17.1572 14.2674 15.6569 15.7677C14.1566 17.268 12.1217 18.1108 10 18.1108V18.1108Z" fill="#8A88C3"/>
</svg>
