<svg xmlns="http://www.w3.org/2000/svg" xmlns:xlink="http://www.w3.org/1999/xlink" width="26.503" height="28.93" viewBox="0 0 26.503 28.93">
  <defs>
    <radialGradient id="radial-gradient" cx="0.5" cy="0.5" r="0.876" gradientTransform="translate(0 -0.011) scale(1 1.022)" gradientUnits="objectBoundingBox">
      <stop offset="0" stop-color="#fffd44"/>
      <stop offset="1" stop-color="#ffd429"/>
    </radialGradient>
    <radialGradient id="radial-gradient-2" cx="0.5" cy="0.5" r="0.5" gradientTransform="translate(0 0)" gradientUnits="objectBoundingBox">
      <stop offset="0" stop-color="#ffd429" stop-opacity="0"/>
      <stop offset="0.426" stop-color="#ffd429" stop-opacity="0"/>
      <stop offset="0.73" stop-color="#ffd429"/>
      <stop offset="1" stop-color="#ffd429"/>
    </radialGradient>
  </defs>
  <g id="layer1" transform="translate(-579.626 -629.182)">
    <g id="g4119" transform="translate(579.626 629.182)">
      <path id="path4113" d="M-3971.921-791.137a8.829,8.829,0,0,0-2.32,3.869,10.322,10.322,0,0,1-3.005-3.777,9.7,9.7,0,0,0-.284,4.652,8.8,8.8,0,0,1-4.287-1.586,9.131,9.131,0,0,0,1.828,4.187c-1.522.629-3.021,1.262-4.419,1.03a7.745,7.745,0,0,0,3.45,2.6c-1.038,1.4-2.054,2.787-3.368,3.37a6.955,6.955,0,0,0,4.149.319,11.51,11.51,0,0,1-1.415,4.806,7.462,7.462,0,0,0,3.734-2.05,11.714,11.714,0,0,1,.918,4.956,8.827,8.827,0,0,0,2.321-3.869,10.328,10.328,0,0,1,3.005,3.777,9.71,9.71,0,0,0,.285-4.652,8.8,8.8,0,0,1,4.286,1.586,9.136,9.136,0,0,0-1.829-4.187c1.522-.629,3.022-1.262,4.42-1.03a7.752,7.752,0,0,0-3.45-2.6c1.038-1.4,2.054-2.787,3.367-3.37a6.95,6.95,0,0,0-4.148-.319,11.5,11.5,0,0,1,1.415-4.806,7.461,7.461,0,0,0-3.734,2.05A11.722,11.722,0,0,1-3971.921-791.137Z" transform="translate(3987.674 794.418)" fill="url(#radial-gradient)"/>
      <path id="path4115" d="M-3974.627-794.418a11.571,11.571,0,0,0-1.737,5.531c-1.9-.956-3.777-1.885-4.862-3.481a11.744,11.744,0,0,0,1.029,5.737c-2.081.208-4.135.429-5.8-.361a10.643,10.643,0,0,0,3.519,4.406c-1.707,1.316-3.384,2.629-5.192,2.856a9.434,9.434,0,0,0,5.067,1.9c-.876,2.071-1.728,4.123-3.189,5.307a9.278,9.278,0,0,0,5.256-1.125c.19,2.272.392,4.514-.331,6.337a10.32,10.32,0,0,0,4.037-3.842c1.206,1.863,2.408,3.694,2.617,5.668a11.581,11.581,0,0,0,1.737-5.531c1.9.956,3.777,1.885,4.861,3.481a11.741,11.741,0,0,0-1.03-5.737c2.081-.208,4.135-.429,5.805.361a10.644,10.644,0,0,0-3.52-4.406c1.707-1.316,3.384-2.629,5.192-2.856a9.433,9.433,0,0,0-5.066-1.9c.876-2.071,1.728-4.123,3.189-5.307a9.276,9.276,0,0,0-5.256,1.124c-.191-2.272-.393-4.514.33-6.337a10.321,10.321,0,0,0-4.037,3.842C-3973.215-790.613-3974.418-792.444-3974.627-794.418Zm.205,6.97c3.792,0,6.866,3.355,6.866,7.495s-3.074,7.495-6.866,7.495-6.866-3.355-6.866-7.495S-3978.214-787.448-3974.422-787.448Z" transform="translate(3987.674 794.418)" fill="url(#radial-gradient-2)"/>
    </g>
  </g>
</svg>
