<?xml version="1.0"?>
<svg xmlns="http://www.w3.org/2000/svg" xmlnsXlink="http://www.w3.org/1999/xlink" xmlnsSvgjs="http://svgjs.com/svgjs" version="1.1" width="512" height="512" x="0" y="0" viewBox="0 0 57 53" style="enable-background:new 0 0 512 512" xml:space="preserve" class=""><g><g xmlns="http://www.w3.org/2000/svg" id="002---Give-Women's-Rights"><path id="Shape" d="m18.4 27.254c.0306655-1.2445071-.6882344-2.3859558-1.82388-2.8959043-1.1356455-.5099486-2.4663759-.2888627-3.37612.5609043l-5.2 4.91c-1.24043152 1.1700152-1.2975152 3.1240684-.12749997 4.3645 1.17001523 1.2404315 3.12406837 1.2975152 4.36449997.1275l5.2-4.91c.5960253-.5616517.9427573-1.3382882.963-2.157z" fill="#a8a8c9" data-original="#000000" style="" class=""/><path id="Shape" d="m42.092 1.011c-4.0711622-.12487744-8.0238258 1.38009357-10.981 4.181-21.991 20.766-.719.68-10.4 9.823-.3960728.3807415-.6293755.9000281-.651 1.449-.056 2.24 3.884 3.993 6.369 1.643l7.465-7.046c.5785599-.5462334 1.3504197-.8402528 2.145768-.8173732.7953483.0228797 1.5490297.360784 2.095232.9393732l14.751 15.634c8.87-9.517 2.524-25.417-10.794-25.806z" fill="#a8a8c9" data-original="#000000" style="" class=""/><path id="Shape" d="m29.619 39.146c.0306655-1.2445071-.6882344-2.3859558-1.82388-2.8959043-1.1356455-.5099486-2.4663759-.2888627-3.37612.5609043l-5.2 4.91c-.8022399.7568671-1.1397563 1.8842311-.8854101 2.9574248.2543462 1.0731938 1.0619139 1.9291735 2.1185 2.2455001 1.0565862.3163265 2.2016702.0449423 3.0039101-.7119249l5.2-4.91c.5962454-.5610805.9430469-1.3375126.963-2.156z" fill="#a8a8c9" data-original="#000000" style="" class=""/><path id="Shape" d="m52.151 28.949c-.1-.071.211.228-15.472-16.393-.1821696-.1928725-.4335161-.3054501-.6987128-.3129521s-.5225055.0906865-.7152872.2729521l-7.465 7.044c-1.1762639 1.11335-2.7473963 1.7125697-4.3663185 1.6652854-1.6189222-.0472842-3.1524031-.737181-4.2616815-1.9172854-.7417106-.7825764-1.1415758-1.8281037-1.1113712-2.9059014.0302046-1.0777978.4879967-2.0992898 1.2723712-2.8390986l8.19-7.734c-3.7530721-4.02682664-9.375132-5.73556261-14.7342381-4.47823803-5.35910602 1.25732458-9.63457723 5.28816594-11.2051119 10.56398853-1.57053467 5.2758225-.19562479 10.9886991 3.60335 14.9722495l1.418 1.5c.088-.1.009-.011 5.216-4.926 1.59775-1.5069407 3.9830994-1.8161901 5.9123043-.7665024 1.9292048 1.0496876 2.9651548 3.2204788 2.5676957 5.3805024 1.6048351-.2123154 3.2139566.3593178 4.3251788 1.5365003 1.1112223 1.1771825 1.5892218 2.8165582 1.2848212 4.4064997 1.6055497-.2105513 3.2145665.3625324 4.3255237 1.5406223 1.1109573 1.17809 1.5887593 2.8179269 1.2844763 4.4083777 1.5643051-.2085014 3.1357628.3293973 4.2441826 1.4527533 1.1084199 1.123356 1.6252374 2.7018724 1.3958174 4.2632467 1.3247687.7700017 3.0139908.4502028 3.9656218-.7507606.9516311-1.2009634.8768221-2.9185623-.1756218-4.0322394l-13.324-14.117c-.2452628-.2599107-.3332343-.6309243-.2307764-.9732835.1024578-.3423592.3797793-.6040515.7275-.6865s.7130136.0268728.9582764.2867835l13.324 14.121c.7572244.8020612 1.8848232 1.139222 2.9580408.884477 1.0732177-.2547449 1.9290068-1.0626938 2.245-2.1195.3159933-1.0568062.0441836-2.2019158-.7130408-3.003977l-13.325-14.12c-.3707727-.402904-.348579-1.0290674.0497884-1.4047102.3983675-.3756427 1.0247544-.3610618 1.4052116.0327102l13.326 14.12c.8588369.9074328 2.179625 1.2083701 3.3467947.7625563 1.1671697-.4458137 1.9510112-1.5506382 1.9862053-2.7995563-.0460615-1.1583983-.609017-2.2351333-1.534-2.934z" fill="#a8a8c9" data-original="#000000" style="" class=""/><path id="Shape" d="m32.233 41.916c-.8186369-.026059-1.6136876.276406-2.208.84l-5.2 4.911c-.8022399.7570458-1.1396611 1.8845748-.8851601 2.9578579.2545009 1.073283 1.0622592 1.9292628 2.119 2.2455 1.0567409.3162372 2.2019202.0446879 3.0041601-.7123579l5.2-4.91c.9039295-.8588058 1.2035876-2.1765032.759951-3.3417597-.4436367-1.1652564-1.543749-1.9500329-2.789951-1.9902403z" fill="#a8a8c9" data-original="#000000" style="" class=""/><path id="Shape" d="m24.009 33.2c.0306655-1.2445071-.6882344-2.3859558-1.82388-2.8959043-1.1356455-.5099486-2.4663759-.2888627-3.37612.5609043l-5.2 4.91c-1.2188758 1.1745713-1.2649783 3.1114702-.1033661 4.3427025 1.1616122 1.2312322 3.0979152 1.2978207 4.3413661.1492975l5.2-4.911c.5955056-.5615122.9418646-1.3377596.962-2.156z" fill="#a8a8c9" data-original="#000000" style="" class=""/></g></g></svg>
