<svg id="Capa_1" enable-background="new 0 0 512.01 512.01" height="512" viewBox="0 0 512.01 512.01" width="512" xmlns="http://www.w3.org/2000/svg"><g id="XMLID_2112_"><g id="XMLID_428_"><path id="XMLID_760_" d="m434.99 280.683c-.042-17.126-4.078-33.957-11.773-49.236l17.674-17.674c13.25-13.25 13.25-34.811 0-48.062-6.609-6.609-15.285-9.92-23.967-9.936-.012-9.06-3.545-17.575-9.952-23.983-6.613-6.612-15.296-9.924-23.983-9.936-.012-8.687-3.324-17.37-9.937-23.983-6.404-6.403-14.914-9.936-23.967-9.952-.017-9.053-3.549-17.563-9.952-23.967-6.419-6.419-14.954-9.954-24.031-9.954s-17.612 3.535-24.03 9.954l-35.056 35.056-19.506-19.507c-6.419-6.419-14.953-9.954-24.031-9.954s-17.612 3.535-24.03 9.954c-6.408 6.408-9.94 14.923-9.953 23.983-8.681.016-17.358 3.327-23.967 9.936-6.404 6.404-9.936 14.913-9.953 23.967-9.053.017-17.563 3.549-23.967 9.953-10.942 10.942-12.838 27.547-5.709 40.464-4.91 1.605-9.527 4.346-13.423 8.242-13.25 13.251-13.25 34.811 0 48.062l14.155 14.155-112.458 112.458c-3.905 3.905-3.905 10.237 0 14.143 1.953 1.952 4.512 2.929 7.071 2.929s5.119-.977 7.071-2.929l76.234-76.234 71.413 71.413-114.384 114.384c-3.905 3.905-3.905 10.237 0 14.143 1.953 1.952 4.512 2.929 7.071 2.929s5.119-.977 7.071-2.929l154.604-154.604c2.848-2.848 6.09-5.156 9.598-6.892l24.196 15.937c16.003 10.54 35.514 14.658 54.325 11.612l134.457 134.457c1.953 1.952 4.512 2.929 7.071 2.929s5.119-.977 7.071-2.929c3.905-3.905 3.905-10.237 0-14.143l-78.014-78.014 9.431-9.431c3.905-3.905 3.905-10.237 0-14.143-3.905-3.904-10.237-3.904-14.143 0l-9.431 9.431-22.081-22.081 82.458-82.459 22.082 22.082-9.41 9.41c-3.905 3.906-3.905 10.237 0 14.143 1.953 1.952 4.512 2.929 7.071 2.929s5.119-.977 7.071-2.929l9.41-9.41 34.445 34.445c1.953 1.952 4.512 2.929 7.071 2.929s5.119-.977 7.071-2.929c3.905-3.905 3.905-10.237 0-14.143zm-129.776-202.587c2.641-2.641 6.153-4.096 9.888-4.096s7.247 1.455 9.888 4.096c2.642 2.641 4.096 6.153 4.096 9.888 0 3.736-1.455 7.248-4.096 9.889l-21.975 21.975c-3.905 3.905-3.905 10.237 0 14.143s10.237 3.905 14.143 0l21.975-21.975c2.641-2.642 6.153-4.096 9.889-4.096 3.735 0 7.247 1.455 9.888 4.096 5.453 5.453 5.453 14.324 0 19.777l-33.556 33.556c-3.905 3.905-3.905 10.237 0 14.143 1.953 1.953 4.512 2.929 7.071 2.929s5.119-.976 7.071-2.929l33.556-33.556c2.641-2.642 6.153-4.096 9.888-4.096 3.736 0 7.248 1.455 9.889 4.096s4.096 6.153 4.096 9.888-1.455 7.247-4.096 9.888l-33.556 33.556c-3.905 3.905-3.905 10.237 0 14.143 1.953 1.953 4.512 2.929 7.071 2.929s5.119-.976 7.071-2.929l33.555-33.556c5.452-5.453 14.325-5.452 19.777 0 5.453 5.453 5.453 14.325 0 19.777l-82.656 82.656c-26.464 26.465-61.65 41.04-99.078 41.04-10.135 0-19.857 2.669-28.379 7.656l-57.881-57.881c4.454-1.682 8.542-4.299 12.01-7.767 6.408-6.408 9.94-14.923 9.953-23.983 8.681-.016 17.358-3.328 23.967-9.937s9.92-15.285 9.936-23.967c9.06-.012 17.576-3.545 23.983-9.953 6.609-6.609 9.92-15.285 9.936-23.967 9.06-.012 17.575-3.545 23.982-9.952 6.419-6.419 9.954-14.953 9.954-24.031s-3.535-17.612-9.954-24.031l-2.365-2.365zm-102.623 15.549c2.641-2.641 6.153-4.096 9.888-4.096s7.247 1.455 9.888 4.096l36.014 36.013c2.641 2.641 4.096 6.153 4.096 9.888s-1.455 7.247-4.096 9.889c-2.641 2.641-6.153 4.096-9.888 4.096-3.734 0-7.244-1.454-9.885-4.093-.001-.001-.002-.002-.003-.004l-36.014-36.013c-2.641-2.641-4.096-6.153-4.096-9.888s1.454-7.246 4.096-9.888zm-33.92 33.919c2.727-2.727 6.307-4.089 9.889-4.089 3.581 0 7.163 1.363 9.888 4.089l36.013 36.013c5.453 5.453 5.452 14.325 0 19.778-2.641 2.641-6.153 4.096-9.888 4.096-3.734 0-7.244-1.454-9.885-4.093-.001-.001-.002-.002-.003-.004l-36.013-36.013c-2.642-2.641-4.096-6.153-4.096-9.889-.001-3.735 1.454-7.246 4.095-9.888zm-33.919 33.92c2.641-2.642 6.153-4.096 9.888-4.096 3.736 0 7.248 1.455 9.889 4.096l36.013 36.013c5.453 5.453 5.453 14.325 0 19.777s-14.325 5.453-19.778 0l-36.013-36.013c-5.452-5.452-5.452-14.325.001-19.777zm-19.133 48.706c2.727-2.727 6.308-4.089 9.889-4.089 3.576 0 7.154 1.361 9.878 4.08l21.236 21.236c2.641 2.641 4.096 6.153 4.096 9.888s-1.455 7.247-4.096 9.889-6.153 4.096-9.889 4.096c-3.732 0-7.242-1.453-9.883-4.091l-.005-.005-21.226-21.226c-5.452-5.454-5.452-14.326 0-19.778zm-7.926 84.299 22.082-22.082 71.414 71.413-22.082 22.082zm210.112 62.211c-2.463-2.462-6.029-3.471-9.413-2.65-15.135 3.643-31.271.823-44.271-7.74l-5.416-3.568c37.605-3.164 72.539-19.32 99.53-46.312l49.906-49.905c4.293 10.375 6.609 21.464 6.822 32.736l-87.298 87.299z"/><path id="XMLID_805_" d="m405.115 361.555c-1.86 1.86-2.93 4.43-2.93 7.07 0 2.63 1.07 5.21 2.93 7.069 1.86 1.86 4.44 2.931 7.07 2.931 2.64 0 5.21-1.07 7.07-2.931 1.86-1.859 2.93-4.439 2.93-7.069 0-2.641-1.07-5.21-2.93-7.07s-4.44-2.93-7.07-2.93-5.21 1.07-7.07 2.93z"/><path id="XMLID_809_" d="m67.563 81.7c1.953 1.953 4.512 2.929 7.071 2.929s5.119-.976 7.071-2.929c3.905-3.905 3.905-10.237 0-14.143l-47.071-47.071c-3.905-3.905-10.237-3.905-14.143 0s-3.905 10.237 0 14.143z"/><path id="XMLID_858_" d="m122.005 54.516c5.523 0 10-4.477 10-10v-34.516c0-5.523-4.477-10-10-10s-10 4.477-10 10v34.516c0 5.523 4.477 10 10 10z"/><path id="XMLID_1014_" d="m10.005 132h34.516c5.523 0 10-4.477 10-10s-4.477-10-10-10h-34.516c-5.523 0-10 4.477-10 10s4.477 10 10 10z"/><path id="XMLID_1020_" d="m437.376 84.629c2.559 0 5.119-.976 7.071-2.929l47.071-47.071c3.905-3.905 3.905-10.237 0-14.143s-10.237-3.905-14.143 0l-47.071 47.071c-3.905 3.905-3.905 10.237 0 14.143 1.954 1.953 4.513 2.929 7.072 2.929z"/><path id="XMLID_1029_" d="m390.005 54.516c5.523 0 10-4.477 10-10v-34.516c0-5.523-4.477-10-10-10s-10 4.477-10 10v34.516c0 5.523 4.477 10 10 10z"/><path id="XMLID_1030_" d="m457.49 122c0 5.523 4.477 10 10 10h34.516c5.523 0 10-4.477 10-10s-4.477-10-10-10h-34.516c-5.523 0-10 4.477-10 10z"/></g></g></svg>