<svg id="Capa_1" enable-background="new 0 0 512 512" height="512" viewBox="0 0 512 512" width="512" xmlns="http://www.w3.org/2000/svg"><g><path d="m402.82 106c0-34.796-22.77-90-83.87-90-25.104 0-46.221 11.835-62.95 35.229-16.729-23.394-37.847-35.229-62.95-35.229-61.101 0-83.87 55.204-83.87 90 0 59.993 46.822 97.52 110.787 152.217 9.399 8.036 19.118 16.347 29.48 25.337 1.88 1.631 4.216 2.446 6.553 2.446s4.673-.815 6.553-2.446c10.362-8.99 20.081-17.301 29.48-25.337 66.966-57.263 110.787-93.492 110.787-152.217zm-146.82 156.776c-7.991-6.896-15.612-13.413-23.035-19.761-66.922-57.223-103.785-88.745-103.785-137.015 0-32.743 21.421-70 63.87-70 22.153 0 39.874 12.72 54.176 38.886 1.753 3.208 5.118 5.204 8.774 5.204s7.021-1.996 8.774-5.204c14.302-26.166 32.023-38.886 54.176-38.886 41.856 0 63.87 36.704 63.87 70 0 48.27-36.863 79.792-103.785 137.016-7.423 6.347-15.044 12.864-23.035 19.76z"/><path d="m71.858 408.114 48.142 24.067v53.819c0 5.522 4.478 10 10 10h106c5.522 0 10-4.478 10-10v-130.55c0-30.638-22.983-56.045-53.385-59.093l-.818-.088c-17.597-1.764-48.755-13.8-61.058-26.102l-22.458-22.449c-7.557-7.556-17.6-11.718-28.281-11.718v-80c0-22.056-17.944-40-40-40s-40 17.944-40 40v135.84c0 49.214 27.798 94.239 71.858 116.274zm-51.858-252.114c0-11.028 8.972-20 20-20s20 8.972 20 20v85.361c-12.196 7.052-20 20.2-20 34.639 0 10.681 4.162 20.724 11.719 28.28l51.21 51.22c3.904 3.906 10.236 3.906 14.142.001 3.905-3.904 3.906-10.236.001-14.142l-51.21-51.221c-3.781-3.779-5.862-8.8-5.862-14.138 0-8.464 5.357-16.044 13.332-18.861.001 0 .003-.001.004-.002.002-.001.005-.001.007-.002 6.898-2.448 15.08-.99 20.797 4.728l22.458 22.449c23.186 23.186 73.843 31.91 73.944 31.938 20.214 2.026 35.457 18.879 35.457 39.2v120.55h-86v-50c0-3.788-2.141-7.251-5.528-8.944l-53.669-26.83c-37.503-18.757-60.802-56.456-60.802-98.386z"/><circle cx="459" cy="384" r="10"/><path d="m472 116c-22.056 0-40 17.944-40 40v80c-10.681 0-20.724 4.162-28.279 11.718l-22.462 22.451c-12.301 12.301-43.459 24.337-61.134 26.108l-.662.072c-30.48 3.056-53.463 28.464-53.463 59.101v130.55c0 5.522 4.478 10 10 10h106c5.522 0 10-4.478 10-10v-53.819l32.73-16.362c4.939-2.47 6.942-8.476 4.473-13.416-2.47-4.939-8.477-6.944-13.416-4.473l-38.259 19.126c-3.387 1.693-5.528 5.156-5.528 8.944v50h-86v-120.55c0-20.321 15.243-37.174 35.535-39.208l.662-.072c21.691-2.175 57.606-16.261 73.202-31.857l22.462-22.451c5.733-5.735 13.931-7.162 20.795-4.727.002.001.005.001.007.002.001 0 .003.001.004.002 7.976 2.817 13.333 10.397 13.333 18.861 0 5.338-2.081 10.359-5.861 14.14l-51.21 51.22c-3.905 3.905-3.904 10.237.001 14.142 3.903 3.905 10.237 3.905 14.142-.001l51.21-51.219c7.556-7.558 11.718-17.601 11.718-28.282 0-14.439-7.804-27.587-20-34.639v-85.361c0-11.028 8.972-20 20-20s20 8.972 20 20v135.84c0 18.296-4.617 36.46-13.353 52.528-2.639 4.853-.844 10.924 4.009 13.562 4.851 2.638 10.925.845 13.562-4.009 10.325-18.991 15.782-40.458 15.782-62.081v-135.84c0-22.056-17.944-40-40-40z"/></g></svg>