<svg width="32" height="26" viewBox="0 0 32 26" fill="none" xmlns="http://www.w3.org/2000/svg">
<path d="M7.76457 22.3882C6.49557 21.2732 5.46758 19.9121 4.74515 18.3882C3.74545 18.0927 2.84936 17.5243 2.15722 16.7475C1.46508 15.9708 1.00512 15.0172 0.829422 13.9936C0.720922 13.3891 0.720922 12.77 0.829422 12.1655C1.00245 11.1408 1.46174 10.1849 2.15428 9.40769C2.84682 8.6305 3.74407 8.06391 4.74515 7.77097C5.56628 6.01822 6.78732 4.48037 8.31079 3.28074C9.83425 2.0811 11.618 1.25235 13.52 0.860814C15.422 0.469277 17.3904 0.525093 19.2666 1.02488C21.1428 1.52466 22.875 2.45485 24.3267 3.73972C25.6071 4.86371 26.6448 6.23539 27.3765 7.77097C28.3761 8.06664 29.2734 8.63489 29.9655 9.41159C30.6576 10.1883 31.1173 11.142 31.2933 12.1655C31.4005 12.7702 31.4005 13.389 31.2933 13.9936C31.1207 15.016 30.6637 15.9687 29.9743 16.7456C29.2849 17.5224 28.3909 18.0919 27.3932 18.3882C26.6657 19.909 25.6394 21.2692 24.3748 22.3882C22.0923 24.4243 19.1351 25.5503 16.0707 25.5503C13.0063 25.5503 10.05 24.4243 7.76751 22.3882H7.76457ZM7.91657 18.3882C8.79965 19.7377 10.0072 20.8453 11.4292 21.6128C12.8513 22.3802 14.4434 22.7827 16.0608 22.7827C17.6783 22.7827 19.2704 22.3802 20.6925 21.6128C22.1145 20.8453 23.322 19.7377 24.2051 18.3882C24.7241 17.5901 25.1262 16.7226 25.4005 15.812C25.5337 15.8323 25.6681 15.846 25.8026 15.853C26.5413 15.853 27.2494 15.5606 27.7718 15.0405C28.2941 14.5204 28.5876 13.8151 28.5876 13.0796C28.5876 12.344 28.2941 11.6388 27.7718 11.1186C27.2494 10.5985 26.5413 10.3061 25.8026 10.3061C25.6681 10.3131 25.5337 10.3268 25.4005 10.3471C25.127 9.43619 24.7248 8.56861 24.2051 7.77097C23.322 6.42147 22.1145 5.31187 20.6925 4.54441C19.2704 3.77694 17.6783 3.37644 16.0608 3.37644C14.4434 3.37644 12.8513 3.77694 11.4292 4.54441C10.0072 5.31187 8.79965 6.42147 7.91657 7.77097C7.39695 8.56878 6.99452 9.43631 6.72018 10.3471C6.58059 10.3331 6.45468 10.3061 6.31811 10.3061C5.57945 10.3061 4.87128 10.5985 4.34897 11.1186C3.82666 11.6388 3.53307 12.344 3.53307 13.0796C3.53307 13.8151 3.82666 14.5204 4.34897 15.0405C4.87128 15.5606 5.57945 15.853 6.31811 15.853C6.45367 15.853 6.57959 15.826 6.72018 15.812C6.99596 16.7212 7.39865 17.5873 7.91755 18.3842L7.91657 18.3882ZM9.79647 15.853H22.3252C21.8095 17.0841 20.9393 18.1348 19.8246 18.8745C18.7099 19.6142 17.4003 20.0092 16.0608 20.0092C14.7213 20.0092 13.4118 19.6142 12.2971 18.8745C11.1824 18.1348 10.3122 17.0841 9.79647 15.853V15.853ZM17.7986 11.0014C17.7976 10.6582 17.899 10.3224 18.0898 10.0366C18.2806 9.75076 18.5523 9.52795 18.8704 9.39597C19.1885 9.26399 19.5394 9.22798 19.8775 9.29441C20.2157 9.36083 20.5259 9.52661 20.7699 9.76902C21.0139 10.0114 21.18 10.3192 21.2475 10.6557C21.315 10.9923 21.2812 11.3425 21.1494 11.6596C21.0176 11.9768 20.7937 12.2463 20.5071 12.437C20.2205 12.6276 19.8839 12.7301 19.5392 12.73C19.0785 12.7297 18.6365 12.5482 18.3105 12.2241C17.9844 11.9 17.8006 11.4602 17.7995 11.0014H17.7986ZM10.8399 11.0014C10.8391 10.6585 10.9404 10.3221 11.1311 10.0366C11.3219 9.75108 11.5938 9.5297 11.9117 9.39792C12.2296 9.26614 12.5791 9.22994 12.9169 9.29636C13.2547 9.36278 13.5655 9.52876 13.8093 9.77097C14.0531 10.0132 14.2194 10.3214 14.2869 10.6577C14.3543 10.994 14.3204 11.3427 14.1888 11.6596C14.0572 11.9765 13.8337 12.2464 13.5474 12.437C13.2612 12.6276 12.9249 12.73 12.5805 12.73C12.1199 12.7297 11.6778 12.5482 11.3518 12.2241C11.0257 11.9 10.8419 11.4602 10.8409 11.0014H10.8399Z" fill="#FFD500"/>
</svg>
