<?xml version="1.0" encoding="UTF-8"?>
<svg width="3.3737mm" height="4.2333mm" version="1.1" viewBox="0 0 3.3737 4.2333" xmlns="http://www.w3.org/2000/svg">
 <style/>
 <g transform="translate(-115.95 -67.08)">
  <path d="m116.45 70.979c0.0204 0.18767 0.16059 0.33366 0.3414 0.33366h1.6868c0.18073 0 0.34138-0.14597 0.34138-0.33366l0.22089-2.565h-2.7913zm1.7672-1.9603c0.0203-0.06256 0.0602-0.12513 0.14064-0.10427 0.0602 0 0.10034 0.06256 0.10034 0.12513l-0.10034 1.6892c-0.0203 0.06256-0.0602 0.10427-0.14064 0.10427-0.0602 0-0.10034-0.06256-0.10034-0.12513zm-0.70284 0c0-0.06256 0.0602-0.12513 0.12048-0.12513 0.0603 0 0.12049 0.06256 0.12049 0.12513v1.6892c0 0.06257-0.0602 0.12513-0.12049 0.12513-0.0602 0-0.12048-0.06256-0.12048-0.12513zm-0.58238-0.12513c0.0602 0 0.12049 0.06256 0.12049 0.12513l0.10034 1.6892c0.0203 0.06257-0.0401 0.12513-0.10034 0.12513-0.0602 0-0.12049-0.0417-0.12049-0.10427l-0.10034-1.6892c-0.0204-0.08341 0.0401-0.12513 0.10034-0.14597z"/>
  <path d="m118.96 67.684h-0.64262c-0.0401-0.33366-0.32129-0.60476-0.66269-0.60476h-0.0401c-0.34138 0-0.60245 0.2711-0.6426 0.60476h-0.64263c-0.22088 0-0.38153 0.18769-0.38153 0.39622 0 0.06256 0.0401 0.10427 0.10034 0.10427h3.193c0.0401 0 0.0804-0.0417 0.0804-0.10427 0-0.20854-0.16058-0.39622-0.36147-0.39622zm-1.3254-0.25025h0.0204c0.14064 0 0.26106 0.12513 0.30122 0.25025h-0.62251c0.0203-0.12513 0.14064-0.25025 0.30122-0.25025z"/>
 </g>
</svg>
