<?xml version="1.0" encoding="UTF-8"?>
<svg width="6.3372mm" height="6.35mm" version="1.1" viewBox="0 0 6.3372 6.35" xmlns="http://www.w3.org/2000/svg">
 <style/>
 <g transform="translate(-269 -124.65)">
  <path d="m269.34 126.31h1.2915l1.8921-1.5906c0.21034-0.15586 0.54061 0 0.54061 0.28065v5.6764c0 0.28065-0.33039 0.43663-0.54061 0.24961l-1.8921-1.5907h-1.2915c-0.1802 0-0.33036-0.15585-0.33036-0.34308v-2.3392c0-0.1872 0.15007-0.34308 0.33036-0.34308z"/>
  <path d="m274.05 127.83-0.4505-0.46786c-0.12024-0.1248-0.12024-0.28065 0-0.40545 0.0901-0.1248 0.2703-0.1248 0.39041 0l0.45051 0.46786 0.42049-0.46786c0.12024-0.1248 0.30044-0.1248 0.39042 0 0.12024 0.1248 0.12024 0.28065 0 0.40545l-0.4505 0.46786 0.4505 0.46783c0.12024 0.0934 0.12024 0.28065 0 0.37425-0.0901 0.12481-0.2703 0.12481-0.39042 0l-0.42049-0.43662-0.45051 0.43662c-0.12023 0.12481-0.30043 0.12481-0.39041 0-0.12024-0.0934-0.12024-0.28065 0-0.37425z" fill-rule="evenodd"/>
 </g>
</svg>
