<svg width="23" height="23" viewBox="0 0 23 23" fill="none" xmlns="http://www.w3.org/2000/svg">
<path d="M11.25 22.5C17.4632 22.5 22.5 17.4632 22.5 11.25C22.5 5.0368 17.4632 0 11.25 0C5.0368 0 0 5.0368 0 11.25C0 17.4632 5.0368 22.5 11.25 22.5Z" fill="url(#paint0_radial)"/>
<path d="M18.75 16.25C20.4759 16.25 21.875 14.8509 21.875 13.125C21.875 11.3991 20.4759 10 18.75 10C17.0241 10 15.625 11.3991 15.625 13.125C15.625 14.8509 17.0241 16.25 18.75 16.25Z" fill="url(#paint1_radial)"/>
<path d="M3.75 16.25C5.47589 16.25 6.875 14.8509 6.875 13.125C6.875 11.3991 5.47589 10 3.75 10C2.02411 10 0.625 11.3991 0.625 13.125C0.625 14.8509 2.02411 16.25 3.75 16.25Z" fill="url(#paint2_radial)"/>
<path d="M16.6512 15C16.6512 15 15.4037 18.125 11.2499 18.125C7.40243 18.125 5.85181 15 5.85181 15C5.85181 15 6.86868 16.4406 11.3018 16.4406C15.7349 16.4406 16.6512 15 16.6512 15Z" fill="url(#paint3_radial)"/>
<path d="M11.2499 18.1252C6.99053 18.1252 5.48303 14.4883 5.48303 14.4883C5.48303 14.4883 6.20178 19.3752 11.2499 19.3752C16.298 19.3752 17.0168 14.4883 17.0168 14.4883C17.0168 14.4883 15.5093 18.1252 11.2499 18.1252Z" fill="url(#paint4_radial)"/>
<path d="M16.4862 14.2416C16.7706 14.0041 17.1587 14.376 16.9344 14.671C15.9081 16.0204 14.1269 17.4991 11.25 17.4991C8.37312 17.4991 6.59187 16.0204 5.56562 14.671C5.34124 14.376 5.72937 14.0041 6.01374 14.2416C7.18812 15.221 8.96499 16.2491 11.25 16.2491C13.535 16.2491 15.3119 15.221 16.4862 14.2416Z" fill="url(#paint5_radial)"/>
<path d="M17.8125 10.625C17.9851 10.625 18.125 10.4851 18.125 10.3125C18.125 10.1399 17.9851 10 17.8125 10C17.6399 10 17.5 10.1399 17.5 10.3125C17.5 10.4851 17.6399 10.625 17.8125 10.625Z" fill="#212121"/>
<path d="M13.5888 10.5869C13.5888 10.5869 14.6676 9.99688 15.6251 9.99688C16.5826 9.99688 17.6613 10.5869 17.6613 10.5869L18.0557 10.1156C18.0557 10.1156 16.9526 8.75 15.6251 8.75C14.2976 8.75 13.1945 10.1156 13.1945 10.1156L13.5888 10.5869Z" fill="#212121"/>
<path d="M13.4375 10.625C13.6101 10.625 13.75 10.4851 13.75 10.3125C13.75 10.1399 13.6101 10 13.4375 10C13.2649 10 13.125 10.1399 13.125 10.3125C13.125 10.4851 13.2649 10.625 13.4375 10.625Z" fill="#212121"/>
<path d="M9.0625 10.625C9.23509 10.625 9.375 10.4851 9.375 10.3125C9.375 10.1399 9.23509 10 9.0625 10C8.88991 10 8.75 10.1399 8.75 10.3125C8.75 10.4851 8.88991 10.625 9.0625 10.625Z" fill="#212121"/>
<path d="M4.83871 10.5869C4.83871 10.5869 5.91746 9.99688 6.87496 9.99688C7.83246 9.99688 8.91121 10.5869 8.91121 10.5869L9.30559 10.1156C9.30559 10.1156 8.20246 8.75 6.87496 8.75C5.54746 8.75 4.44434 10.1156 4.44434 10.1156L4.83871 10.5869Z" fill="#212121"/>
<path d="M4.6875 10.625C4.86009 10.625 5 10.4851 5 10.3125C5 10.1399 4.86009 10 4.6875 10C4.51491 10 4.375 10.1399 4.375 10.3125C4.375 10.4851 4.51491 10.625 4.6875 10.625Z" fill="#212121"/>
<defs>
<radialGradient id="paint0_radial" cx="0" cy="0" r="1" gradientUnits="userSpaceOnUse" gradientTransform="translate(11.25 11.25) scale(11.25)">
<stop stop-color="#FFE16E"/>
<stop offset="0.629" stop-color="#FFD226"/>
<stop offset="0.75" stop-color="#FDCD23"/>
<stop offset="0.899" stop-color="#F6BD1B"/>
<stop offset="0.999" stop-color="#F0AF13"/>
</radialGradient>
<radialGradient id="paint1_radial" cx="0" cy="0" r="1" gradientUnits="userSpaceOnUse" gradientTransform="translate(18.75 13.125) scale(3.125)">
<stop stop-color="#FF8400" stop-opacity="0.6"/>
<stop offset="0.999" stop-color="#FF8400" stop-opacity="0"/>
</radialGradient>
<radialGradient id="paint2_radial" cx="0" cy="0" r="1" gradientUnits="userSpaceOnUse" gradientTransform="translate(3.75 13.125) scale(3.125)">
<stop stop-color="#FF8400" stop-opacity="0.6"/>
<stop offset="0.999" stop-color="#FF8400" stop-opacity="0"/>
</radialGradient>
<radialGradient id="paint3_radial" cx="0" cy="0" r="1" gradientUnits="userSpaceOnUse" gradientTransform="translate(11.2472 15.2038) scale(6.53526 3.5406)">
<stop offset="0.947" stop-color="#FFE16E"/>
<stop offset="1" stop-color="#FFE16E" stop-opacity="0"/>
</radialGradient>
<radialGradient id="paint4_radial" cx="0" cy="0" r="1" gradientUnits="userSpaceOnUse" gradientTransform="translate(11.3151 13.4328) scale(5.78904 5.91887)">
<stop offset="0.819" stop-color="#CC9000"/>
<stop offset="0.988" stop-color="#FBBC23" stop-opacity="0.069"/>
<stop offset="1" stop-color="#FFBF26" stop-opacity="0"/>
</radialGradient>
<radialGradient id="paint5_radial" cx="0" cy="0" r="1" gradientUnits="userSpaceOnUse" gradientTransform="translate(11.25 14.901) scale(6.0325 2.2646)">
<stop stop-color="#1C1911"/>
<stop offset="0.999" stop-color="#171714"/>
</radialGradient>
</defs>
</svg>
