<?xml version="1.0"?>
<svg xmlns="http://www.w3.org/2000/svg"  xmlnsXlink="http://www.w3.org/1999/xlink" xmlnsSvgjs="http://svgjs.com/svgjs" version="1.1" width="21px" height="auto" x="0" y="0" viewBox="0 0 477.867 477.867" style="enable-background:new 0 0 512 512" xml:space="preserve" class=""><g><script type="text/javascript" src="chrome-extension://dadeefbkfcpaeacnafgceahcpjlfmmjj/scripts/war.js"/>
<g xmlns="http://www.w3.org/2000/svg" >
	<g>
		<path d="M238.933,0C106.974,0,0,106.974,0,238.933s106.974,238.933,238.933,238.933s238.933-106.974,238.933-238.933    C477.716,107.036,370.83,0.15,238.933,0z M119.467,204.8c0-18.851,15.282-34.133,34.133-34.133s34.133,15.282,34.133,34.133    s-15.282,34.133-34.133,34.133S119.467,223.651,119.467,204.8z M300.817,320.512L300.817,320.512    c-36.539,27.899-87.228,27.899-123.768,0c-7.215-6.065-8.147-16.831-2.081-24.046c5.874-6.987,16.205-8.115,23.449-2.561    c24.135,17.628,56.898,17.628,81.033,0c7.48-5.736,18.193-4.322,23.928,3.158C308.932,304.306,307.804,314.638,300.817,320.512z     M324.267,238.933c-18.851,0-34.133-15.282-34.133-34.133s15.282-34.133,34.133-34.133c18.851,0,34.133,15.282,34.133,34.133    S343.118,238.933,324.267,238.933z" fill="#8a88c3" data-original="#000000" style="" class=""/>
	</g>
</g>
<g xmlns="http://www.w3.org/2000/svg">
</g>
<g xmlns="http://www.w3.org/2000/svg">
</g>
<g xmlns="http://www.w3.org/2000/svg">
</g>
<g xmlns="http://www.w3.org/2000/svg">
</g>
<g xmlns="http://www.w3.org/2000/svg">
</g>
<g xmlns="http://www.w3.org/2000/svg">
</g>
<g xmlns="http://www.w3.org/2000/svg">
</g>
<g xmlns="http://www.w3.org/2000/svg">
</g>
<g xmlns="http://www.w3.org/2000/svg">
</g>
<g xmlns="http://www.w3.org/2000/svg">
</g>
<g xmlns="http://www.w3.org/2000/svg">
</g>
<g xmlns="http://www.w3.org/2000/svg">
</g>
<g xmlns="http://www.w3.org/2000/svg">
</g>
<g xmlns="http://www.w3.org/2000/svg">
</g>
<g xmlns="http://www.w3.org/2000/svg">
</g>
</g></svg>
