<svg width="24" height="24" viewBox="0 0 24 24" fill="none" xmlns="http://www.w3.org/2000/svg">
<path d="M12.125 23.375C18.3382 23.375 23.375 18.3382 23.375 12.125C23.375 5.9118 18.3382 0.875 12.125 0.875C5.9118 0.875 0.875 5.9118 0.875 12.125C0.875 18.3382 5.9118 23.375 12.125 23.375Z" fill="url(#paint0_radial)"/>
<path d="M9.10626 18.5326C9.10626 18.5326 9.80376 19.0001 12.125 19.0001C14.275 19.0001 15.1419 18.5326 15.1419 18.5326C15.1419 18.5326 14.6025 17.6045 12.125 17.6045C9.64751 17.6045 9.10626 18.5326 9.10626 18.5326Z" fill="url(#paint1_radial)"/>
<path d="M12.125 18.375C14.245 18.375 14.8188 18.7556 14.8188 18.7556C14.8188 18.7556 14.2688 19.625 12.125 19.625C9.98126 19.625 9.43126 18.7556 9.43126 18.7556C9.43126 18.7556 10.005 18.375 12.125 18.375Z" fill="url(#paint2_radial)"/>
<path d="M15.0631 18.4969C15.3763 18.6694 15.685 18.2731 15.4431 18.01C14.7406 17.2462 13.6613 16.5 12.125 16.5C10.5888 16.5 9.50938 17.2462 8.80688 18.01C8.56501 18.2731 8.87376 18.6694 9.18688 18.4969C9.90626 18.0994 10.89 17.75 12.125 17.75C13.36 17.75 14.3438 18.0994 15.0631 18.4969Z" fill="url(#paint3_radial)"/>
<path d="M14.3125 12.125C14.4851 12.125 14.625 11.9851 14.625 11.8125C14.625 11.6399 14.4851 11.5 14.3125 11.5C14.1399 11.5 14 11.6399 14 11.8125C14 11.9851 14.1399 12.125 14.3125 12.125Z" fill="#212121"/>
<path d="M18.6875 12.75C18.6875 12.75 18.1406 12.7531 17.6525 12.7531C16.1881 12.7531 14.4638 11.5381 14.4638 11.5381L14.0375 11.9556C14.0375 11.9556 14.7063 14 16.5 14C17.8275 14 18.8581 13.325 18.8581 13.325L18.6875 12.75Z" fill="#212121"/>
<path d="M18.6875 13.375C18.8601 13.375 19 13.2351 19 13.0625C19 12.8899 18.8601 12.75 18.6875 12.75C18.5149 12.75 18.375 12.8899 18.375 13.0625C18.375 13.2351 18.5149 13.375 18.6875 13.375Z" fill="#212121"/>
<path d="M9.93749 12.125C10.1101 12.125 10.25 11.9851 10.25 11.8125C10.25 11.6399 10.1101 11.5 9.93749 11.5C9.7649 11.5 9.62498 11.6399 9.62498 11.8125C9.62498 11.9851 9.7649 12.125 9.93749 12.125Z" fill="#212121"/>
<path d="M5.5625 12.7519C5.5625 12.7519 6.10938 12.755 6.5975 12.755C8.06188 12.755 9.78625 11.54 9.78625 11.54L10.2125 11.9575C10.2125 11.9575 9.54375 14.0019 7.75 14.0019C6.4225 14.0019 5.39188 13.3269 5.39188 13.3269L5.5625 12.7519Z" fill="#212121"/>
<path d="M5.5625 13.376C5.73509 13.376 5.875 13.2361 5.875 13.0635C5.875 12.8909 5.73509 12.751 5.5625 12.751C5.38991 12.751 5.25 12.8909 5.25 13.0635C5.25 13.2361 5.38991 13.376 5.5625 13.376Z" fill="#212121"/>
<defs>
<radialGradient id="paint0_radial" cx="0" cy="0" r="1" gradientUnits="userSpaceOnUse" gradientTransform="translate(12.125 12.125) scale(11.25)">
<stop stop-color="#FFE16E"/>
<stop offset="0.629" stop-color="#FFD426"/>
<stop offset="0.72" stop-color="#FDCD23"/>
<stop offset="0.854" stop-color="#F8B919"/>
<stop offset="1" stop-color="#F09C0C"/>
</radialGradient>
<radialGradient id="paint1_radial" cx="0" cy="0" r="1" gradientUnits="userSpaceOnUse" gradientTransform="translate(12.1208 16.9447) rotate(89.194) scale(2.32012 6.85276)">
<stop offset="0.629" stop-color="#FFE16E"/>
<stop offset="0.871" stop-color="#FFE16E" stop-opacity="0"/>
</radialGradient>
<radialGradient id="paint2_radial" cx="0" cy="0" r="1" gradientUnits="userSpaceOnUse" gradientTransform="translate(12.1145 17.6141) rotate(180) scale(3.19699 1.95337)">
<stop offset="0.284" stop-color="#CC9000"/>
<stop offset="1" stop-color="#CC9000" stop-opacity="0"/>
</radialGradient>
<radialGradient id="paint3_radial" cx="0" cy="0" r="1" gradientUnits="userSpaceOnUse" gradientTransform="translate(12.1112 18.0986) scale(3.42431 1.83641)">
<stop stop-color="#1C1911"/>
<stop offset="0.999" stop-color="#171714"/>
</radialGradient>
</defs>
</svg>
