<svg width="23" height="23" viewBox="0 0 23 23" fill="none" xmlns="http://www.w3.org/2000/svg">
<path d="M11.25 22.5C17.4632 22.5 22.5 17.4632 22.5 11.25C22.5 5.0368 17.4632 0 11.25 0C5.0368 0 0 5.0368 0 11.25C0 17.4632 5.0368 22.5 11.25 22.5Z" fill="url(#paint0_radial)"/>
<path d="M18.1251 12.5C18.1251 12.5 18.2119 20 11.2501 20C4.28818 20 4.37505 12.5 4.37505 12.5C4.37505 12.5 5.90255 12.5 11.2501 12.5C16.5976 12.5 18.1251 12.5 18.1251 12.5Z" fill="url(#paint1_radial)"/>
<path d="M18.125 12.5C18.125 16.2969 15.0469 19.375 11.25 19.375C7.45313 19.375 4.375 16.2969 4.375 12.5H18.125Z" fill="url(#paint2_radial)"/>
<path d="M11.875 16.875C11.5525 16.875 11.25 17.1875 11.25 17.1875C11.25 17.1875 10.9475 16.875 10.625 16.875C9.32439 16.875 8.48376 18.0994 8.48376 18.0994C9.31876 18.5137 10.2569 18.75 11.25 18.75C12.2431 18.75 13.1813 18.5137 14.0163 18.0994C14.0163 18.0994 13.1756 16.875 11.875 16.875Z" fill="url(#paint3_radial)"/>
<path d="M11.25 19.9998C9.07249 19.9998 7.09999 19.1385 5.64124 17.7441C6.65811 19.8179 8.78436 21.2498 11.25 21.2498C13.7156 21.2498 15.8419 19.8179 16.8587 17.7441C15.4 19.1385 13.4275 19.9998 11.25 19.9998Z" fill="url(#paint4_radial)"/>
<path d="M5.625 13.125V13.75C5.625 14.4406 6.18437 15 6.875 15H15.625C16.3156 15 16.875 14.4406 16.875 13.75V13.125H5.625Z" fill="url(#paint5_linear)"/>
<path d="M16.3144 3.98195L17.2837 6.00445L19.5069 6.30133C19.85 6.34695 19.9869 6.76945 19.7362 7.0082L18.1125 8.55508L18.5169 10.7607C18.5794 11.1007 18.22 11.362 17.9156 11.1976L15.9431 10.1313L13.9706 11.1976C13.6662 11.362 13.3069 11.1007 13.3694 10.7607L13.7737 8.55508L12.15 7.0082C11.8994 6.76945 12.0369 6.34695 12.3794 6.30133L14.6025 6.00445L15.5719 3.98195C15.7206 3.67008 16.165 3.67008 16.3144 3.98195Z" fill="url(#paint6_linear)"/>
<path d="M6.18566 3.98195L5.21628 6.00445L2.99316 6.30133C2.65003 6.34695 2.51316 6.76945 2.76378 7.0082L4.38753 8.55508L3.98316 10.7607C3.92066 11.1007 4.28003 11.362 4.58441 11.1976L6.55691 10.1313L8.52941 11.1976C8.83378 11.362 9.19316 11.1007 9.13066 10.7607L8.72628 8.55508L10.35 7.0082C10.6007 6.76945 10.4632 6.34695 10.1207 6.30133L7.89753 6.00445L6.92816 3.98195C6.77941 3.67008 6.33503 3.67008 6.18566 3.98195Z" fill="url(#paint7_linear)"/>
<defs>
<radialGradient id="paint0_radial" cx="0" cy="0" r="1" gradientUnits="userSpaceOnUse" gradientTransform="translate(11.25 11.25) scale(11.25)">
<stop stop-color="#FFE16E"/>
<stop offset="0.629" stop-color="#FFD226"/>
<stop offset="0.75" stop-color="#FDCD23"/>
<stop offset="0.899" stop-color="#F6BD1B"/>
<stop offset="0.999" stop-color="#F0AF13"/>
</radialGradient>
<radialGradient id="paint1_radial" cx="0" cy="0" r="1" gradientUnits="userSpaceOnUse" gradientTransform="translate(11.2501 12.9869) scale(6.98187)">
<stop offset="0.371" stop-color="#FFD226"/>
<stop offset="0.948" stop-color="#FFE16E"/>
<stop offset="1" stop-color="#FFE16E" stop-opacity="0"/>
</radialGradient>
<radialGradient id="paint2_radial" cx="0" cy="0" r="1" gradientUnits="userSpaceOnUse" gradientTransform="translate(11.3437 12.2431) scale(7.41437)">
<stop stop-color="#1C1911"/>
<stop offset="0.999" stop-color="#171714"/>
</radialGradient>
<radialGradient id="paint3_radial" cx="0" cy="0" r="1" gradientUnits="userSpaceOnUse" gradientTransform="translate(11.2501 20.4569) rotate(90) scale(3.69375 3.67676)">
<stop offset="0.456" stop-color="#DB4A59"/>
<stop offset="0.602" stop-color="#D84756"/>
<stop offset="0.729" stop-color="#CD3E4D"/>
<stop offset="0.85" stop-color="#BB303E"/>
<stop offset="0.965" stop-color="#A21B29"/>
<stop offset="0.999" stop-color="#991421"/>
</radialGradient>
<radialGradient id="paint4_radial" cx="0" cy="0" r="1" gradientUnits="userSpaceOnUse" gradientTransform="translate(11.3131 14.5166) scale(6.48813)">
<stop offset="0.819" stop-color="#CC9000"/>
<stop offset="0.988" stop-color="#FBBC23" stop-opacity="0.069"/>
<stop offset="1" stop-color="#FFBF26" stop-opacity="0"/>
</radialGradient>
<linearGradient id="paint5_linear" x1="5.625" y1="14.0625" x2="16.875" y2="14.0625" gradientUnits="userSpaceOnUse">
<stop offset="0.001" stop-color="#968F72"/>
<stop offset="0.048" stop-color="#B2AD97"/>
<stop offset="0.098" stop-color="#CAC6B7"/>
<stop offset="0.153" stop-color="#DDDBD2"/>
<stop offset="0.213" stop-color="#ECEBE6"/>
<stop offset="0.281" stop-color="#F7F6F4"/>
<stop offset="0.363" stop-color="#FDFDFC"/>
<stop offset="0.5" stop-color="white"/>
<stop offset="0.637" stop-color="#FDFDFC"/>
<stop offset="0.719" stop-color="#F7F6F4"/>
<stop offset="0.787" stop-color="#ECEBE6"/>
<stop offset="0.847" stop-color="#DDDBD2"/>
<stop offset="0.902" stop-color="#CAC6B7"/>
<stop offset="0.952" stop-color="#B2AD97"/>
<stop offset="1" stop-color="#968F72"/>
</linearGradient>
<linearGradient id="paint6_linear" x1="15.9431" y1="3.67883" x2="15.9431" y2="10.9245" gradientUnits="userSpaceOnUse">
<stop offset="0.001" stop-color="#FF634F"/>
<stop offset="0.628" stop-color="#EE4023"/>
<stop offset="1" stop-color="#E62F0E"/>
</linearGradient>
<linearGradient id="paint7_linear" x1="6.55691" y1="3.72695" x2="6.55691" y2="11.1232" gradientUnits="userSpaceOnUse">
<stop offset="0.001" stop-color="#FF634F"/>
<stop offset="0.628" stop-color="#EE4023"/>
<stop offset="1" stop-color="#E62F0E"/>
</linearGradient>
</defs>
</svg>
