<svg width="23" height="23" viewBox="0 0 23 23" fill="none" xmlns="http://www.w3.org/2000/svg">
<path d="M22.5 11.25C22.5 17.4622 17.4622 22.5 11.25 22.5C5.03775 22.5 0 17.4622 0 11.25C0 5.03775 5.03775 0 11.25 0C17.4622 0 22.5 5.03775 22.5 11.25Z" fill="url(#paint0_radial)"/>
<path d="M9.89999 18.0001C9.09989 18.0001 8.39069 17.6095 7.79219 16.8391C7.56314 16.5448 7.61624 16.1209 7.91099 15.8923C8.20484 15.6632 8.62919 15.7168 8.85779 16.0111C9.07109 16.2851 9.41129 16.6501 9.89999 16.6501C10.3887 16.6501 10.7289 16.2851 10.9422 16.0111C11.1708 15.7163 11.5947 15.6632 11.889 15.8923C12.1833 16.1209 12.2364 16.5452 12.0078 16.8391C11.4093 17.6095 10.7001 18.0001 9.89999 18.0001Z" fill="url(#paint1_radial)"/>
<path d="M14.6254 17.0996C14.4243 17.0996 14.2249 17.0101 14.0922 16.8386C13.8789 16.5646 13.5387 16.1996 13.05 16.1996C12.5613 16.1996 12.2211 16.5646 12.0078 16.8386C11.7792 17.1325 11.3548 17.186 11.061 16.9574C10.7667 16.7288 10.7136 16.3045 10.9422 16.0106C11.5407 15.2402 12.2499 14.8496 13.05 14.8496C13.8501 14.8496 14.5593 15.2402 15.1578 16.0102C15.3868 16.3045 15.3337 16.7284 15.039 16.957C14.9161 17.0528 14.7703 17.0996 14.6254 17.0996Z" fill="url(#paint2_radial)"/>
<path d="M4.79251 8.65378C4.47256 8.45848 4.05001 8.57728 3.88441 8.91343C3.70216 9.28243 3.60001 9.69238 3.60001 10.1253C3.60001 11.7421 5.00896 13.0503 6.75001 13.0503C7.74856 13.0503 8.63686 12.6196 9.21376 11.9478C9.38971 11.7426 9.32626 11.4244 9.09541 11.2836L4.79251 8.65378ZM13.4046 11.2836C13.1738 11.4244 13.1103 11.7426 13.2863 11.9478C13.8627 12.6196 14.7515 13.0503 15.75 13.0503C17.4911 13.0503 18.9 11.7421 18.9 10.1253C18.9 9.69238 18.7979 9.28243 18.6161 8.91343C18.45 8.57728 18.0275 8.45848 17.7075 8.65378L13.4046 11.2836Z" fill="white"/>
<path d="M5.88509 9.32129C5.59079 9.56879 5.39999 9.93509 5.39999 10.35C5.39999 11.0961 6.00389 11.7 6.74999 11.7C7.39169 11.7 7.92539 11.2522 8.06309 10.6524L5.88509 9.32129ZM16.6149 9.32129L14.4364 10.6524C14.5741 11.2522 15.1078 11.7 15.75 11.7C16.4961 11.7 17.1 11.0961 17.1 10.35C17.1 9.93509 16.9092 9.56879 16.6149 9.32129Z" fill="url(#paint3_radial)"/>
<defs>
<radialGradient id="paint0_radial" cx="0" cy="0" r="1" gradientUnits="userSpaceOnUse" gradientTransform="translate(11.25 11.25) scale(11.25)">
<stop stop-color="#FFE16E"/>
<stop offset="0.629" stop-color="#FFD426"/>
<stop offset="0.72" stop-color="#FDCD23"/>
<stop offset="0.854" stop-color="#F8B919"/>
<stop offset="1" stop-color="#F09C0C"/>
</radialGradient>
<radialGradient id="paint1_radial" cx="0" cy="0" r="1" gradientUnits="userSpaceOnUse" gradientTransform="translate(9.89516 17.5146) scale(2.2628 2.02654)">
<stop stop-color="#1C1911"/>
<stop offset="0.999" stop-color="#171714"/>
</radialGradient>
<radialGradient id="paint2_radial" cx="0" cy="0" r="1" gradientUnits="userSpaceOnUse" gradientTransform="translate(13.0455 16.6141) scale(2.2628 2.02646)">
<stop stop-color="#1C1911"/>
<stop offset="0.999" stop-color="#171714"/>
</radialGradient>
<radialGradient id="paint3_radial" cx="0" cy="0" r="1" gradientUnits="userSpaceOnUse" gradientTransform="translate(11.2379 11.1867) scale(5.88348 2.14237)">
<stop stop-color="#1C1911"/>
<stop offset="0.999" stop-color="#171714"/>
</radialGradient>
</defs>
</svg>
