<svg width="23" height="23" viewBox="0 0 23 23" fill="none" xmlns="http://www.w3.org/2000/svg">
<path d="M11.25 22.5C17.4375 22.5 22.5 17.4375 22.5 11.25C22.5 5.0625 17.4375 0 11.25 0C5.0625 0 0 5.0625 0 11.25C0 17.4375 5.0625 22.5 11.25 22.5Z" fill="url(#paint0_radial)"/>
<path d="M6.75 12.9375C7.99264 12.9375 9 11.6783 9 10.125C9 8.5717 7.99264 7.3125 6.75 7.3125C5.50736 7.3125 4.5 8.5717 4.5 10.125C4.5 11.6783 5.50736 12.9375 6.75 12.9375Z" fill="white"/>
<path d="M15.75 12.9375C16.9926 12.9375 18 11.6783 18 10.125C18 8.5717 16.9926 7.3125 15.75 7.3125C14.5074 7.3125 13.5 8.5717 13.5 10.125C13.5 11.6783 14.5074 12.9375 15.75 12.9375Z" fill="white"/>
<path d="M6.75 11.5312C7.37132 11.5312 7.875 10.9017 7.875 10.125C7.875 9.34835 7.37132 8.71875 6.75 8.71875C6.12868 8.71875 5.625 9.34835 5.625 10.125C5.625 10.9017 6.12868 11.5312 6.75 11.5312Z" fill="#343434"/>
<path d="M15.75 11.5312C16.3713 11.5312 16.875 10.9017 16.875 10.125C16.875 9.34835 16.3713 8.71875 15.75 8.71875C15.1287 8.71875 14.625 9.34835 14.625 10.125C14.625 10.9017 15.1287 11.5312 15.75 11.5312Z" fill="#343434"/>
<path d="M11.25 15.75C9.39375 15.75 7.875 17.2688 7.875 19.125C7.875 19.4625 8.1 19.6875 8.4375 19.6875H14.0625C14.4 19.6875 14.625 19.4625 14.625 19.125C14.625 17.2688 13.1062 15.75 11.25 15.75Z" fill="#343434"/>
<path d="M13.1625 19.6875C12.7688 19.0125 12.0375 18.5625 11.25 18.5625C10.4063 18.5625 9.73126 19.0125 9.33751 19.6875H13.1625Z" fill="url(#paint1_linear)"/>
<defs>
<radialGradient id="paint0_radial" cx="0" cy="0" r="1" gradientUnits="userSpaceOnUse" gradientTransform="translate(11.25 11.25) scale(11.25)">
<stop stop-color="#FFE16E"/>
<stop offset="0.629" stop-color="#FFD426"/>
<stop offset="0.72" stop-color="#FDCD23"/>
<stop offset="0.854" stop-color="#F8B919"/>
<stop offset="1" stop-color="#F09C0C"/>
</radialGradient>
<linearGradient id="paint1_linear" x1="11.25" y1="20.3074" x2="11.25" y2="18.846" gradientUnits="userSpaceOnUse">
<stop stop-color="#F05964"/>
<stop offset="1" stop-color="#D4414C"/>
</linearGradient>
</defs>
</svg>
