<svg width="23" height="23" viewBox="0 0 23 23" fill="none" xmlns="http://www.w3.org/2000/svg">
<path d="M11.25 22.5C17.4375 22.5 22.5 17.4375 22.5 11.25C22.5 5.0625 17.4375 0 11.25 0C5.0625 0 0 5.0625 0 11.25C0 17.4375 5.0625 22.5 11.25 22.5Z" fill="url(#paint0_radial)"/>
<path d="M9 9C8.83125 9 8.60625 8.8875 8.49375 8.71875C8.2125 8.2125 7.65 7.875 7.03125 7.875C6.4125 7.875 5.85 8.2125 5.56875 8.71875C5.4 9 5.0625 9.05625 4.78125 8.94375C4.5 8.775 4.44375 8.4375 4.55625 8.15625C5.0625 7.3125 6.01875 6.75 6.975 6.75C7.93125 6.75 8.8875 7.3125 9.39375 8.15625C9.5625 8.4375 9.45 8.775 9.16875 8.94375C9.16875 9 9.05625 9 9 9Z" fill="#343434"/>
<path d="M17.4375 9C17.2687 9 17.0437 8.8875 16.9312 8.71875C16.65 8.2125 16.0875 7.875 15.4687 7.875C14.85 7.875 14.2875 8.2125 14.0062 8.71875C13.8375 9 13.5 9.05625 13.2187 8.94375C12.9375 8.775 12.8812 8.4375 12.9937 8.15625C13.5 7.3125 14.4562 6.75 15.4125 6.75C16.3687 6.75 17.325 7.3125 17.8312 8.15625C18 8.4375 17.8875 8.775 17.6062 8.94375C17.6062 9 17.4937 9 17.4375 9Z" fill="#343434"/>
<path d="M4.21875 16.875C5.61672 16.875 6.75 15.7417 6.75 14.3438C6.75 12.9458 5.61672 11.8125 4.21875 11.8125C2.82078 11.8125 1.6875 12.9458 1.6875 14.3438C1.6875 15.7417 2.82078 16.875 4.21875 16.875Z" fill="url(#paint1_radial)"/>
<path d="M15.6375 14.4564C15.8625 14.6814 15.8063 15.0189 15.5813 15.2439C14.3438 16.3127 12.825 16.8752 11.25 16.8752C9.675 16.8752 8.15625 16.3127 6.91875 15.2439C6.69375 15.0189 6.6375 14.6814 6.8625 14.4564C7.0875 14.2314 7.425 14.1752 7.65 14.4002C8.6625 15.2439 9.9 15.7502 11.1938 15.7502C12.4875 15.7502 13.7813 15.2439 14.7375 14.4002C14.85 14.2877 14.9625 14.2314 15.1313 14.2314C15.3563 14.2314 15.525 14.3439 15.6375 14.4564Z" fill="#343434"/>
<path d="M18.2812 16.875C19.6792 16.875 20.8125 15.7417 20.8125 14.3438C20.8125 12.9458 19.6792 11.8125 18.2812 11.8125C16.8833 11.8125 15.75 12.9458 15.75 14.3438C15.75 15.7417 16.8833 16.875 18.2812 16.875Z" fill="url(#paint2_radial)"/>
<path d="M6.41251 16.875C6.24376 16.875 6.13126 16.8188 6.01876 16.7063C5.79376 16.4813 5.79376 16.1437 6.01876 15.9187C6.35626 15.5812 6.58126 15.1313 6.58126 14.625C6.58126 14.1188 6.41251 13.6688 6.07501 13.3313C5.85001 13.1063 5.85001 12.7687 6.07501 12.5437C6.30001 12.3188 6.63751 12.3188 6.86251 12.5437C7.42501 13.1062 7.70626 13.8375 7.70626 14.625C7.70626 15.4125 7.42501 16.1438 6.86251 16.7063C6.69376 16.8188 6.52501 16.875 6.41251 16.875Z" fill="#343434"/>
<path d="M16.0875 16.875C15.9188 16.875 15.8063 16.8188 15.6938 16.7063C15.1313 16.1438 14.85 15.4125 14.85 14.625C14.85 13.8375 15.1313 13.1062 15.6938 12.5437C15.9188 12.3188 16.2563 12.3188 16.4813 12.5437C16.7063 12.7687 16.7063 13.1063 16.4813 13.3313C16.1438 13.6688 15.975 14.1188 15.975 14.625C15.975 15.1313 16.1438 15.5812 16.5375 15.9187C16.7625 16.1437 16.7625 16.4813 16.5375 16.7063C16.3688 16.8188 16.2563 16.875 16.0875 16.875Z" fill="#343434"/>
<defs>
<radialGradient id="paint0_radial" cx="0" cy="0" r="1" gradientUnits="userSpaceOnUse" gradientTransform="translate(11.25 11.25) scale(11.25)">
<stop stop-color="#FFE16E"/>
<stop offset="0.629" stop-color="#FFD226"/>
<stop offset="0.75" stop-color="#FDCD23"/>
<stop offset="0.899" stop-color="#F6BD1B"/>
<stop offset="0.999" stop-color="#F0AF13"/>
</radialGradient>
<radialGradient id="paint1_radial" cx="0" cy="0" r="1" gradientUnits="userSpaceOnUse" gradientTransform="translate(4.21875 14.3438) scale(3.19612)">
<stop stop-color="#F34B56"/>
<stop offset="1" stop-color="#FED300" stop-opacity="0"/>
</radialGradient>
<radialGradient id="paint2_radial" cx="0" cy="0" r="1" gradientUnits="userSpaceOnUse" gradientTransform="translate(18.2812 14.3438) scale(3.19612)">
<stop stop-color="#F34B56"/>
<stop offset="1" stop-color="#FED400" stop-opacity="0"/>
</radialGradient>
</defs>
</svg>
