<svg width="23" height="23" viewBox="0 0 23 23" fill="none" xmlns="http://www.w3.org/2000/svg">
<path d="M11.25 22.5C17.4632 22.5 22.5 17.4632 22.5 11.25C22.5 5.0368 17.4632 0 11.25 0C5.0368 0 0 5.0368 0 11.25C0 17.4632 5.0368 22.5 11.25 22.5Z" fill="url(#paint0_radial)"/>
<path d="M16.7674 9.48242C17.7437 10.4587 17.7437 12.0418 16.7674 13.018C15.7912 13.9943 14.2081 13.9943 13.2318 13.018C13.2318 13.018 13.5812 11.7849 14.5574 10.808C15.5343 9.8318 16.7674 9.48242 16.7674 9.48242Z" fill="white"/>
<path d="M13.8425 11.7221C13.9038 11.8721 13.995 12.0128 14.1163 12.134C14.6044 12.6221 15.3957 12.6221 15.8838 12.134C16.3719 11.6459 16.3719 10.8546 15.8838 10.3665C15.7619 10.2446 15.6219 10.1534 15.4719 10.0928C15.1707 10.2809 14.8538 10.5128 14.5582 10.8084C14.2625 11.104 14.0307 11.4209 13.8425 11.7221Z" fill="#212121"/>
<path d="M5.73255 9.48242C4.7563 10.4587 4.7563 12.0418 5.73255 13.018C6.7088 13.9943 8.29193 13.9943 9.26818 13.018C9.26818 13.018 8.9188 11.7849 7.94255 10.808C6.96568 9.8318 5.73255 9.48242 5.73255 9.48242Z" fill="white"/>
<path d="M8.65746 11.7221C8.59621 11.8721 8.50496 12.0128 8.38371 12.134C7.89559 12.6221 7.10434 12.6221 6.61622 12.134C6.12809 11.6459 6.12809 10.8546 6.61622 10.3665C6.73809 10.2446 6.87809 10.1534 7.02809 10.0928C7.32934 10.2809 7.64622 10.5128 7.94184 10.8084C8.23747 11.104 8.46934 11.4209 8.65746 11.7221Z" fill="#212121"/>
<path d="M8.2312 17.0326C8.2312 17.0326 8.9287 17.5001 11.25 17.5001C13.4 17.5001 14.2668 17.0326 14.2668 17.0326C14.2668 17.0326 13.7275 16.1045 11.25 16.1045C8.77245 16.1045 8.2312 17.0326 8.2312 17.0326Z" fill="url(#paint1_radial)"/>
<path d="M11.25 16.875C13.37 16.875 13.9438 17.2556 13.9438 17.2556C13.9438 17.2556 13.3938 18.125 11.25 18.125C9.10627 18.125 8.55627 17.2556 8.55627 17.2556C8.55627 17.2556 9.13002 16.875 11.25 16.875Z" fill="url(#paint2_radial)"/>
<path d="M14.1882 16.9969C14.5013 17.1694 14.81 16.7731 14.5682 16.51C13.8657 15.7462 12.7863 15 11.25 15C9.71379 15 8.63442 15.7462 7.93191 16.51C7.69004 16.7731 7.99879 17.1694 8.31191 16.9969C9.03129 16.5994 10.015 16.25 11.25 16.25C12.485 16.25 13.4688 16.5994 14.1882 16.9969Z" fill="url(#paint3_radial)"/>
<path d="M18.4375 9.38702C17.8675 9.41577 17.31 9.44264 16.8025 9.55514C16.2938 9.66452 15.8525 9.88702 15.4706 10.2045C15.0881 10.522 14.7669 10.9351 14.4819 11.3801C14.1888 11.8201 13.9481 12.312 13.69 12.7914L13.6781 12.8139C13.5119 13.1226 13.1263 13.2376 12.8175 13.0714C12.5088 12.9051 12.3938 12.5195 12.56 12.2108L12.5613 12.2083C12.845 11.6876 13.1488 11.1751 13.5325 10.6976C13.9119 10.222 14.3444 9.76264 14.88 9.40264C15.4113 9.04139 16.0494 8.80889 16.6663 8.74389C17.2844 8.67327 17.8706 8.71014 18.4381 8.73764C18.6175 8.74639 18.7556 8.89889 18.7469 9.07764C18.7381 9.24639 18.6019 9.37827 18.4375 9.38702Z" fill="#805B2A"/>
<path d="M4.06253 8.73764C4.63003 8.71014 5.21691 8.67327 5.83441 8.74389C6.45128 8.80889 7.08878 9.04139 7.62066 9.40264C8.15628 9.76264 8.58878 10.2214 8.96816 10.6976C9.35191 11.1758 9.65503 11.6876 9.93941 12.2083C10.1075 12.5164 9.99378 12.902 9.68628 13.0701C9.37816 13.2383 8.99253 13.1245 8.82441 12.817L8.82316 12.8145L8.81128 12.792C8.55253 12.3126 8.31191 11.8201 8.01941 11.3808C7.73378 10.9358 7.41253 10.5226 7.03066 10.2051C6.64878 9.88764 6.20816 9.66514 5.69878 9.55577C5.19066 9.44327 4.63316 9.41639 4.06378 9.38764C3.88441 9.37889 3.74628 9.22639 3.75503 9.04764C3.76191 8.87827 3.89816 8.74639 4.06253 8.73764Z" fill="#805B2A"/>
<defs>
<radialGradient id="paint0_radial" cx="0" cy="0" r="1" gradientUnits="userSpaceOnUse" gradientTransform="translate(11.25 11.25) scale(11.25)">
<stop stop-color="#FFE16E"/>
<stop offset="0.629" stop-color="#FFD426"/>
<stop offset="0.72" stop-color="#FDCD23"/>
<stop offset="0.854" stop-color="#F8B919"/>
<stop offset="1" stop-color="#F09C0C"/>
</radialGradient>
<radialGradient id="paint1_radial" cx="0" cy="0" r="1" gradientUnits="userSpaceOnUse" gradientTransform="translate(11.2486 15.4452) rotate(89.194) scale(2.32011 6.85276)">
<stop offset="0.629" stop-color="#FFE16E"/>
<stop offset="0.871" stop-color="#FFE16E" stop-opacity="0"/>
</radialGradient>
<radialGradient id="paint2_radial" cx="0" cy="0" r="1" gradientUnits="userSpaceOnUse" gradientTransform="translate(11.2613 16.1144) rotate(180) scale(3.19699 1.95337)">
<stop offset="0.284" stop-color="#CC9000"/>
<stop offset="1" stop-color="#CC9000" stop-opacity="0"/>
</radialGradient>
<radialGradient id="paint3_radial" cx="0" cy="0" r="1" gradientUnits="userSpaceOnUse" gradientTransform="translate(11.243 16.599) scale(3.42431 1.83641)">
<stop stop-color="#1C1911"/>
<stop offset="0.999" stop-color="#171714"/>
</radialGradient>
</defs>
</svg>
