<svg width="23" height="24" viewBox="0 0 23 24" fill="none" xmlns="http://www.w3.org/2000/svg">
<path d="M11.25 23.375C17.4628 23.375 22.5 18.3378 22.5 12.125C22.5 5.91219 17.4628 0.875 11.25 0.875C5.03719 0.875 0 5.91219 0 12.125C0 18.3378 5.03719 23.375 11.25 23.375Z" fill="url(#paint0_radial)"/>
<path d="M11.25 18.8749C10.9395 18.8749 10.6875 18.6229 10.6875 18.3124C10.6875 18.0019 10.9395 17.7499 11.25 17.7499C12.6304 17.7499 13.9404 17.2251 14.9389 16.2728C15.1639 16.0585 15.5199 16.0664 15.7343 16.2914C15.9486 16.5158 15.9401 16.8724 15.7157 17.0867C14.5069 18.2399 12.9212 18.8749 11.25 18.8749Z" fill="#343434"/>
<path d="M9.68515 11.0703L8.90271 10.2614C9.53552 9.65 10.3691 9.3125 11.25 9.3125C12.0319 9.3125 12.7946 9.58644 13.3971 10.0831L12.6816 10.9511C11.8277 10.2468 10.4816 10.2991 9.68515 11.0703Z" fill="#343434"/>
<path d="M4.65691 8.75H8.87848C10.0845 8.75 10.6875 9.37494 10.6875 10.6254C10.6875 11.8758 8.87848 14.3761 6.46591 14.3761C2.84735 14.3761 2.84735 11.3133 2.84735 10.6254C2.84735 9.37494 3.99373 8.75 4.65691 8.75Z" fill="#343434"/>
<path d="M19.6875 10.6254C19.6875 11.3128 19.6875 14.3761 16.0689 14.3761C13.6569 14.3761 11.8474 11.8758 11.8474 10.6254C11.8474 9.37494 12.4509 8.75 13.6569 8.75H17.8785C18.5417 8.75 19.6875 9.37494 19.6875 10.6254Z" fill="#343434"/>
<defs>
<radialGradient id="paint0_radial" cx="0" cy="0" r="1" gradientUnits="userSpaceOnUse" gradientTransform="translate(11.25 12.125) scale(11.25)">
<stop stop-color="#FFE16E"/>
<stop offset="0.629" stop-color="#FFD226"/>
<stop offset="0.75" stop-color="#FDCD23"/>
<stop offset="0.899" stop-color="#F6BD1B"/>
<stop offset="0.999" stop-color="#F0AF13"/>
</radialGradient>
</defs>
</svg>
