<svg width="23" height="23" viewBox="0 0 23 23" fill="none" xmlns="http://www.w3.org/2000/svg">
<path d="M11.25 22.5C17.4632 22.5 22.5 17.4632 22.5 11.25C22.5 5.0368 17.4632 0 11.25 0C5.0368 0 0 5.0368 0 11.25C0 17.4632 5.0368 22.5 11.25 22.5Z" fill="url(#paint0_radial)"/>
<path d="M12.5 10.625C12.5 10.625 13.4231 12.5 15.625 12.5C17.8269 12.5 18.75 10.625 18.75 10.625C18.75 8.89938 17.3506 7.5 15.625 7.5C13.8994 7.5 12.5 8.89938 12.5 10.625Z" fill="white"/>
<path d="M15.625 11.25C16.6605 11.25 17.5 10.4105 17.5 9.375C17.5 8.33947 16.6605 7.5 15.625 7.5C14.5895 7.5 13.75 8.33947 13.75 9.375C13.75 10.4105 14.5895 11.25 15.625 11.25Z" fill="#212121"/>
<path d="M3.75 10.625C3.75 10.625 4.67312 12.5 6.875 12.5C9.07688 12.5 10 10.625 10 10.625C10 8.89938 8.60062 7.5 6.875 7.5C5.14938 7.5 3.75 8.89938 3.75 10.625Z" fill="white"/>
<path d="M6.875 11.25C7.91053 11.25 8.75 10.4105 8.75 9.375C8.75 8.33947 7.91053 7.5 6.875 7.5C5.83947 7.5 5 8.33947 5 9.375C5 10.4105 5.83947 11.25 6.875 11.25Z" fill="#212121"/>
<path d="M19.0456 6.24964C18.525 6.24026 18.0313 6.19026 17.5256 6.11589C17.0238 6.03776 16.5225 5.93589 16.0263 5.78464C15.0425 5.48464 14.0363 5.01839 13.2506 4.14276C13.0156 3.88151 13.0375 3.47901 13.2988 3.24401C13.56 3.00901 13.9625 3.03089 14.1975 3.29214C14.2138 3.31026 14.2288 3.32901 14.2425 3.34839L14.2481 3.35651C14.7125 4.01714 15.4913 4.53214 16.3456 4.89214C17.2006 5.25151 18.1481 5.49776 19.0781 5.62464L19.0931 5.62651C19.2644 5.65026 19.3838 5.80776 19.36 5.97839C19.3394 6.13839 19.2019 6.25276 19.0456 6.24964Z" fill="#805B2A"/>
<path d="M3.43687 5.62503C3.88937 5.58628 4.37062 5.49753 4.82437 5.38128C5.28187 5.26316 5.72624 5.10878 6.14937 4.92191C6.57499 4.73878 6.96687 4.50066 7.32999 4.24003C7.69437 3.97878 7.99812 3.66003 8.27249 3.33128L8.29437 3.30503C8.51937 3.03503 8.92124 2.99878 9.19124 3.22378C9.46124 3.44878 9.49749 3.85066 9.27249 4.12066C9.25874 4.13753 9.24374 4.15378 9.22812 4.16816C8.83124 4.55566 8.40437 4.90441 7.93499 5.16941C7.46812 5.43316 6.98437 5.65441 6.48562 5.80753C5.98812 5.96503 5.48374 6.07878 4.97687 6.15191C4.46624 6.22316 3.96874 6.26253 3.43874 6.24941C3.26624 6.24503 3.12999 6.10191 3.13374 5.92941C3.13749 5.76878 3.26187 5.64003 3.41749 5.62566L3.43687 5.62503Z" fill="#805B2A"/>
<path d="M11.2519 16.875C9.01501 16.875 9.37501 16.875 9.37501 16.875C9.37501 16.875 10.0038 18.125 11.2519 18.125C12.5 18.125 13.125 16.875 13.125 16.875C13.125 16.875 13.4888 16.875 11.2519 16.875Z" fill="url(#paint1_radial)"/>
<path d="M13.3294 16.8755C13.3294 16.8755 13.7056 16.8755 11.25 16.8755C8.79438 16.8755 9.17063 16.8755 9.17063 16.8755V15.5898H13.3294V16.8755Z" fill="url(#paint2_radial)"/>
<path d="M9.0625 16.25C9.23509 16.25 9.375 16.1101 9.375 15.9375C9.375 15.7649 9.23509 15.625 9.0625 15.625C8.88991 15.625 8.75 15.7649 8.75 15.9375C8.75 16.1101 8.88991 16.25 9.0625 16.25Z" fill="url(#paint3_radial)"/>
<path d="M9.15875 16.2312C9.15875 16.2312 10.0306 15.9375 11.25 15.9375C12.4694 15.9375 13.3512 16.2369 13.3512 16.2369L13.6337 15.6975C13.6337 15.6975 12.7712 15 11.25 15C9.72875 15 8.85812 15.6975 8.85812 15.6975L9.15875 16.2312Z" fill="url(#paint4_radial)"/>
<path d="M13.4375 16.25C13.6101 16.25 13.75 16.1101 13.75 15.9375C13.75 15.7649 13.6101 15.625 13.4375 15.625C13.2649 15.625 13.125 15.7649 13.125 15.9375C13.125 16.1101 13.2649 16.25 13.4375 16.25Z" fill="url(#paint5_radial)"/>
<defs>
<radialGradient id="paint0_radial" cx="0" cy="0" r="1" gradientUnits="userSpaceOnUse" gradientTransform="translate(11.25 11.25) scale(11.25)">
<stop stop-color="#FFE16E"/>
<stop offset="0.629" stop-color="#FFD426"/>
<stop offset="0.72" stop-color="#FDCD23"/>
<stop offset="0.854" stop-color="#F8B919"/>
<stop offset="1" stop-color="#F09C0C"/>
</radialGradient>
<radialGradient id="paint1_radial" cx="0" cy="0" r="1" gradientUnits="userSpaceOnUse" gradientTransform="translate(11.2926 16.0609) scale(2.27203 1.70118)">
<stop offset="0.582" stop-color="#CC9000"/>
<stop offset="1" stop-color="#CC9000" stop-opacity="0"/>
</radialGradient>
<radialGradient id="paint2_radial" cx="0" cy="0" r="1" gradientUnits="userSpaceOnUse" gradientTransform="translate(11.2775 16.5148) scale(2.23062)">
<stop stop-color="#FFE16E"/>
<stop offset="1" stop-color="#FFE16E" stop-opacity="0"/>
</radialGradient>
<radialGradient id="paint3_radial" cx="0" cy="0" r="1" gradientUnits="userSpaceOnUse" gradientTransform="translate(9.05813 16.2731) rotate(180) scale(0.540625)">
<stop stop-color="#1C1911"/>
<stop offset="0.999" stop-color="#171714"/>
</radialGradient>
<radialGradient id="paint4_radial" cx="0" cy="0" r="1" gradientUnits="userSpaceOnUse" gradientTransform="translate(11.2137 16.2831) rotate(180) scale(2.02062)">
<stop stop-color="#1C1911"/>
<stop offset="0.999" stop-color="#171714"/>
</radialGradient>
<radialGradient id="paint5_radial" cx="0" cy="0" r="1" gradientUnits="userSpaceOnUse" gradientTransform="translate(13.4419 16.2731) scale(0.540625)">
<stop stop-color="#1C1911"/>
<stop offset="0.999" stop-color="#171714"/>
</radialGradient>
</defs>
</svg>
