<svg width="21" height="23" viewBox="0 0 21 23" fill="none" xmlns="http://www.w3.org/2000/svg">
<path d="M10.25 20.2519C15.9109 20.2519 20.5 15.7184 20.5 10.126C20.5 4.53354 15.9109 0 10.25 0C4.58908 0 0 4.53354 0 10.126C0 15.7184 4.58908 20.2519 10.25 20.2519Z" fill="url(#paint0_radial)"/>
<path d="M5.125 11.8141C5.125 11.8141 5.96778 13.1851 7.91528 13.7066C10.3907 14.3692 11.3889 13.5018 11.3889 13.5018C11.3889 13.5018 9.21076 11.7517 5.125 11.8141Z" fill="url(#paint1_radial)"/>
<path d="M5.69443 8.4389C6.95242 8.4389 7.97221 7.43144 7.97221 6.18869C7.97221 4.94593 6.95242 3.93848 5.69443 3.93848C4.43645 3.93848 3.41666 4.94593 3.41666 6.18869C3.41666 7.43144 4.43645 8.4389 5.69443 8.4389Z" fill="white"/>
<path d="M5.69444 6.75021C6.32343 6.75021 6.83333 6.24648 6.83333 5.62511C6.83333 5.00373 6.32343 4.5 5.69444 4.5C5.06545 4.5 4.55555 5.00373 4.55555 5.62511C4.55555 6.24648 5.06545 6.75021 5.69444 6.75021Z" fill="#212121"/>
<path d="M15.9444 7.31341C15.9444 8.55609 14.9246 9.56362 13.6667 9.56362C12.4088 9.56362 11.3889 8.55609 11.3889 7.31341C11.3889 6.4527 11.878 5.70507 12.5967 5.32647C12.9156 5.15827 13.1553 5.37598 13.5425 5.37598C14.8004 5.37598 15.9444 6.07073 15.9444 7.31341Z" fill="white"/>
<path d="M13.6667 7.87619C14.2957 7.87619 14.8056 7.37246 14.8056 6.75108C14.8056 6.1297 14.2957 5.62598 13.6667 5.62598C13.0377 5.62598 12.5278 6.1297 12.5278 6.75108C12.5278 7.37246 13.0377 7.87619 13.6667 7.87619Z" fill="#212121"/>
<path d="M5.40973 11.251V10.6885C10.3907 10.6885 12.2334 11.8828 12.2334 11.8828L11.6184 12.8307C11.619 12.8307 9.8998 11.251 5.40973 11.251Z" fill="url(#paint2_radial)"/>
<path d="M5.40972 11.251C5.56697 11.251 5.69444 11.1251 5.69444 10.9698C5.69444 10.8144 5.56697 10.6885 5.40972 10.6885C5.25247 10.6885 5.125 10.8144 5.125 10.9698C5.125 11.1251 5.25247 11.251 5.40972 11.251Z" fill="url(#paint3_radial)"/>
<path d="M11.9583 12.9386C12.2728 12.9386 12.5278 12.6867 12.5278 12.376C12.5278 12.0653 12.2728 11.8135 11.9583 11.8135C11.6438 11.8135 11.3889 12.0653 11.3889 12.376C11.3889 12.6867 11.6438 12.9386 11.9583 12.9386Z" fill="url(#paint4_radial)"/>
<path d="M13.2407 15.9694C12.7009 15.8282 10.6879 15.8062 10.1401 15.912C9.35881 16.0628 8.57754 16.2135 7.79683 16.3637C7.54741 16.4121 9.02398 20.1823 9.02398 20.1823C9.73351 20.3084 10.6025 20.1002 10.4931 19.5579C10.447 19.329 10.8246 19.0173 10.9869 18.8452C11.2835 18.5313 10.8115 18.0902 11.025 18.0576C11.6856 17.9563 12.8706 17.2987 13.2407 15.9694Z" fill="url(#paint5_radial)"/>
<path d="M3.6695 11.5342C3.32043 11.9651 4.61478 14.7525 4.49121 15.2903C4.31525 16.0571 4.13929 16.8239 3.96391 17.5912C3.90753 17.8359 7.99614 18.0238 7.99614 18.0238C8.20285 17.6503 7.91699 16.9943 7.37032 16.8745C7.1397 16.8239 7.02695 16.537 6.93356 16.3209C6.76272 15.926 6.24909 16.2433 6.29179 16.034C6.31799 15.9041 5.88122 12.7341 3.6695 11.5342Z" fill="url(#paint6_radial)"/>
<path d="M4.67001 22.2182C2.88025 22.2182 1.42418 20.7798 1.42418 19.0117V17.8213C1.42418 17.5012 1.58191 16.802 1.71061 16.5527C2.14396 15.7129 2.22254 15.1981 2.29885 14.7008L2.33415 14.4792C2.3985 14.0927 2.29885 13.3153 2.23222 12.8011C2.2083 12.6132 2.1878 12.4534 2.17869 12.3449C2.16047 12.1243 2.22539 11.9274 2.36661 11.7767C2.50783 11.6248 2.72479 11.5303 2.93207 11.5303C2.99357 11.5303 3.05108 11.5387 3.10347 11.5556C4.14157 11.8864 4.63357 13.2967 4.63926 14.1456C4.6461 15.197 4.76397 15.8057 5.34651 15.8057C5.80662 15.8057 5.98657 15.7832 6.58448 15.7095C7.94773 15.5413 11.2289 14.8786 11.5187 14.7903C11.837 14.6935 12.0677 14.6502 12.2675 14.6502C12.7305 14.6502 12.9486 14.8949 13.05 15.1002C13.3073 15.6228 12.7835 16.2163 12.3296 16.4712C11.4259 16.9792 10.3012 17.1834 9.55698 17.3184C9.42658 17.342 9.28707 17.3673 9.17147 17.391C9.32351 17.5271 9.52851 17.7139 9.58489 18.0283C9.65607 18.4328 9.42829 18.6573 9.29162 18.7911C9.26144 18.821 9.21532 18.866 9.20621 18.8845C9.21076 18.9228 9.23696 18.9847 9.28365 19.0887C9.34743 19.2316 9.42715 19.41 9.44366 19.6676C9.46701 20.031 9.15723 20.3185 8.90896 20.5491C8.84233 20.611 8.7461 20.6999 8.70737 20.75C8.71079 20.7725 8.71876 20.7927 8.73015 20.8253C8.77969 20.9603 8.82012 21.1049 8.77115 21.38C8.67776 21.9049 8.09864 22.2182 7.22226 22.2182H4.67001V22.2182Z" fill="white"/>
<path d="M2.93149 11.8106C2.96281 11.8106 2.99185 11.8145 3.01577 11.8219C3.86766 12.093 4.34884 13.3289 4.35453 14.1463C4.36023 14.9637 4.39269 16.086 5.3465 16.086C5.81914 16.086 6.00194 16.0641 6.61978 15.9881C7.97563 15.8205 11.2784 15.1572 11.6024 15.0588C11.8461 14.9845 12.0739 14.9316 12.2675 14.9316C12.5027 14.9316 12.6884 15.0098 12.7937 15.2236C12.9708 15.5831 12.5124 16.0455 12.1889 16.2272C10.7648 17.0272 8.69825 17.0491 8.73584 17.2724C8.7831 17.5531 9.23125 17.6701 9.30357 18.0774C9.38216 18.5213 8.92489 18.6012 8.92489 18.8628C8.92489 19.1243 9.13331 19.2942 9.15837 19.6858C9.18399 20.0863 8.41866 20.4852 8.41866 20.7141C8.41866 20.9436 8.55532 20.9622 8.48984 21.3312C8.42435 21.7003 7.96766 21.9366 7.22168 21.9366C6.47571 21.9366 4.67057 21.9366 4.67057 21.9366C3.03513 21.9366 1.71003 20.6269 1.71003 19.0113V17.8209C1.71003 17.5318 1.86151 16.8815 1.96571 16.6801C2.48619 15.672 2.52149 15.0937 2.61602 14.5238C2.71055 13.9539 2.49871 12.7405 2.46341 12.3208C2.43209 11.9591 2.73731 11.8106 2.93149 11.8106ZM2.93149 11.248C2.64278 11.248 2.35294 11.3741 2.15648 11.585C1.96287 11.7926 1.87005 12.0705 1.8951 12.367C1.90421 12.4778 1.92528 12.6421 1.94977 12.8344C2.01013 13.3031 2.11035 14.0867 2.05284 14.4327C2.04031 14.5075 2.02892 14.5817 2.01753 14.6577C1.94464 15.1336 1.86948 15.6253 1.4572 16.4247C1.30857 16.7121 1.13945 17.4564 1.13945 17.8215V19.0118C1.13945 20.9352 2.72307 22.4997 4.66944 22.4997H7.22055C8.74153 22.4997 9.00518 21.68 9.0496 21.4291C9.09914 21.1501 9.07124 20.9673 9.02739 20.8238C9.05302 20.7996 9.07921 20.7749 9.10142 20.7546C9.37817 20.4975 9.75742 20.1454 9.72553 19.6503C9.7056 19.3426 9.60709 19.1221 9.54217 18.9758C9.53875 18.968 9.53477 18.9595 9.53135 18.9511C9.68567 18.7953 9.95274 18.4819 9.86391 17.9801C9.836 17.822 9.77849 17.6887 9.70959 17.5762C10.4709 17.4373 11.5648 17.224 12.4697 16.7155C12.9822 16.4275 13.6615 15.7012 13.3051 14.9766C13.1929 14.7494 12.9093 14.3685 12.267 14.3685C12.0369 14.3685 11.7801 14.4158 11.4339 14.521C11.1423 14.6087 7.88566 15.2647 6.5486 15.4301C5.95012 15.5038 5.78896 15.524 5.34594 15.524C5.09082 15.524 4.93081 15.2928 4.92341 14.1435C4.91714 13.1849 4.3756 11.6649 3.19002 11.2869C3.10973 11.261 3.0226 11.248 2.93149 11.248Z" fill="#1C1911"/>
<path d="M3.54537 2.85905C3.90754 2.61603 4.26743 2.45401 4.66604 2.32575C5.06066 2.20199 5.48148 2.13561 5.90856 2.13673C6.33451 2.13673 6.77184 2.20086 7.17957 2.34656C7.59697 2.47651 7.97166 2.69422 8.33212 2.92824C8.60033 3.10207 8.67493 3.45761 8.49897 3.72257C8.32301 3.98753 7.96312 4.06122 7.69491 3.8874C7.67612 3.87502 7.65847 3.86208 7.64138 3.84802L7.6112 3.8227C7.36008 3.61287 7.0987 3.40641 6.80089 3.27196C6.5099 3.1212 6.18987 3.03175 5.85902 2.98787C5.52818 2.94343 5.18252 2.95075 4.83972 3.0115C4.50261 3.07057 4.1467 3.18533 3.85629 3.32878L3.83123 3.34116C3.69115 3.41035 3.52032 3.35466 3.45027 3.21571C3.3865 3.08913 3.4292 2.93668 3.54537 2.85905Z" fill="#805B2A"/>
<path d="M16.8755 5.61495C16.4501 5.74659 16.0435 5.83209 15.6176 5.89679C15.1951 5.95979 14.7663 5.99298 14.3335 5.99692C13.9013 6.00423 13.4645 5.97273 13.0295 5.90691C12.5921 5.84953 12.1616 5.72802 11.734 5.5902C11.4293 5.49231 11.263 5.16828 11.3621 4.86732C11.4612 4.56635 11.7892 4.40208 12.0939 4.49997C12.1149 4.50672 12.1354 4.51459 12.1554 4.5236L12.1816 4.53541C12.5192 4.68842 12.8672 4.83694 13.2379 4.93032C13.6057 5.03158 13.9861 5.10584 14.3745 5.14522C14.7623 5.18741 15.1563 5.20428 15.5515 5.19191C15.9433 5.18009 16.3505 5.14128 16.7212 5.07321L16.7382 5.06983C16.8926 5.04171 17.0412 5.1424 17.0702 5.29486C17.097 5.43718 17.011 5.57332 16.8755 5.61495Z" fill="#805B2A"/>
<defs>
<radialGradient id="paint0_radial" cx="0" cy="0" r="1" gradientUnits="userSpaceOnUse" gradientTransform="translate(10.25 10.126) scale(10.25 10.126)">
<stop stop-color="#FFE16E"/>
<stop offset="0.629" stop-color="#FFD226"/>
<stop offset="0.75" stop-color="#FDCD23"/>
<stop offset="0.899" stop-color="#F6BD1B"/>
<stop offset="0.999" stop-color="#F0AF13"/>
</radialGradient>
<radialGradient id="paint1_radial" cx="0" cy="0" r="1" gradientUnits="userSpaceOnUse" gradientTransform="translate(9.32696 9.409) rotate(-20.1048) scale(4.40394 4.36332)">
<stop offset="0.621" stop-color="#CC9000"/>
<stop offset="1" stop-color="#CC9000" stop-opacity="0"/>
</radialGradient>
<radialGradient id="paint2_radial" cx="0" cy="0" r="1" gradientUnits="userSpaceOnUse" gradientTransform="translate(8.45533 12.1029) rotate(-155.592) scale(3.62195 1.34881)">
<stop stop-color="#1C1911"/>
<stop offset="0.999" stop-color="#171714"/>
</radialGradient>
<radialGradient id="paint3_radial" cx="0" cy="0" r="1" gradientUnits="userSpaceOnUse" gradientTransform="translate(5.40979 10.8127) rotate(-155.592) scale(0.502891 0.187276)">
<stop stop-color="#1C1911"/>
<stop offset="0.999" stop-color="#171714"/>
</radialGradient>
<radialGradient id="paint4_radial" cx="0" cy="0" r="1" gradientUnits="userSpaceOnUse" gradientTransform="translate(11.9579 12.0607) rotate(-20.1025) scale(1.007 0.374526)">
<stop stop-color="#1C1911"/>
<stop offset="0.999" stop-color="#171714"/>
</radialGradient>
<radialGradient id="paint5_radial" cx="0" cy="0" r="1" gradientUnits="userSpaceOnUse" gradientTransform="translate(7.91129 15.9199) scale(4.30386 4.25177)">
<stop stop-color="#CC9000"/>
<stop offset="1" stop-color="#CC9000" stop-opacity="0"/>
</radialGradient>
<radialGradient id="paint6_radial" cx="0" cy="0" r="1" gradientUnits="userSpaceOnUse" gradientTransform="translate(2.80566 15.9597) rotate(-8.30609) scale(3.30094 5.23845)">
<stop offset="0.734" stop-color="#CC9000"/>
<stop offset="1" stop-color="#CC9000" stop-opacity="0"/>
</radialGradient>
</defs>
</svg>
