<svg width="23" height="23" viewBox="0 0 23 23" fill="none" xmlns="http://www.w3.org/2000/svg">
<path d="M10.7826 20.8946C16.6686 20.8946 21.4402 16.2451 21.4402 10.5098C21.4402 4.77442 16.6686 0.125 10.7826 0.125C4.89658 0.125 0.125 4.77442 0.125 10.5098C0.125 16.2451 4.89658 20.8946 10.7826 20.8946Z" fill="url(#paint0_radial)"/>
<path d="M15.8467 8.43945C15.8467 8.43945 15.5886 11.5353 11.8282 12.6643C8.34496 13.7097 6.06956 11.3749 6.06956 11.3749C6.06956 11.3749 7.39229 12.3695 11.4055 11.1649C15.4187 9.96025 15.8467 8.43945 15.8467 8.43945Z" fill="url(#paint1_radial)"/>
<path d="M11.8288 12.6645C7.97257 13.8224 5.59355 11.0231 5.59355 11.0231C5.59355 11.0231 7.60725 15.139 12.1776 13.767C16.7479 12.3951 16.035 7.88867 16.035 7.88867C16.035 7.88867 15.6851 11.5066 11.8288 12.6645Z" fill="url(#paint2_radial)"/>
<path d="M15.4862 7.81683C15.6774 7.5301 16.1327 7.75279 16.0114 8.07357C15.4584 9.54244 14.2582 11.3315 11.6542 12.1132C9.04958 12.895 7.02463 12.0746 5.71907 11.163C5.43368 10.964 5.68118 10.5307 6.00505 10.6628C7.3414 11.2075 9.23668 11.6315 11.3054 11.0107C13.3742 10.39 14.6963 9.00012 15.4862 7.81683Z" fill="url(#paint3_radial)"/>
<path d="M15.591 4.27713C15.7545 4.27713 15.887 4.14798 15.887 3.98866C15.887 3.82935 15.7545 3.7002 15.591 3.7002C15.4275 3.7002 15.2949 3.82935 15.2949 3.98866C15.2949 4.14798 15.4275 4.27713 15.591 4.27713Z" fill="#212121"/>
<path d="M11.8436 5.3787C11.8436 5.3787 12.6554 4.56465 13.5222 4.30445C14.389 4.04426 15.53 4.27157 15.53 4.27157L15.7556 3.74829C15.7556 3.74829 14.376 2.84308 13.1741 3.20424C11.9721 3.56483 11.3546 5.06947 11.3546 5.06947L11.8436 5.3787Z" fill="#212121"/>
<path d="M11.6299 5.4656C11.7934 5.4656 11.9259 5.33645 11.9259 5.17714C11.9259 5.01782 11.7934 4.88867 11.6299 4.88867C11.4664 4.88867 11.3338 5.01782 11.3338 5.17714C11.3338 5.33645 11.4664 5.4656 11.6299 5.4656Z" fill="#212121"/>
<path d="M7.66882 6.65506C7.83232 6.65506 7.96486 6.52591 7.96486 6.36659C7.96486 6.20728 7.83232 6.07812 7.66882 6.07812C7.50532 6.07812 7.37277 6.20728 7.37277 6.36659C7.37277 6.52591 7.50532 6.65506 7.66882 6.65506Z" fill="#212121"/>
<path d="M3.92148 7.75663C3.92148 7.75663 4.73324 6.94258 5.60006 6.68238C6.46688 6.42219 7.60784 6.6495 7.60784 6.6495L7.83342 6.12622C7.83342 6.12622 6.45385 5.22101 5.25191 5.58217C4.04997 5.94333 3.43242 7.44739 3.43242 7.44739L3.92148 7.75663Z" fill="#212121"/>
<path d="M3.70832 7.84451C3.87182 7.84451 4.00437 7.71536 4.00437 7.55604C4.00437 7.39673 3.87182 7.26758 3.70832 7.26758C3.54482 7.26758 3.41228 7.39673 3.41228 7.55604C3.41228 7.71536 3.54482 7.84451 3.70832 7.84451Z" fill="#212121"/>
<path d="M17.2956 9.93241C18.9306 9.93241 20.256 8.6409 20.256 7.04775C20.256 5.45459 18.9306 4.16309 17.2956 4.16309C15.6606 4.16309 14.3351 5.45459 14.3351 7.04775C14.3351 8.6409 15.6606 9.93241 17.2956 9.93241Z" fill="url(#paint4_radial)"/>
<path d="M3.67753 14.5486C5.31254 14.5486 6.63798 13.2571 6.63798 11.664C6.63798 10.0708 5.31254 8.7793 3.67753 8.7793C2.04252 8.7793 0.717087 10.0708 0.717087 11.664C0.717087 13.2571 2.04252 14.5486 3.67753 14.5486Z" fill="url(#paint5_radial)"/>
<path d="M14.9332 22.3368C14.6738 22.3368 13.8834 22.3368 13.7608 21.6572C13.72 21.4293 13.7697 21.2233 13.9053 21.0606C13.9876 20.9625 14.1285 20.85 14.3659 20.7877C14.0367 20.7641 13.7614 20.7427 13.6193 20.7225C12.7116 20.5921 12.6495 20.0106 12.6655 19.766C12.7099 19.0863 13.4731 19.0437 13.8331 19.0402C13.6412 19.0033 13.4517 18.9629 13.27 18.919C12.7193 18.7852 12.1728 18.3819 12.2759 17.8131C12.3197 17.5661 12.5121 17.1519 13.3014 17.1519C13.405 17.1519 13.5157 17.1588 13.6341 17.1715C13.7442 17.1836 13.8686 17.2009 14.0018 17.2205C13.8881 17.1675 13.7733 17.1092 13.659 17.0457C13.2321 16.8092 12.7412 16.2553 12.9864 15.7638C13.0829 15.5699 13.2913 15.3386 13.7336 15.3386C13.9201 15.3386 14.135 15.3778 14.4287 15.4667C14.4761 15.4805 14.5584 15.5076 14.6673 15.544C15.2345 15.7315 16.5626 16.17 17.5798 16.294C17.8812 16.3303 18.3584 16.3534 18.7261 16.3661L18.256 15.5596C17.7545 14.7472 18.0268 13.6811 18.8664 13.1889C18.9588 13.1347 19.0642 13.1064 19.1719 13.1064C19.3792 13.1064 19.5734 13.2138 19.6799 13.3863L20.3721 15.0046C20.5793 15.233 21.6392 16.4192 22.0749 17.2846C22.1051 17.3434 22.1193 17.3965 22.13 17.4357C22.2543 17.6567 22.3284 17.9434 22.3284 18.2342V19.3079C22.3284 20.921 20.9814 22.2341 19.3259 22.2341H17.636C16.9694 22.2341 15.2659 22.3252 15.2487 22.3264C15.1368 22.3327 15.0309 22.3368 14.9332 22.3368Z" fill="white"/>
<path d="M19.1719 13.3943C19.2726 13.3943 19.3703 13.4439 19.4259 13.5345L20.1181 15.1597C20.1181 15.1597 21.3479 16.4953 21.8097 17.4115C21.8275 17.4467 21.8363 17.4807 21.8452 17.5148C21.9607 17.7305 22.0323 17.9729 22.0323 18.233V19.3067C22.0323 20.7635 20.8203 21.9445 19.3253 21.9445C19.3253 21.9445 18.3175 21.9445 17.6355 21.9445C16.9534 21.9445 15.2322 22.0373 15.2322 22.0373C15.1238 22.0448 15.0243 22.0483 14.9326 22.0483C14.3458 22.0483 14.1036 21.8948 14.0515 21.6069C13.9917 21.2741 14.2232 21.045 14.7159 21.0306C15.1629 21.0173 16.6188 21.0098 16.6188 20.8027C16.6188 20.5956 14.1919 20.5137 13.6625 20.4375C13.18 20.3683 12.9378 20.1456 12.9615 19.7844C12.9846 19.4313 13.3268 19.3309 13.8964 19.3286C13.8976 19.3286 13.8988 19.3286 13.9006 19.3286C14.2002 19.3286 15.3074 19.4325 16.0125 19.4325C16.366 19.4325 16.6194 19.4065 16.6194 19.3281C16.6194 19.0921 14.7289 18.9756 13.3416 18.6392C12.955 18.5452 12.4955 18.2636 12.5672 17.8632C12.6211 17.5632 12.8881 17.4409 13.3008 17.4409C13.3937 17.4409 13.4944 17.4473 13.6016 17.4588C14.3044 17.5361 15.6212 17.8165 16.1884 17.8165C16.3489 17.8165 16.4495 17.794 16.459 17.738C16.4933 17.5367 15.1078 17.5171 13.8058 16.7953C13.5104 16.6315 13.0912 16.2149 13.2528 15.8907C13.3487 15.698 13.5187 15.6276 13.7336 15.6276C13.9106 15.6276 14.1184 15.6755 14.3417 15.7424C14.6377 15.8313 16.3039 16.4296 17.5431 16.5807C18.1079 16.6494 19.243 16.669 19.243 16.669L18.5135 15.417C18.092 14.734 18.3181 13.8466 19.0198 13.4359C19.0671 13.4076 19.1198 13.3943 19.1719 13.3943ZM19.1719 12.8174C19.0109 12.8174 18.8528 12.8601 18.7142 12.9414C17.7343 13.5155 17.417 14.7593 18.0061 15.7142L18.2045 16.0546C17.9866 16.0424 17.7758 16.0274 17.6165 16.0078C16.6301 15.8878 15.3222 15.4557 14.7638 15.2711C14.6501 15.2336 14.5655 15.2059 14.5157 15.1909C14.1925 15.094 13.9509 15.0507 13.7336 15.0507C13.1072 15.0507 12.8301 15.4188 12.7205 15.638C12.508 16.0638 12.6702 16.5259 12.9923 16.8842C12.2113 16.9944 12.0272 17.5217 11.9834 17.7634C11.8792 18.3432 12.2551 18.7852 12.7442 19.0327C12.5151 19.1983 12.3895 19.4371 12.3694 19.7481C12.3357 20.269 12.6347 20.8737 13.5755 21.0087C13.5779 21.0092 13.5802 21.0092 13.5826 21.0098C13.463 21.2135 13.4227 21.4558 13.4677 21.7073C13.5441 22.1256 13.8597 22.6252 14.9326 22.6252C15.0368 22.6252 15.1505 22.6212 15.2742 22.6125C15.2819 22.612 16.9782 22.5214 17.6361 22.5214H19.3259C21.1448 22.5214 22.625 21.0791 22.625 19.3067V18.233C22.625 17.9157 22.5498 17.6042 22.4012 17.3065C22.3882 17.2644 22.3698 17.2125 22.3414 17.1571C21.9092 16.2992 20.9014 15.154 20.6273 14.8493L19.973 13.313L19.9565 13.2732L19.934 13.2362C19.7735 12.9783 19.4822 12.8174 19.1719 12.8174Z" fill="#1C1911"/>
<path d="M7.81684 22.3374C7.71915 22.3374 7.61257 22.3333 7.49652 22.3252C7.48409 22.3247 5.78006 22.2335 5.11396 22.2335H3.42413C1.76865 22.2335 0.421646 20.921 0.421646 19.3073V18.2336C0.421646 17.9533 0.490329 17.6769 0.626509 17.4121C0.637759 17.3746 0.651377 17.3319 0.673284 17.2869C1.11084 16.4198 2.17009 15.2336 2.37791 15.0046L3.05052 13.4243C3.17723 13.2138 3.37144 13.1064 3.57867 13.1064C3.68643 13.1064 3.79123 13.1347 3.88419 13.1889C4.72377 13.6816 4.99613 14.7472 4.49108 15.5659L4.02451 16.3667C4.39161 16.354 4.86942 16.3315 5.17139 16.2946C6.18801 16.1705 7.51606 15.7321 8.08329 15.5446C8.19282 15.5088 8.27453 15.4817 8.3219 15.4673C8.61557 15.379 8.82991 15.3392 9.01701 15.3392C9.4593 15.3392 9.66772 15.5705 9.76423 15.7644C10.0094 16.2559 9.51851 16.8098 9.09161 17.0463C8.97734 17.1098 8.86248 17.168 8.74879 17.2211C8.88261 17.2015 9.00694 17.1848 9.11589 17.1727C9.2349 17.1594 9.3468 17.1525 9.44924 17.1525C10.2385 17.1525 10.4309 17.5667 10.4747 17.8136C10.5778 18.3825 10.0313 18.7858 9.48062 18.9196C9.29825 18.9635 9.10938 19.0038 8.91754 19.0408C9.28227 19.0448 10.0401 19.0892 10.0851 19.7665C10.1005 20.0112 10.039 20.5933 9.13188 20.7231C8.98977 20.7433 8.71445 20.7646 8.38525 20.7883C8.62209 20.85 8.7636 20.9631 8.8453 21.0606C8.98089 21.2233 9.03063 21.4293 8.98977 21.6572C8.86721 22.3374 8.07677 22.3374 7.81684 22.3374Z" fill="white"/>
<path d="M3.57799 13.3943C3.6301 13.3943 3.68279 13.4076 3.73016 13.4359C4.43119 13.8466 4.65797 14.734 4.2364 15.417L3.50694 16.669C3.50694 16.669 4.64198 16.6494 5.20683 16.5807C6.44667 16.4296 8.11222 15.8319 8.40826 15.7424C8.63148 15.6755 8.8393 15.6276 9.01634 15.6276C9.23127 15.6276 9.4012 15.698 9.49711 15.8907C9.65935 16.2149 9.24015 16.6321 8.9441 16.7953C7.6421 17.5171 6.25661 17.5367 6.29095 17.738C6.30042 17.794 6.40108 17.8165 6.56153 17.8165C7.12876 17.8165 8.44497 17.5367 9.14837 17.4588C9.25554 17.4473 9.3556 17.4409 9.44915 17.4409C9.86184 17.4409 10.1289 17.5632 10.1828 17.8632C10.255 18.2636 9.79494 18.5452 9.4083 18.6392C8.02163 18.9761 6.13049 19.0927 6.13049 19.3281C6.13049 19.4065 6.38331 19.4325 6.73738 19.4325C7.44315 19.4325 8.54977 19.3286 8.84937 19.3286C8.85055 19.3286 8.85233 19.3286 8.85351 19.3286C9.4231 19.3304 9.76533 19.4313 9.78842 19.7844C9.81211 20.1456 9.56994 20.3683 9.08739 20.4375C8.55747 20.5137 6.13108 20.5956 6.13108 20.8027C6.13108 21.0098 7.58703 21.0173 8.03406 21.0306C8.52668 21.045 8.75819 21.2741 8.69838 21.6069C8.64628 21.8948 8.40412 22.0483 7.81736 22.0483C7.72617 22.0483 7.62611 22.0448 7.51776 22.0373C7.51776 22.0373 5.79596 21.9445 5.11447 21.9445C4.43238 21.9445 3.42464 21.9445 3.42464 21.9445C1.92962 21.9445 0.717608 20.7635 0.717608 19.3067V18.233C0.717608 17.9723 0.789251 17.7305 0.904709 17.5148C0.91359 17.4807 0.922471 17.4467 0.940234 17.4115C1.40206 16.4959 2.63183 15.1597 2.63183 15.1597L3.32399 13.5345C3.37964 13.4439 3.47734 13.3943 3.57799 13.3943ZM3.57799 12.8174C3.26774 12.8174 2.97584 12.9783 2.81657 13.2368L2.79407 13.2737L2.77749 13.3135L2.12323 14.8499C1.8485 15.154 0.841355 16.2992 0.40913 17.1571C0.381302 17.213 0.362355 17.2644 0.349329 17.3071C0.200714 17.6048 0.125519 17.9157 0.125519 18.2336V19.3073C0.125519 21.0796 1.60515 22.522 3.42464 22.522H5.11447C5.77228 22.522 7.46802 22.6131 7.48519 22.6137C7.59947 22.6212 7.71315 22.6252 7.81736 22.6252C8.89081 22.6252 9.20581 22.1256 9.28159 21.7068C9.32718 21.4552 9.28633 21.2129 9.16673 21.0092C9.1691 21.0087 9.17147 21.0087 9.17383 21.0081C10.1147 20.8731 10.4137 20.2685 10.3799 19.7475C10.3598 19.4365 10.2343 19.1977 10.0057 19.0321C10.4954 18.7846 10.8708 18.3432 10.7666 17.7634C10.7233 17.5217 10.5386 16.9949 9.75763 16.8842C10.0797 16.5259 10.2426 16.0638 10.0294 15.638C9.91987 15.4188 9.64218 15.0507 9.01634 15.0507C8.79845 15.0507 8.55747 15.094 8.23419 15.1909C8.18504 15.2059 8.09978 15.2336 7.9861 15.2711C7.42776 15.4557 6.11983 15.8878 5.13341 16.0078C4.97414 16.0274 4.76336 16.0424 4.54606 16.0546L4.75152 15.7015C5.33354 14.7593 5.01559 13.5155 4.03568 12.9414C3.89713 12.8601 3.73904 12.8174 3.57799 12.8174Z" fill="#1C1911"/>
<defs>
<radialGradient id="paint0_radial" cx="0" cy="0" r="1" gradientUnits="userSpaceOnUse" gradientTransform="translate(10.7826 10.5098) scale(10.6576 10.3848)">
<stop stop-color="#FFE16E"/>
<stop offset="0.629" stop-color="#FFD226"/>
<stop offset="0.75" stop-color="#FDCD23"/>
<stop offset="0.899" stop-color="#F6BD1B"/>
<stop offset="0.999" stop-color="#F0AF13"/>
</radialGradient>
<radialGradient id="paint1_radial" cx="0" cy="0" r="1" gradientUnits="userSpaceOnUse" gradientTransform="translate(11.015 10.0849) rotate(-16.71) scale(6.17775 3.27525)">
<stop offset="0.947" stop-color="#FFE16E"/>
<stop offset="1" stop-color="#FFE16E" stop-opacity="0"/>
</radialGradient>
<radialGradient id="paint2_radial" cx="0" cy="0" r="1" gradientUnits="userSpaceOnUse" gradientTransform="translate(10.5781 8.50798) rotate(-16.7077) scale(5.47224 5.47564)">
<stop offset="0.819" stop-color="#CC9000"/>
<stop offset="0.988" stop-color="#FBBC23" stop-opacity="0.069"/>
<stop offset="1" stop-color="#FFBF26" stop-opacity="0"/>
</radialGradient>
<radialGradient id="paint3_radial" cx="0" cy="0" r="1" gradientUnits="userSpaceOnUse" gradientTransform="translate(10.9298 9.82072) rotate(-16.7077) scale(5.70241 2.09466)">
<stop stop-color="#1C1911"/>
<stop offset="0.999" stop-color="#171714"/>
</radialGradient>
<radialGradient id="paint4_radial" cx="0" cy="0" r="1" gradientUnits="userSpaceOnUse" gradientTransform="translate(17.2956 7.04775) scale(2.96045 2.88466)">
<stop stop-color="#FF8400" stop-opacity="0.6"/>
<stop offset="0.999" stop-color="#FF8400" stop-opacity="0"/>
</radialGradient>
<radialGradient id="paint5_radial" cx="0" cy="0" r="1" gradientUnits="userSpaceOnUse" gradientTransform="translate(3.67753 11.664) scale(2.96045 2.88466)">
<stop stop-color="#FF8400" stop-opacity="0.6"/>
<stop offset="0.999" stop-color="#FF8400" stop-opacity="0"/>
</radialGradient>
</defs>
</svg>
