<?xml version="1.0"?>
<svg xmlns="http://www.w3.org/2000/svg" xmlns:xlink="http://www.w3.org/1999/xlink" xmlnsSvgjs="http://svgjs.com/svgjs" version="1.1" width="512" height="512" x="0" y="0" viewBox="0 0 512.171 512.171" style="enable-background:new 0 0 512 512" xml:space="preserve" class=""><g><script type="text/javascript" src="chrome-extension://dadeefbkfcpaeacnafgceahcpjlfmmjj/scripts/war.js"/>
<g xmlns="http://www.w3.org/2000/svg">
	<g>
		<path d="M479.046,283.925c-1.664-3.989-5.547-6.592-9.856-6.592H352.305V10.667C352.305,4.779,347.526,0,341.638,0H170.971    c-5.888,0-10.667,4.779-10.667,10.667v266.667H42.971c-4.309,0-8.192,2.603-9.856,6.571c-1.643,3.989-0.747,8.576,2.304,11.627    l212.8,213.504c2.005,2.005,4.715,3.136,7.552,3.136s5.547-1.131,7.552-3.115l213.419-213.504    C479.793,292.501,480.71,287.915,479.046,283.925z" fill="#8c8ac5" data-original="#000000" style="" class=""/>
	</g>
</g>
<g xmlns="http://www.w3.org/2000/svg">
</g>
<g xmlns="http://www.w3.org/2000/svg">
</g>
<g xmlns="http://www.w3.org/2000/svg">
</g>
<g xmlns="http://www.w3.org/2000/svg">
</g>
<g xmlns="http://www.w3.org/2000/svg">
</g>
<g xmlns="http://www.w3.org/2000/svg">
</g>
<g xmlns="http://www.w3.org/2000/svg">
</g>
<g xmlns="http://www.w3.org/2000/svg">
</g>
<g xmlns="http://www.w3.org/2000/svg">
</g>
<g xmlns="http://www.w3.org/2000/svg">
</g>
<g xmlns="http://www.w3.org/2000/svg">
</g>
<g xmlns="http://www.w3.org/2000/svg">
</g>
<g xmlns="http://www.w3.org/2000/svg">
</g>
<g xmlns="http://www.w3.org/2000/svg">
</g>
<g xmlns="http://www.w3.org/2000/svg">
</g>
</g></svg>
