<svg width="20.57mm" height="20.63mm" version="1.1" viewBox="0 0 20.57 20.63" xmlns="http://www.w3.org/2000/svg">
 <g transform="translate(-125.7 -104.1)">
  <g transform="matrix(.2646 0 0 .2646 122.8 101.2)">
   <g data-name="Group">
    <path d="m64.5 11.9a3 3 0 0 0-4.2 0l-9.5 9.5a3 3 0 0 0 0 4.2l1.1 1.1-5.4 5.3a29.1 29.1 0 0 0-23.5 8.3l-1 1a3 3 0 0 0 0 4.2l14.1 14.2-25 25 4.2 4.3 25-25 14.1 14a3 3 0 0 0 2.1 0.9 3 3 0 0 0 2.1-0.9l1-1a29 29 0 0 0 8.4-23.5l5.2-5.2 1.1 1.1a3 3 0 0 0 4.2 0l9.5-9.5a3 3 0 0 0 0-4.2z" data-name="Path"/>
   </g>
  </g>
 </g>
</svg>
